<?xml version="1.0" encoding="UTF-8"?>
<svg width="14px" height="20px" viewBox="0 0 14 20" version="1.1" xmlns="http://www.w3.org/2000/svg" xmlns:xlink="http://www.w3.org/1999/xlink">
    <!-- Generator: Sketch 59.1 (86144) - https://sketch.com -->
    <title>Shape</title>
    <desc>Created with Sketch.</desc>
    <g id="Browse" stroke="none" stroke-width="1" fill="none" fill-rule="evenodd">
        <g id="Browse_002" transform="translate(-300.000000, -150.000000)" fill="#3F4657" fill-rule="nonzero">
            <path d="M312.763533,150 L301.196581,150 C300.518519,150 300,150.5 300,151.153846 L300,168.846154 C300,169.269231 300.239316,169.653846 300.638177,169.846154 C300.797721,169.923077 300.997151,170 301.196581,170 C301.435897,170 301.635328,169.923077 301.834758,169.807692 C301.874644,169.807692 301.874644,169.769231 301.91453,169.769231 L306.980057,165.923077 L312.045584,169.769231 C312.045584,169.769231 312.08547,169.807692 312.125356,169.807692 C312.48433,170.038462 312.962963,170.038462 313.361823,169.846154 C313.760684,169.653846 314,169.269231 314,168.846154 L314,151.153846 C313.960114,150.538462 313.441595,150 312.763533,150 Z M312.364672,168.038462 L307.458689,164.307692 C307.179487,164.076923 306.740741,164.076923 306.461538,164.307692 L301.555556,168.038462 L301.555556,151.538462 L312.324786,151.538462 L312.324786,168.038462 L312.364672,168.038462 Z" id="Shape"></path>
        </g>
    </g>
</svg>