<?xml version="1.0" encoding="UTF-8"?>
<svg width="10px" height="10px" viewBox="0 0 10 10" version="1.1" xmlns="http://www.w3.org/2000/svg" xmlns:xlink="http://www.w3.org/1999/xlink">
    <!-- Generator: Sketch 51.3 (57544) - http://www.bohemiancoding.com/sketch -->
    <title>Group 23</title>
    <desc>Created with Sketch.</desc>
    <defs></defs>
    <g id="ICONS-FINAL" stroke="none" stroke-width="1" fill="none" fill-rule="evenodd">
        <g id="Group-23" fill="#AAB2C8" fill-rule="nonzero">
            <path d="M5,9.54166667 C2.49170676,9.54166667 0.458333333,7.50829324 0.458333333,5 C0.458333333,2.49170676 2.49170676,0.458333333 5,0.458333333 C7.50829324,0.458333333 9.54166667,2.49170676 9.54166667,5 C9.54166667,7.50829324 7.50829324,9.54166667 5,9.54166667 Z M5,8.79166667 C7.09407968,8.79166667 8.79166667,7.09407968 8.79166667,5 C8.79166667,2.90592032 7.09407968,1.20833333 5,1.20833333 C2.90592032,1.20833333 1.20833333,2.90592032 1.20833333,5 C1.20833333,7.09407968 2.90592032,8.79166667 5,8.79166667 Z" id="Oval-10"></path>
            <path d="M5.01918668,2.5 C5.01918668,2.29289322 5.1870799,2.125 5.39418668,2.125 C5.60129346,2.125 5.76918668,2.29289322 5.76918668,2.5 L5.76918668,5.38072222 C5.76918668,5.587829 5.60129346,5.75572222 5.39418668,5.75572222 L2.91666667,5.75572222 C2.70955989,5.75572222 2.54166667,5.587829 2.54166667,5.38072222 C2.54166667,5.17361544 2.70955989,5.00572222 2.91666667,5.00572222 L5.01918668,5.00572222 L5.01918668,2.5 Z" id="Path-6"></path>
        </g>
    </g>
</svg>