<?xml version="1.0" encoding="UTF-8"?>
<svg width="24px" height="24px" viewBox="0 0 24 24" version="1.1" xmlns="http://www.w3.org/2000/svg" xmlns:xlink="http://www.w3.org/1999/xlink">
    <!-- Generator: Sketch 59.1 (86144) - https://sketch.com -->
    <title>Artboard</title>
    <desc>Created with Sketch.</desc>
    <defs>
        <path d="M13.3,0.71 C13.1131554,0.522771911 12.8595095,0.417555968 12.595,0.417555968 C12.3304905,0.417555968 12.0768446,0.522771911 11.89,0.71 L7,5.59 L2.11,0.7 C1.85812776,0.448127753 1.49101597,0.349760441 1.14695208,0.441952079 C0.802888201,0.534143716 0.534143716,0.802888201 0.441952079,1.14695208 C0.349760441,1.49101597 0.448127753,1.85812776 0.7,2.11 L5.59,7 L0.7,11.89 C0.448127759,12.1418722 0.349760452,12.508984 0.44195209,12.8530479 C0.534143729,13.1971118 0.802888211,13.4658563 1.14695209,13.5580479 C1.49101597,13.6502395 1.85812776,13.5518722 2.11,13.3 L7,8.41 L11.89,13.3 C12.1418722,13.5518722 12.508984,13.6502395 12.8530479,13.5580479 C13.1971118,13.4658563 13.4658563,13.1971118 13.5580479,12.8530479 C13.6502395,12.508984 13.5518722,12.1418722 13.3,11.89 L8.41,7 L13.3,2.11 C13.68,1.73 13.68,1.09 13.3,0.71 Z" id="path-1"></path>
    </defs>
    <g id="Artboard" stroke="none" stroke-width="1" fill="none" fill-rule="evenodd">
        <g id="close-24-px-copy" transform="translate(5.000000, 5.000000)">
            <mask id="mask-2" fill="white">
                <use xlink:href="#path-1"></use>
            </mask>
            <g id="a"></g>
            <g id="Group" mask="url(#mask-2)" fill="#FFFFFF" fill-rule="nonzero">
                <g transform="translate(-5.000000, -5.000000)" id="Path">
                    <polygon points="0 0 24 0 24 24 0 24"></polygon>
                </g>
            </g>
        </g>
    </g>
</svg>