<?xml version="1.0" encoding="UTF-8"?>
<svg width="32px" height="32px" viewBox="0 0 32 32" version="1.1" xmlns="http://www.w3.org/2000/svg" xmlns:xlink="http://www.w3.org/1999/xlink">
    <!-- Generator: Sketch 59.1 (86144) - https://sketch.com -->
    <title>Group 51</title>
    <desc>Created with Sketch.</desc>
    <g id="Listing" stroke="none" stroke-width="1" fill="none" fill-rule="evenodd">
        <g id="Listing-page-Web-Copy" transform="translate(-108.000000, -375.000000)" stroke="#FF6E6E">
            <g id="Group-52" transform="translate(80.000000, 253.000000)">
                <g id="Group-51" transform="translate(28.009218, 122.000000)">
                    <g id="close-(2)" transform="translate(10.000000, 10.000000)" fill="#FF6E6E" fill-rule="nonzero" stroke-width="0.5">
                        <path d="M7.08366476,5.99161931 L11.7458807,1.32926138 C12.0492898,1.02599433 12.0492898,0.535653418 11.7458807,0.232386364 C11.4426136,-0.0708806909 10.9522727,-0.0708806909 10.6490057,0.232386364 L5.98664771,4.89474433 L1.32443182,0.232386364 C1.02102273,-0.0708806909 0.530823855,-0.0708806909 0.2275568,0.232386364 C-0.0758522909,0.535653418 -0.0758522909,1.02599433 0.2275568,1.32926138 L4.88977273,5.99161931 L0.2275568,10.6539773 C-0.0758522909,10.9572443 -0.0758522909,11.4475852 0.2275568,11.7508523 C0.378693164,11.9021307 0.577414764,11.978125 0.775994327,11.978125 C0.974573855,11.978125 1.17315342,11.9021307 1.32443182,11.7508523 L5.98664771,7.08849433 L10.6490057,11.7508523 C10.8002841,11.9021307 10.9988636,11.978125 11.1974432,11.978125 C11.3960227,11.978125 11.5946023,11.9021307 11.7458807,11.7508523 C12.0492898,11.4475852 12.0492898,10.9572443 11.7458807,10.6539773 L7.08366476,5.99161931 Z" id="Path"></path>
                    </g>
                </g>
            </g>
        </g>
    </g>
</svg>
