<svg xmlns="http://www.w3.org/2000/svg" width="22" height="20" viewBox="0 0 22 20">
    <defs>
        <linearGradient id="a" x1="16.146%" x2="86.636%" y1="22.296%" y2="73.308%">
            <stop offset="0%" stop-color="#347FFF"/>
            <stop offset="100%" stop-color="#005FFF"/>
        </linearGradient>
        <linearGradient id="b" x1="16.146%" x2="86.636%" y1="43.074%" y2="55.827%">
            <stop offset="0%" stop-color="#347FFF"/>
            <stop offset="100%" stop-color="#005FFF"/>
        </linearGradient>
    </defs>
    <g fill="none" fill-rule="evenodd">
        <path fill="#FFF" d="M0 0h22v20H0z"/>
        <path fill="url(#a)" d="M17.894 8.61a5.34 5.34 0 0 0-7.538 6.484H2.534a1.92 1.92 0 0 1-1.92-1.92V2.614c0-1.06.86-1.92 1.92-1.92h13.44c1.06 0 1.92.86 1.92 1.92V8.61zm-5.392 2.2l-.932 2.82a3.825 3.825 0 0 1 .932-2.82z" opacity=".5" transform="translate(1 1)"/>
        <path fill="url(#b)" d="M2.534.694h13.44c1.06 0 1.92.86 1.92 1.92v.96l-8.616 4.32-8.664-4.56v-.72c0-1.06.86-1.92 1.92-1.92z" opacity=".5" transform="translate(1 1)"/>
        <path fill="#5897FF" fill-rule="nonzero" d="M13.735 12.53a3.215 3.215 0 0 0 4.557 4.4l-4.557-4.4zm.889-.88l4.516 4.362a3.215 3.215 0 0 0-4.516-4.361zm1.774 7.147a4.465 4.465 0 1 1 0-8.93 4.465 4.465 0 0 1 0 8.93z"/>
    </g>
</svg>
