<svg xmlns="http://www.w3.org/2000/svg" width="23" height="22" viewBox="0 0 23 22">
    <g fill="none" fill-rule="evenodd">
        <path fill="#FFF" d="M21.272 2.547l.466 1.57.783 7.831-.783 1.64h-3.187l-2.425.305.981 3.048v2.608l-2.088 1.739-1.41-.871v-3.101l-2.867-3.423-2.912-2.379H5.208v1.492l-4.349-.39-.814-1.102.366-10.03.897-.71h3.9l.383 1.773.55-.564L16.8.773h2.071z"/>
        <g fill="#D0021B" fill-rule="nonzero">
            <path d="M20.365 6.631c.085.57.18 1.152.264 1.723.148.972.307 1.944.444 2.905.106.719-.222 1.511-.824 1.976l-.053.042c-.032.022-.042.032-.053.043l-.264.148c-.053.02-.116.052-.2.074-.814.264-1.67.169-2.42.095l-.265-.021c-.052 0-.116 0-.158-.011h-.264c-.17 0-.349-.01-.518-.021l.042.158c.127.434.264.877.402 1.321.232.74.306 1.342.232 1.944a2.76 2.76 0 0 1-1.268 2.008 2.47 2.47 0 0 1-1.32.39h-.106c-.613-.02-1.025-.411-1.078-1.014-.053-.475-.095-.855-.148-1.204-.095-.623-.264-1.13-.507-1.553a3.71 3.71 0 0 0-.475-.655 35.977 35.977 0 0 1-.951-1.036l-.772-.877a7.005 7.005 0 0 0-.665-.687 1.337 1.337 0 0 0-.328-.211c-.063-.032-.19-.063-.317-.106-.338-.095-.697-.296-1.807-.296-.253-.126-.137-.412 0-.665.127-.254-.066-.338.212-.338 1.113 0 1.616.253 1.88.327.18.053.328.095.465.159.201.095.402.211.603.39.063.064.116.106.137.127.222.212.423.434.602.634l.772.877c.338.38.644.708.93 1.015.242.253.443.539.623.845.306.528.507 1.152.623 1.902.053.37.106.771.159 1.257 0 .053.02.074.02.085 0 0 .032.021.096.021h.063c.264 0 .54-.084.782-.232.444-.275.74-.75.793-1.258.052-.454-.01-.92-.19-1.521a63.718 63.718 0 0 1-.402-1.332l-.275-.908v-.085c0-.327.296-.592.613-.55h.17a.354.354 0 0 0 .147.043l.328.021c.158.01.327.01.507.021h.243a.7.7 0 0 1 .158.01l.148.011a.4.4 0 0 1 .085.01l.105.011c.687.074 1.395.148 1.987-.042.032-.01.063-.02.095-.042l.19-.116c.296-.233.476-.645.423-1.004-.138-.962-.285-1.934-.433-2.895a98.053 98.053 0 0 1-.265-1.733l-.063-.423c-.106-.782-.211-1.585-.655-2.134-1.162-1.448-3.075-1.194-4.924-.94-.254.031-.497.063-.74.095-.824.095-1.68.232-2.588.39l-.201.032c-.476.085-.835.148-1.183.201l-.096.021-1.997.317a.507.507 0 0 1 0-1.014l1.902-.317c.37-.053.74-.116 1.205-.201l.222-.032c.908-.148 1.764-.296 2.62-.39l.719-.096c.708-.095 1.479-.2 2.24-.2 1.331 0 2.652.306 3.613 1.51.624.772.75 1.765.877 2.642 0 .085.011.222.032.36z"/>
            <path d="M6.048 2.31c.644 0 1.162.517 1.162 1.162v8.22c0 .645-.518 1.163-1.162 1.163H3.28a1.159 1.159 0 0 1-1.163-1.163v-8.22c0-.645.518-1.162 1.163-1.162h2.768zM3.132 3.472v8.22c0 .085.063.148.148.148h2.768a.144.144 0 0 0 .148-.148v-8.22a.144.144 0 0 0-.148-.148H3.28a.144.144 0 0 0-.148.148z"/>
        </g>
    </g>
</svg>
