<svg xmlns="http://www.w3.org/2000/svg" width="14" height="14" viewBox="0 0 14 14">
    <path fill="#77AFFF" fill-rule="nonzero" d="M10.98 4.67L9.331 3.025 2.154 10.2c-.109.11-.193.242-.245.387l-.855 2.361 2.361-.855c.146-.052.277-.136.387-.245l7.177-7.178zm.627-.627l1.03-1.03a1.054 1.054 0 0 0 0-1.49l-.156-.157a1.054 1.054 0 0 0-1.49 0L9.96 2.396l1.647 1.647zM10.245.62a2.108 2.108 0 0 1 2.98 0l.158.157a2.108 2.108 0 0 1 0 2.981l-8.836 8.836a2.108 2.108 0 0 1-.773.491l-2.361.855a1.054 1.054 0 0 1-1.35-1.35l.855-2.36c.105-.291.273-.555.491-.774L10.245.62z"/>
</svg>
