<svg xmlns="http://www.w3.org/2000/svg" width="24" height="15" viewBox="0 0 24 15">
    <path fill="#4D5B83" fill-rule="nonzero" d="M11.9 1.864c-2.968 0-6.323 1.612-10.046 4.928a.961.961 0 0 0 0 1.436c3.723 3.316 7.078 4.928 10.046 4.928 2.968 0 6.324-1.612 10.046-4.928a.962.962 0 0 0 0-1.436C18.224 3.476 14.868 1.864 11.9 1.864zm0-1.5c3.39 0 7.07 1.769 11.044 5.308a2.462 2.462 0 0 1 0 3.676c-3.973 3.539-7.655 5.308-11.044 5.308-3.389 0-7.07-1.769-11.043-5.308a2.462 2.462 0 0 1 0-3.676C4.83 2.133 8.51.364 11.9.364zm-.097 4.429A2.683 2.683 0 0 0 9.12 7.475v.08a2.683 2.683 0 1 0 5.365 0v-.08a2.683 2.683 0 0 0-2.682-2.682zm4.182 2.682v.08a4.183 4.183 0 1 1-8.365 0v-.08a4.183 4.183 0 0 1 8.365 0z"/>
</svg>
