<svg xmlns="http://www.w3.org/2000/svg" width="22" height="24" viewBox="0 0 22 24">
    <path fill="#FFA800" fill-rule="nonzero" d="M3.305 0c.456 0 .825.366.825.818v3.65A3.28 3.28 0 0 1 6.6 7.636a3.28 3.28 0 0 1-2.47 3.169v12.377c0 .452-.37.818-.825.818a.822.822 0 0 1-.825-.818V10.807A3.28 3.28 0 0 1 0 7.637a3.28 3.28 0 0 1 2.48-3.172V.818c0-.452.37-.818.825-.818zm15.4 0c.456 0 .825.366.825.818V6.65A3.28 3.28 0 0 1 22 9.818a3.28 3.28 0 0 1-2.47 3.168v10.196c0 .452-.37.818-.825.818a.822.822 0 0 1-.825-.818V12.989a3.28 3.28 0 0 1-2.48-3.17 3.28 3.28 0 0 1 2.48-3.172V.818c0-.452.37-.818.825-.818zm-7.7 0c.456 0 .825.366.825.818v12.377a3.28 3.28 0 0 1 2.47 3.169c0 1.622-1.19 2.968-2.75 3.227v3.59c0 .453-.37.819-.825.819a.822.822 0 0 1-.825-.818l-.001-3.732A3.276 3.276 0 0 1 7.7 16.364a3.28 3.28 0 0 1 2.48-3.171V.818c0-.452.37-.818.825-.818zM11 14.727c-.911 0-1.65.733-1.65 1.637 0 .903.739 1.636 1.65 1.636.911 0 1.65-.733 1.65-1.636 0-.904-.739-1.637-1.65-1.637zm7.7-6.545c-.911 0-1.65.732-1.65 1.636 0 .904.739 1.637 1.65 1.637.911 0 1.65-.733 1.65-1.637s-.739-1.636-1.65-1.636zM3.3 6c-.911 0-1.65.733-1.65 1.636 0 .904.739 1.637 1.65 1.637.911 0 1.65-.733 1.65-1.637C4.95 6.733 4.211 6 3.3 6z"/>
</svg>
