<svg xmlns="http://www.w3.org/2000/svg" width="14" height="9" viewBox="0 0 14 9">
    <path fill="#4D5B83" fill-rule="nonzero" d="M11.091 3.755v3.567l-.111.102C9.889 8.422 8.5 8.92 6.829 8.92c-1.67 0-3.06-.499-4.151-1.497l-.111-.102V3.679l-2.063-.76a.342.342 0 0 1 0-.642L6.396.106c.278-.103.583-.105.862-.007l6.182 2.163c.16.032.28.17.28.336v2.94a.346.346 0 0 1-.35.342.346.346 0 0 1-.35-.342V3.08l-1.929.675zm-.684.24L7.258 5.097c-.28.098-.584.095-.862-.007L3.251 3.93v3.086c.943.813 2.13 1.22 3.578 1.22s2.635-.407 3.578-1.22V3.995zM7.032.745a.591.591 0 0 0-.4.003l-5.02 1.85 5.02 1.85c.13.047.27.048.4.003l5.294-1.853L7.032.745z"/>
</svg>
