<svg xmlns="http://www.w3.org/2000/svg" width="23" height="22" viewBox="0 0 23 22">
    <g fill="none" fill-rule="evenodd">
        <path fill="#FFF" d="M21.272 19.453l.466-1.57.783-7.831-.783-1.64h-3.187l-2.425-.305.981-3.048V2.451L15.019.712l-1.41.871v3.101l-2.867 3.423-2.912 2.379H5.208V8.994l-4.349.39-.814 1.102.366 10.03.897.71h3.9l.383-1.773.55.564 10.659 1.21h2.071z"/>
        <g fill="#0DA361" fill-rule="nonzero">
            <path d="M20.365 15.369c.085-.57.18-1.152.264-1.723.148-.972.307-1.944.444-2.905.106-.719-.222-1.511-.824-1.976l-.053-.042c-.032-.022-.042-.032-.053-.043l-.264-.148c-.053-.02-.116-.052-.2-.074-.814-.264-1.67-.169-2.42-.095l-.265.021c-.052 0-.116 0-.158.011h-.264c-.17 0-.349.01-.518.021l.042-.158c.127-.434.264-.877.402-1.321.232-.74.306-1.342.232-1.944a2.76 2.76 0 0 0-1.268-2.008 2.47 2.47 0 0 0-1.32-.39h-.106c-.613.02-1.025.411-1.078 1.014-.053.475-.095.855-.148 1.204-.095.623-.264 1.13-.507 1.553a3.71 3.71 0 0 1-.475.655c-.296.307-.603.645-.951 1.036l-.772.877a7.005 7.005 0 0 1-.665.687 1.337 1.337 0 0 1-.328.211c-.063.032-.19.063-.317.106-.338.095-.697.296-1.807.296-.253.126-.137.412 0 .665.127.254-.066.338.212.338 1.113 0 1.616-.253 1.88-.327.18-.053.328-.095.465-.159.201-.095.402-.211.603-.39.063-.064.116-.106.137-.127.222-.212.423-.434.602-.634l.772-.877c.338-.38.644-.708.93-1.015a4.48 4.48 0 0 0 .623-.845c.306-.528.507-1.152.623-1.902.053-.37.106-.771.159-1.257 0-.053.02-.074.02-.085 0 0 .032-.021.096-.021h.063c.264 0 .54.084.782.232.444.275.74.75.793 1.258.052.454-.01.92-.19 1.521-.138.444-.275.888-.402 1.332l-.275.908v.085c0 .327.296.592.613.55h.17a.354.354 0 0 1 .147-.043l.328-.021c.158-.01.327-.01.507-.021h.243c.063 0 .116 0 .158-.01l.148-.011c.042 0 .085-.01.085-.01l.105-.011c.687-.074 1.395-.148 1.987.042.032.01.063.02.095.042l.19.116c.296.233.476.645.423 1.004-.138.962-.285 1.934-.433 2.895-.096.581-.18 1.152-.265 1.733l-.063.423c-.106.782-.211 1.585-.655 2.134-1.162 1.448-3.075 1.194-4.924.94-.254-.031-.497-.063-.74-.095a45.614 45.614 0 0 1-2.588-.39l-.201-.032a47.495 47.495 0 0 0-1.183-.201l-.096-.021-1.997-.317a.507.507 0 0 0 0 1.014l1.902.317c.37.053.74.116 1.205.201l.222.032c.908.148 1.764.296 2.62.39l.719.096c.708.095 1.479.2 2.24.2 1.331 0 2.652-.306 3.613-1.51.624-.772.75-1.765.877-2.642 0-.085.011-.222.032-.36z"/>
            <path d="M6.048 19.69c.644 0 1.162-.517 1.162-1.162v-8.22c0-.645-.518-1.163-1.162-1.163H3.28c-.645 0-1.163.518-1.163 1.163v8.22c0 .645.518 1.162 1.163 1.162h2.768zm-2.916-1.162v-8.22c0-.085.063-.148.148-.148h2.768c.084 0 .148.063.148.148v8.22a.144.144 0 0 1-.148.148H3.28a.144.144 0 0 1-.148-.148z"/>
        </g>
    </g>
</svg>
