<?xml version="1.0" encoding="UTF-8"?>
<svg width="18px" height="18px" viewBox="0 0 20 10" version="1.1" xmlns="http://www.w3.org/2000/svg" xmlns:xlink="http://www.w3.org/1999/xlink">
    <!-- Generator: Sketch 58 (84663) - https://sketch.com -->
    <desc>Created with Sketch.</desc>
    <g id="Page-1" stroke="none" stroke-width="1" fill="none" fill-rule="evenodd">
        <g id="1_ShareJD_listing" transform="translate(-1224.000000, -799.000000)" fill="#7C8BA2" fill-rule="nonzero">
            <path d="M1239,799 C1241.76142,799 1244,801.238576 1244,804 C1244,806.688755 1241.87769,808.881818 1239.21689,808.99538 L1239,809 L1236,809 C1235.44772,809 1235,808.552285 1235,808 C1235,807.487164 1235.38604,807.064493 1235.88338,807.006728 L1236,807 L1239,807 C1240.65685,807 1242,805.656854 1242,804 C1242,802.402319 1240.75108,801.096339 1239.17627,801.005093 L1239,801 L1236,801 C1235.44772,801 1235,800.552285 1235,800 C1235,799.487164 1235.38604,799.064493 1235.88338,799.006728 L1236,799 L1239,799 Z M1232,799 C1232.55228,799 1233,799.447715 1233,800 C1233,800.512836 1232.61396,800.935507 1232.11662,800.993272 L1232,801 L1229,801 C1227.34315,801 1226,802.343146 1226,804 C1226,805.597681 1227.24892,806.903661 1228.82373,806.994907 L1229,807 L1232,807 C1232.55228,807 1233,807.447715 1233,808 C1233,808.512836 1232.61396,808.935507 1232.11662,808.993272 L1232,809 L1229,809 C1226.23858,809 1224,806.761424 1224,804 C1224,801.311245 1226.12231,799.118182 1228.78311,799.00462 L1229,799 L1232,799 Z M1237,803 C1237.55228,803 1238,803.447715 1238,804 C1238,804.552285 1237.55228,805 1237,805 L1237,805 L1231,805 C1230.44772,805 1230,804.552285 1230,804 C1230,803.447715 1230.44772,803 1231,803 L1231,803 Z" id="Link_Icon"></path>
        </g>
    </g>
</svg>