<?xml version="1.0" encoding="UTF-8"?>
<svg width="11px" height="12px" viewBox="0 0 11 12" version="1.1" xmlns="http://www.w3.org/2000/svg" xmlns:xlink="http://www.w3.org/1999/xlink">
    <!-- Generator: Sketch 59.1 (86144) - https://sketch.com -->
    <title>lock (1)</title>
    <desc>Created with Sketch.</desc>
    <g id="Listing" stroke="none" stroke-width="1" fill="none" fill-rule="evenodd">
        <g id="lock-(1)" transform="translate(0.750000, 0.000000)" fill="#B3BBD2" fill-rule="nonzero">
            <path d="M5,9.14285714 C5.69035594,9.14285714 6.25,8.63118257 6.25,8 C6.25,7.36571429 5.6875,6.85714286 5,6.85714286 C4.30964406,6.85714286 3.75,7.36881743 3.75,8 C3.75,8.63118257 4.30964406,9.14285714 5,9.14285714 M8.75,4 C9.44035594,4 10,4.51167457 10,5.14285714 L10,10.8571429 C10,11.4883254 9.44035594,12 8.75,12 L1.25,12 C0.559644063,12 0,11.4883254 0,10.8571429 L0,5.14285714 C0,4.50857143 0.5625,4 1.25,4 L1.875,4 L1.875,2.85714286 C1.875,1.27918643 3.27411016,0 5,0 C5.82880153,0 6.62365751,0.301019544 7.20970869,0.836837768 C7.79575987,1.37265599 8.125,2.09938146 8.125,2.85714286 L8.125,4 L8.75,4 M5,1.14285714 C3.96446609,1.14285714 3.125,1.910369 3.125,2.85714286 L3.125,4 L6.875,4 L6.875,2.85714286 C6.875,1.910369 6.03553391,1.14285714 5,1.14285714 Z" id="Shape"></path>
        </g>
    </g>
</svg>