<?xml version="1.0" encoding="UTF-8"?>
<svg width="18px" height="17px" viewBox="0 0 18 17" version="1.1" xmlns="http://www.w3.org/2000/svg" xmlns:xlink="http://www.w3.org/1999/xlink">
    <!-- Generator: Sketch 51.3 (57544) - http://www.bohemiancoding.com/sketch -->
    <title>Group 27</title>
    <desc>Created with Sketch.</desc>
    <defs></defs>
    <g id="ICONS-FINAL" stroke="none" stroke-width="1" fill="none" fill-rule="evenodd">
        <g id="Group-27" fill="#AAB2C8" fill-rule="nonzero">
            <path d="M1.54680915,1.11627898 C1.24738356,1.11627898 1.00465116,1.38598163 1.00465116,1.7186767 L1.00465116,15.543006 C1.00465116,15.634841 1.03801612,15.7227874 1.09718326,15.7869105 C1.21841754,15.9182995 1.41255803,15.9156116 1.53080817,15.7809069 L3.32553463,13.7364428 C3.80572413,13.1894345 4.46431613,12.8809709 5.15202872,12.8809709 L16.4531908,12.8809709 C16.7526164,12.8809709 16.9953488,12.6112683 16.9953488,12.2785732 L16.9953488,1.7186767 C16.9953488,1.38598163 16.7526164,1.11627898 16.4531908,1.11627898 L1.54680915,1.11627898 Z M1.54680915,0 L16.4531908,0 C17.30747,0 18,0.76947777 18,1.7186767 L18,12.2785732 C18,13.2277721 17.30747,13.9972499 16.4531908,13.9972499 L5.15202872,13.9972499 C4.73510664,13.9972499 4.33583877,14.1842543 4.04472646,14.5158751 L2.25,16.5603392 C1.74432808,17.1363758 0.914127038,17.1478701 0.395694075,16.5860125 C0.142678233,16.3118037 0,15.9357194 0,15.543006 L0,1.7186767 C0,0.76947777 0.692530047,0 1.54680915,0 Z" id="Rectangle"></path>
            <path d="M4.83650203,5.00606999 C4.56035966,5.00606999 4.33650203,4.78221237 4.33650203,4.50606999 C4.33650203,4.22992762 4.56035966,4.00606999 4.83650203,4.00606999 L12.899002,4.00606999 C13.1751444,4.00606999 13.399002,4.22992762 13.399002,4.50606999 C13.399002,4.78221237 13.1751444,5.00606999 12.899002,5.00606999 L4.83650203,5.00606999 Z" id="Line-3"></path>
            <path d="M4.83650203,7.5 C4.56035966,7.5 4.33650203,7.27614237 4.33650203,7 C4.33650203,6.72385763 4.56035966,6.5 4.83650203,6.5 L13.7948354,6.5 C14.0709777,6.5 14.2948354,6.72385763 14.2948354,7 C14.2948354,7.27614237 14.0709777,7.5 13.7948354,7.5 L4.83650203,7.5 Z" id="Line-3"></path>
            <path d="M4.83650203,9.99076896 C4.56035966,9.99076896 4.33650203,9.76691133 4.33650203,9.49076896 C4.33650203,9.21462658 4.56035966,8.99076896 4.83650203,8.99076896 L10.211502,8.99076896 C10.4876444,8.99076896 10.711502,9.21462658 10.711502,9.49076896 C10.711502,9.76691133 10.4876444,9.99076896 10.211502,9.99076896 L4.83650203,9.99076896 Z" id="Line-3"></path>
        </g>
    </g>
</svg>