<svg xmlns="http://www.w3.org/2000/svg" width="12" height="20" viewBox="0 0 12 20">
    <path fill="#BBBBBB" fill-rule="nonzero" d="M10.353 0H2.106C1.316 0 .679.64.679 1.428v16.747c0 .787.637 1.426 1.427 1.426h8.247c.788 0 1.426-.639 1.426-1.426V1.428C11.78.64 11.141 0 10.353 0zM4.194.867h4.072c.103 0 .186.154.186.344 0 .19-.083.344-.186.344H4.194c-.103 0-.185-.154-.185-.344 0-.19.082-.344.185-.344zM6.23 18.192a.912.912 0 0 1 0-1.821.91.91 0 0 1 0 1.821zm4.48-3.12H1.75V2.408h8.962v12.662z"/>
</svg>
