<svg xmlns="http://www.w3.org/2000/svg" width="221" height="172" viewBox="0 0 221 172">
    <g fill="none" fill-rule="evenodd">
        <path fill="#56ACFF" fill-rule="nonzero" d="M131.935 68c8.026 0 14.661 3.326 14.661 7.847 0 4.522-6.635 7.847-14.66 7.847-7.028 0-12.988-2.549-14.363-6.217H111.9a1 1 0 0 1 0-2h5.39c.35-4.332 6.84-7.477 14.645-7.477zm0 2c-7.063 0-12.66 2.806-12.66 5.847 0 3.042 5.597 5.847 12.66 5.847 7.064 0 12.661-2.805 12.661-5.847 0-3.041-5.597-5.847-12.66-5.847z"/>
        <path fill="#1F2024" d="M81.472 96.224c-.608 7.69-1.897 15.289-3.215 22.88-1.936 11.15-4.126 22.249-6.348 33.342-.37 1.84-.901 2.705-2.812 2.363-.668-.119-1.378.003-2.07.015-4.218-.01-8.438-.018-12.657-.027-1.416-.359-2.878-.304-4.288-.176-1.683.153-2.241-.485-2.543-2.108-.443-2.378-.475-4.838-1.301-7.143-.539-5.505.601-10.643 3.054-15.57a16.632 16.632 0 0 0 1.76-6.89c.122-3.79-.125-7.575.282-11.377.377-3.509 1.077-6.891 2.32-10.158 1.206-3.168 2.202-6.352 2.257-9.802.082-5.058-1.298-9.795-2.99-14.448-1.851-5.09-4.793-9.692-6.587-14.817-.123-.351-2.966-10.375-3.33-15.413-.47-6.501.274-12.788 2.207-18.966.341.461.685.921 1.024 1.385 3.227 4.413 6.45 8.829 10.697 12.33.726.832-.074 1.387-.387 1.994-2.746 5.33-2.923 10.723.31 15.794 2.59 4.063 3.765 8.454 4.224 13.13.488 4.98 2.281 9.231 6.206 12.427 2.088 1.7 2.213 1.696 4.26-.056 2.674-2.288 5.389-4.527 8.086-6.788 1.018 5.984 2.326 11.948 1.84 18.08z"/>
        <path stroke="#1F2024" stroke-width=".5" d="M79.6 78.145c-2.739 2.26-5.496 4.5-8.211 6.788-2.078 1.752-2.205 1.756-4.326.056-3.986-3.196-5.806-7.447-6.303-12.427-.466-4.676-1.66-9.067-4.29-13.13-3.282-5.071-3.102-10.465-.313-15.794.366-.56.544-.667.739-1.588.31-.14.38-.605.567-.843 2.1-2.669 4.554-4.978 7.167-7.126 3.876-3.187 7.922-6.104 12.648-7.938 3.413-1.182 6.693-2.726 10.233-3.564 4.045-.96 8.033-2.19 12.225-2.392-.755 3.052-.045 5.834 1.551 8.454-3.234 2.943-6.592 5.749-9.638 8.9a51.61 51.61 0 0 0-7.126 9.282c-2.23 3.698-2.184 7.237.284 10.795 2.13 3.07 4.26 6.138 6.693 8.981.262.307.614.556.606 1.022-2.685 2.11-5.335 4.262-7.809 6.622l-4.696 3.902z"/>
        <path fill="#1F2024" d="M45.786 62.308A29.57 29.57 0 0 1 45.4 61c1.136 7.075.678 14.723-1.908 21.527-1.926 5.07-5.052 9.449-7.905 13.989-2.054 3.27-3.86 6.66-4.83 10.434-.67 1.378-.921 2.88-1.269 4.35-1.137 4.819-1.345 9.87-3.527 14.424-4.01 8.37-5.456 17.198-4.903 26.413.144 2.4.091 2.404 2.488 2.65l1.033.07 11.825-.062c1.75-.019 3.502-.089 5.25-.036.995.03 1.425-.31 1.681-1.294.647-2.48 1.438-4.922 2.171-7.379.061-.239.123-.477.183-.716-.546-5.506.61-10.643 3.102-15.57 1.072-2.123 1.708-4.456 1.788-6.891.123-3.79-.128-7.574.286-11.376.382-3.509 1.093-6.891 2.356-10.158 1.224-3.168 2.235-6.352 2.292-9.802.083-5.058-1.318-9.795-3.037-14.448-1.88-5.09-4.867-9.693-6.69-14.817z"/>
        <path stroke="#1F2024" stroke-width=".5" d="M53.947 154.797l12.855.026a48.242 48.242 0 0 0 13.445 9.072c2.58 1.17 4.96 2.62 6.993 4.605.654.638 1.273 1.314 1.78 2.35-.42.027-.628.053-.836.053-12.942.018-25.885.034-38.827.044-.407 0-.813-.062-1.22-.095.971-2.151 1.872-4.329 2.427-6.632l3.383-9.423zM92.766 14.802c-7.646-1.96-15.364-3.207-23.211-1.274-4.418 1.088-8.844 1.506-13.373 1.046-1.388-.142-2.813-.103-4.206.025-2.883.267-5.632.954-7.774 3.11-1.222.765-1.896 2-2.715 3.117-.636.867-.577 1.604.06 2.476 1.094 1.498 2.072 3.08 3.1 4.627.346.461.695.922 1.04 1.385 3.276 4.413 6.896 9.235 11.209 12.736.187-.352.38-.605.567-.843 2.1-2.669 4.554-4.977 7.167-7.126 3.876-3.187 7.922-6.104 12.649-7.938 3.412-1.182 6.692-2.726 10.232-3.565 4.045-.959 8.033-2.189 12.225-2.391l1.196-2.45c-2.522-1.533-5.359-2.216-8.166-2.935z"/>
        <path fill="#1F2024" d="M103.087 17.37c-.883-2.306-1.63-4.657-1.497-7.156.224-4.208 1.855-7.689 5.913-9.39 4.076-1.708 7.82-.66 11.035 2.222 1.434 1.285 2.702 2.76 4.005 4.186 3.284 3.594 7.203 6.312 11.585 8.365 1.207.565 1.182 1.035.35 1.927-.84.9-1.841 1.666-2.598 2.593-2.376 2.913-5.384 1.53-8.212 1.452-1.174-.482-2.402-.865-3.512-1.465-3.666-1.985-7.05-4.33-9.352-7.933-.56-.877-1.326-1.285-2.365-1.117-1.105.178-1.278 1.069-1.428 1.943-.107.63-.124 1.274-.22 1.906-.194 1.27-.567 2.41-2.115 2.574l-1.589-.107"/>
        <path stroke="#1F2024" stroke-width=".5" d="M120.509 21.417c-1.48.622-2.437.012-3.216-1.812.4 2.448 1.357 2.893 3.216 1.812zm-15.834-3.94c1.55-.164 1.922-1.304 2.116-2.574.096-.632.113-1.276.22-1.906.15-.874.323-1.765 1.428-1.943 1.04-.168 1.805.24 2.365 1.117 2.302 3.602 5.686 5.948 9.352 7.933 1.11.6 2.338.983 3.512 1.465-.922 1.615-1.868 3.217-2.755 4.851-.59 1.086-1.414.988-2.177.393-.943-.738-1.86-.646-2.946-.454-2.477.436-4.863.096-7.018-1.329-.38-.251-.697-.644-1.229-.58-.984-1.413-2.058-2.774-2.917-4.258-.465-.804-1.244-1.843.05-2.715z"/>
        <path stroke="#1F2024" stroke-width=".5" d="M104.676 17.477c-1.294.872-.515 1.91-.05 2.715.86 1.484 1.933 2.845 2.918 4.258-1.972 1.566-4.073 2.94-6.257 4.19-1.597-2.62-2.307-5.401-1.551-8.453l1.196-2.449 2.155-.368c.53.036 1.059.07 1.589.107zM117.34 77.71l-.715-.077-.463-.082c-1.389-.03-2.779-.046-4.167-.1-.605-.024-1.19-.201-1.274-.92-.105-.913.692-.97 1.264-1.114.606-.154 1.386-.052 2.015-.117-1.435-1.078-3.124-1.134-4.735-.595-2.188.376-4.362.776-6.56-.034-1.427-.526-2.626-1.45-3.982-2.09l-6.617-4.96c-2.685 2.11-5.335 4.262-7.809 6.622 3.78 1.272 7.67 2.048 11.613 2.582 2.046.568 4.201.919 5.391 3.04.363.647.88 1.208 1.328 1.81.735 1.295 1.942 1.943 3.272 2.474 5.24 2.092 9.713-.624 12.223-5.956-.078-.459-.479-.392-.784-.482zM24.58 154.857l-1.034-.07-5.725 16.047h14.147c.11-.142.216-.146.32.005h2.828l13.021.013c.972-2.152 1.872-4.329 2.427-6.632-4.615-1.926-8.705-4.698-12.583-7.812l-1.577-1.613-11.825.062"/>
        <path fill="#2A336E" d="M31.968 170.834c.11-.142.216-.146.32.005l-.16.055-.16-.06z"/>
        <path fill="#E8534B" d="M116.162 77.551l.463.082-.463-.082"/>
        <g fill="#E2F1FF" stroke="#1F2024" stroke-width=".5">
            <path stroke-linejoin="round" d="M114.026 170.947h67.62v-60.388L176 123.6l-61.5-.1z"/>
            <path d="M106.638 123.544l7.388-12.985h67.62l-5.569 12.985z"/>
            <path stroke-linejoin="round" d="M181.647 170.947h14.034L195.5 123.6h-8.6l-5.253-13.04z"/>
            <path d="M186.958 123.544l-5.311-12.985h14.033l5.715 12.985z"/>
        </g>
        <path stroke="#1F2024" stroke-linecap="square" stroke-width=".5" d="M.273 171.16h219.594"/>
    </g>
</svg>
