<?xml version="1.0" encoding="UTF-8"?>
<svg width="14px" height="14px" viewBox="0 0 14 14" version="1.1" xmlns="http://www.w3.org/2000/svg" xmlns:xlink="http://www.w3.org/1999/xlink">
    <!-- Generator: Sketch 54.1 (76490) - https://sketchapp.com -->
    <title>Group 12 Copy 3</title>
    <desc>Created with Sketch.</desc>
    <g id="Page-1" stroke="none" stroke-width="1" fill="none" fill-rule="evenodd">
        <g id="View_Profile" transform="translate(-24.000000, -854.000000)" fill="#4D5B83" fill-rule="nonzero">
            <g id="Group-12-Copy-3" transform="translate(24.000000, 854.000000)">
                <path d="M7,0 C10.8659932,-7.10171439e-16 14,3.13400675 14,7 C14,10.8659932 10.8659932,14 7,14 C3.13400675,14 4.73447626e-16,10.8659932 0,7 C-4.73447626e-16,3.13400675 3.13400675,7.10171439e-16 7,0 Z M7,0.75 C3.54822031,0.75 0.75,3.54822031 0.75,7 C0.75,10.4517797 3.54822031,13.25 7,13.25 C10.4517797,13.25 13.25,10.4517797 13.25,7 C13.25,3.54822031 10.4517797,0.75 7,0.75 Z" id="Rectangle"></path>
                <path d="M7.39420044,2.84034935 C7.39420044,2.63324257 7.22630723,2.46534935 7.01920044,2.46534935 C6.81209366,2.46534935 6.64420044,2.63324257 6.64420044,2.84034935 L6.64420044,6.98930406 C6.64420044,7.1282194 6.72099396,7.25575362 6.8437713,7.32073975 L10.2829885,9.14111991 C10.4660354,9.23800675 10.6929665,9.16816024 10.7898534,8.98511337 C10.8867402,8.80206649 10.8168937,8.57513538 10.6338468,8.47824854 L7.39420044,6.76350137 L7.39420044,2.84034935 Z" id="Path-22"></path>
            </g>
        </g>
    </g>
</svg>