<svg xmlns="http://www.w3.org/2000/svg" width="22" height="16" viewBox="0 0 22 16">
    <g fill="#0E88FF" fill-rule="nonzero">
        <path d="M6.289 3.622A6.24 6.24 0 0 0 4.71 9.733l1.2-2.222 1.578.845-2.578 4.822-4.8-2.578.845-1.578 1.977 1.067A8.017 8.017 0 0 1 5 2.356C7.667-.311 11.756-.69 14.844 1.2l-1.31 1.311a6.198 6.198 0 0 0-7.245 1.111zM6.467 14.822l1.31-1.31a6.198 6.198 0 0 0 7.245-1.112A6.24 6.24 0 0 0 16.6 6.289L15.4 8.51l-1.578-.844 2.578-4.8 4.8 2.577-.844 1.578-1.978-1.066a8.017 8.017 0 0 1-2.067 7.733c-2.667 2.622-6.755 3.022-9.844 1.133z"/>
    </g>
</svg>
