<?xml version="1.0" encoding="UTF-8"?>
<svg width="16px" height="16px" viewBox="0 0 16 16" version="1.1" xmlns="http://www.w3.org/2000/svg" xmlns:xlink="http://www.w3.org/1999/xlink">
    <!-- Generator: Sketch 59.1 (86144) - https://sketch.com -->
    <title>Combined Shape</title>
    <desc>Created with Sketch.</desc>
    <g id="Registration" stroke="none" stroke-width="1" fill="none" fill-rule="evenodd">
        <g id="003_Software_Roles_Expanded" transform="translate(-316.000000, -91.000000)" fill="#FFA800" fill-rule="nonzero">
            <g id="Group-5" transform="translate(0.000000, -0.000000)">
                <g id="Group-6" transform="translate(28.000000, 88.000000)">
                    <path d="M294.967742,3 C298.81592,3 301.935484,6.11956432 301.935484,9.96774194 C301.935484,11.6130775 301.365198,13.1252156 300.411509,14.3172737 L303.773244,17.6783689 C304.075585,17.9807103 304.075585,18.4709026 303.773244,18.773244 C303.470903,19.0755853 302.98071,19.0755853 302.678369,18.773244 L302.678369,18.773244 L299.317274,15.4115086 C298.125216,16.3651979 296.613077,16.9354839 294.967742,16.9354839 C291.119564,16.9354839 288,13.8159195 288,9.96774194 C288,6.11956432 291.119564,3 294.967742,3 Z M294.967742,4.5483871 C291.974715,4.5483871 289.548387,6.9747149 289.548387,9.96774194 C289.548387,12.960769 291.974715,15.3870968 294.967742,15.3870968 C297.960769,15.3870968 300.387097,12.960769 300.387097,9.96774194 C300.387097,6.9747149 297.960769,4.5483871 294.967742,4.5483871 Z" id="Combined-Shape"></path>
                </g>
            </g>
        </g>
    </g>
</svg>