<svg xmlns="http://www.w3.org/2000/svg" width="22" height="22" viewBox="0 0 22 22">
    <path fill="#3F4657" fill-rule="nonzero" d="M18.337 0a3.663 3.663 0 1 1-2.9 5.903L7.25 10.248a3.679 3.679 0 0 1-.016 1.578l8.16 4.33a3.663 3.663 0 1 1-.675 1.609L6.45 13.376a3.663 3.663 0 1 1 .047-4.698L14.73 4.31A3.663 3.663 0 0 1 18.336 0zm0 16.41a1.926 1.926 0 1 0 0 3.853 1.926 1.926 0 0 0 0-3.853zM3.663 9.074a1.926 1.926 0 1 0 0 3.852 1.926 1.926 0 0 0 0-3.852zm14.674-7.337a1.926 1.926 0 1 0 0 3.853 1.926 1.926 0 0 0 0-3.853z"/>
</svg>
