<?xml version="1.0" encoding="UTF-8"?>
<svg width="12px" height="12px" viewBox="0 0 12 12" version="1.1" xmlns="http://www.w3.org/2000/svg" xmlns:xlink="http://www.w3.org/1999/xlink">
    <!-- Generator: Sketch 59.1 (86144) - https://sketch.com -->
    <title>Group 2 Copy 6</title>
    <desc>Created with Sketch.</desc>
    <g id="Browse" stroke="none" stroke-width="1" fill="none" fill-rule="evenodd">
        <g id="009" transform="translate(-95.000000, -341.000000)" fill="#FFA800" fill-rule="nonzero">
            <g id="Group-2-Copy-6" transform="translate(95.000000, 341.000000)">
                <path d="M6,-1 C6.27614237,-1 6.5,-0.776142375 6.5,-0.5 L6.5,12.5 C6.5,12.7761424 6.27614237,13 6,13 C5.72385763,13 5.5,12.7761424 5.5,12.5 L5.5,-0.5 C5.5,-0.776142375 5.72385763,-1 6,-1 Z" id="Rectangle" transform="translate(6.000000, 6.000000) rotate(-405.000000) translate(-6.000000, -6.000000) "></path>
                <path d="M6,-1 C6.27614237,-1 6.5,-0.776142375 6.5,-0.5 L6.5,12.5 C6.5,12.7761424 6.27614237,13 6,13 C5.72385763,13 5.5,12.7761424 5.5,12.5 L5.5,-0.5 C5.5,-0.776142375 5.72385763,-1 6,-1 Z" id="Rectangle-Copy-15" transform="translate(6.000000, 6.000000) rotate(-675.000000) translate(-6.000000, -6.000000) "></path>
            </g>
        </g>
    </g>
</svg>