<?xml version="1.0" encoding="UTF-8"?>
<svg width="17px" height="17px" viewBox="0 0 17 14" version="1.1" xmlns="http://www.w3.org/2000/svg" xmlns:xlink="http://www.w3.org/1999/xlink">
    <!-- Generator: Sketch 58 (84663) - https://sketch.com -->
    <desc>Created with Sketch.</desc>
    <g id="Page-1" stroke="none" stroke-width="1" fill="none" fill-rule="evenodd">
        <g id="1_ShareJD_listing" transform="translate(-1123.000000, -797.000000)" fill="#03A9F4" fill-rule="nonzero">
            <g id="Group-2-Copy-8" transform="translate(432.000000, 758.000000)">
                <g id="Group-3" transform="translate(572.999839, 30.000000)">
                    <path d="M135.000161,10.6351875 C134.367974,10.9125 133.694349,11.0963125 132.992036,11.1855625 C133.714536,10.7541875 134.265974,10.0763125 134.525224,9.25925 C133.851599,9.660875 133.107849,9.9445625 132.315224,10.102875 C131.675599,9.4218125 130.763974,9 129.769474,9 C127.839974,9 126.286599,10.566125 126.286599,12.4860625 C126.286599,12.7623125 126.309974,13.0279375 126.367349,13.2808125 C123.469911,13.1395 120.906099,11.7508125 119.183786,9.635375 C118.883099,10.1570625 118.706724,10.7541875 118.706724,11.397 C118.706724,12.604 119.328286,13.6739375 120.254786,14.293375 C119.694849,14.28275 119.145536,14.1201875 118.680161,13.864125 C118.680161,13.87475 118.680161,13.8885625 118.680161,13.902375 C118.680161,15.596 119.888224,17.00275 121.472411,17.3268125 C121.188724,17.404375 120.879536,17.4415625 120.558661,17.4415625 C120.335536,17.4415625 120.110286,17.4288125 119.898849,17.3820625 C120.350411,18.76225 121.631786,19.7769375 123.155411,19.809875 C121.969661,20.7374375 120.464099,21.2963125 118.834224,21.2963125 C118.548411,21.2963125 118.274286,21.2835625 118.000161,21.2485 C119.543974,22.2440625 121.373599,22.8125 123.346661,22.8125 C129.759911,22.8125 133.266161,17.5 133.266161,12.895125 C133.266161,12.7410625 133.260849,12.5923125 133.253411,12.444625 C133.945099,11.95375 134.526286,11.3406875 135.000161,10.6351875 Z" id="Twitter_Icon"></path>
                </g>
            </g>
        </g>
    </g>
</svg>