<svg xmlns="http://www.w3.org/2000/svg" width="17" height="17" viewBox="0 0 17 17">
    <g fill="none" fill-rule="nonzero">
        <path fill="#2CB742" d="M0 16.667l1.433-4.3a8.19 8.19 0 1 1 3.233 3.072L0 16.667z"/>
        <path fill="#FFF" d="M13.587 11.375c-.378-.715-1.773-1.532-1.773-1.532-.315-.18-.696-.2-.876.12 0 0-.453.544-.568.622-.527.357-1.014.343-1.507-.15L7.72 9.293 6.576 8.148c-.493-.492-.507-.98-.15-1.506.078-.116.622-.569.622-.569.32-.18.3-.56.12-.876 0 0-.817-1.394-1.532-1.773a.783.783 0 0 0-.92.139l-.505.505C2.608 5.671 3.397 7.48 5 9.082l1.465 1.465 1.464 1.465c1.603 1.602 3.412 2.391 5.015.789l.505-.505a.784.784 0 0 0 .138-.921z"/>
    </g>
</svg>
