<svg xmlns="http://www.w3.org/2000/svg" width="153" height="24" viewBox="0 0 153 24">
    <g fill="none" fill-rule="evenodd">
        <g fill="#FFA800">
            <path d="M40.573 11.254h11.513v11.254h-2.815a1.57 1.57 0 0 1-1.57-1.57V15.54h-5.558a1.57 1.57 0 0 1-1.57-1.57v-2.717z"/>
            <path fill-rule="nonzero" d="M41.67 0c3.955 0 7.465 1.86 9.665 4.736l-3.154 3.08a7.715 7.715 0 0 0-6.512-3.529c-4.24 0-7.676 3.36-7.676 7.503 0 4.144 3.437 7.503 7.676 7.503.93 0 1.82-.162 2.645-.457v4.46c-.851.186-1.736.284-2.645.284-6.662 0-12.062-5.278-12.062-11.79C29.607 5.28 35.007 0 41.669 0z"/>
        </g>
        <path fill="#FFA800" d="M21.383 0h6.58v4.287h-1.097v15.006h1.096v4.287h-6.58v-4.287h1.097V4.287h-1.096zM12.158 0a5.966 5.966 0 0 1 5.907 5.126l.028.233c.174 1.701-.374 3.488-1.645 5.36 2.385 2.04 3.482 4.184 3.29 6.43-.11 1.29-.638 2.545-1.586 3.767a6.88 6.88 0 0 1-5.436 2.664H0V0h12.158zm-.034 13.934H4.386v5.359h7.738a2.68 2.68 0 0 0 0-5.36zm-1.097-9.647h-6.64v5.36h6.64a2.68 2.68 0 0 0 0-5.36z"/>
        <g fill="#191B1F" fill-rule="nonzero" stroke="#000" stroke-width="1.343">
            <path d="M75.595 17.302c0 .923-.264 1.697-.791 2.323-.527.626-1.194 1.132-2.001 1.52-.808.386-1.697.666-2.669.84-.972.172-1.894.259-2.767.259-.66 0-1.343-.041-2.05-.124a14.86 14.86 0 0 1-2.126-.407 16.04 16.04 0 0 1-2.112-.73c-.7-.296-1.372-.666-2.014-1.111l.618-.593c.56.379 1.17.712 1.828 1a15.294 15.294 0 0 0 4.003 1.137c.659.09 1.268.136 1.828.136.593 0 1.21-.037 1.853-.111a11.836 11.836 0 0 0 1.878-.37 7.927 7.927 0 0 0 1.693-.693c.518-.288.959-.646 1.321-1.074.198-.231.363-.52.495-.865.131-.346.197-.708.197-1.087 0-.643-.148-1.195-.445-1.656a4.581 4.581 0 0 0-1.074-1.173 6.23 6.23 0 0 0-1.36-.791c-.485-.206-.91-.367-1.272-.482a9.71 9.71 0 0 0-.803-.247 29.382 29.382 0 0 1-.729-.198l-4.274-1.111a17.702 17.702 0 0 1-2.286-.754 7.802 7.802 0 0 1-1.816-1.025 4.247 4.247 0 0 1-1.186-1.396c-.28-.536-.42-1.166-.42-1.89 0-.907.252-1.673.754-2.298.502-.626 1.149-1.129 1.94-1.508.79-.378 1.663-.654 2.619-.827a15.66 15.66 0 0 1 2.792-.26c1.334 0 2.668.173 4.002.52 1.335.345 2.628.996 3.88 1.951l-.544.544a9.95 9.95 0 0 0-1.754-1.063 12.136 12.136 0 0 0-1.903-.716 14.836 14.836 0 0 0-1.902-.408 12.14 12.14 0 0 0-1.73-.136c-.478 0-1.025.033-1.643.099a12.21 12.21 0 0 0-1.853.346 8.375 8.375 0 0 0-1.767.692c-.56.296-1.03.675-1.408 1.136a2.85 2.85 0 0 0-.494.89 3.163 3.163 0 0 0-.198 1.087c0 .642.156 1.194.47 1.655.312.461.704.857 1.173 1.186.47.33.972.597 1.507.803.536.206 1.026.375 1.47.507.297.082.585.156.865.222s.536.132.766.198l3.583.939c.807.214 1.565.465 2.273.753a7.712 7.712 0 0 1 1.853 1.05c.527.412.947.89 1.26 1.433.313.544.47 1.17.47 1.878zM94.67 21.873h-.767V12.51H79.82v9.364h-.766V2.107h.766v9.71h14.083v-9.71h.766zM115.653 2.107l-8.277 11.168v8.598h-.741v-8.598L98.358 2.107h.914l7.734 10.451 7.684-10.451zM134.093 2.799h-13.985v8.722h12.477v.691h-12.477v9.661h-.766V2.107h14.75zM151.923 2.799h-7.931v19.074h-.742V2.8h-7.93v-.692h16.603z"/>
        </g>
    </g>
</svg>
