<?xml version="1.0" encoding="UTF-8"?>
<svg width="30px" height="40px" viewBox="0 0 30 40" version="1.1" xmlns="http://www.w3.org/2000/svg" xmlns:xlink="http://www.w3.org/1999/xlink">
    <!-- Generator: Sketch 59.1 (86144) - https://sketch.com -->
    <title>medal</title>
    <desc>Created with Sketch.</desc>
    <g id="Final" stroke="none" stroke-width="1" fill="none" fill-rule="evenodd">
        <g id="medal" fill="#CCE3FF">
            <path d="M29.6370612,18.025551 L27.6860408,15.3561633 C27.5635918,15.1847347 27.5554286,14.948 27.6778776,14.7765714 L29.5880816,12.0826939 C29.7595102,11.8377959 29.6778776,11.4949388 29.4166531,11.3561633 L26.5023673,9.79697959 C26.3146122,9.69902041 26.2084898,9.48677551 26.2493061,9.27453061 L26.7962449,6.01738776 C26.8452245,5.7235102 26.6248163,5.44595918 26.3227755,5.43779592 L23.0248163,5.29902041 C22.8125714,5.29085714 22.6248163,5.14391837 22.5676735,4.93983673 L21.6533878,1.75616327 C21.5717551,1.47044898 21.2533878,1.31534694 20.9758367,1.43779592 L17.939102,2.74391837 C17.7431837,2.82555102 17.5146122,2.77657143 17.3676735,2.62146939 L15.1635918,0.164326531 C14.9595102,-0.0560816327 14.6166531,-0.0560816327 14.4125714,0.172489796 L12.2411429,2.66228571 C12.1023673,2.82555102 11.8737959,2.87453061 11.6778776,2.79289796 L8.62481633,1.5357551 C8.34726531,1.42146939 8.03706122,1.57657143 7.95542857,1.86228571 L7.08195918,5.04595918 C7.02481633,5.25004082 6.84522449,5.39697959 6.63297959,5.41330612 L3.33502041,5.60106122 C3.03297959,5.61738776 2.82073469,5.89493878 2.86971429,6.18881633 L3.46563265,9.43779592 C3.50644898,9.65004082 3.40032653,9.86228571 3.22073469,9.9602449 L0.330938776,11.5602449 C0.0697142857,11.7071837 -0.00375510204,12.0500408 0.167673469,12.2867755 L2.11869388,14.9561633 C2.24114286,15.1275918 2.24930612,15.3643265 2.12685714,15.5357551 L0.216653061,18.2296327 C0.0452244898,18.4745306 0.126857143,18.8173878 0.388081633,18.9561633 L3.30236735,20.5153469 C3.49012245,20.6133061 3.5962449,20.825551 3.55542857,21.0377959 L3.0084898,24.2949388 C2.9595102,24.5888163 3.17991837,24.8663673 3.48195918,24.8745306 L6.77991837,25.0133061 C6.99216327,25.0214694 7.17991837,25.1684082 7.23706122,25.3724898 L8.1595102,28.548 C8.24114286,28.8337143 8.5595102,28.9888163 8.83706122,28.8663673 L11.8737959,27.5602449 C12.0697143,27.4786122 12.2982857,27.5275918 12.4452245,27.6826939 L14.6493061,30.1398367 C14.8533878,30.3602449 15.1962449,30.3602449 15.4003265,30.1316735 L17.5717551,27.6418776 C17.7105306,27.4786122 17.939102,27.4296327 18.1350204,27.5112653 L21.1880816,28.7684082 C21.4656327,28.8826939 21.7758367,28.7275918 21.8574694,28.4418776 L22.7309388,25.2582041 C22.7880816,25.0541224 22.9676735,24.9071837 23.1799184,24.8908571 L26.4778776,24.703102 C26.7799184,24.6867755 26.9921633,24.4092245 26.9431837,24.1153469 L26.3472653,20.8663673 C26.306449,20.6541224 26.4125714,20.4418776 26.5921633,20.3439184 L29.4819592,18.7439184 C29.7431837,18.6133061 29.8166531,18.270449 29.6370612,18.025551 Z M14.9105306,24.1235102 C9.9717551,24.1235102 5.94726531,20.0990204 5.94726531,15.1602449 C5.94726531,10.2214694 9.9717551,6.19697959 14.9105306,6.19697959 C19.8493061,6.19697959 23.8737959,10.2214694 23.8737959,15.1602449 C23.8737959,20.1071837 19.8493061,24.1235102 14.9105306,24.1235102 Z" id="Shape"></path>
            <path d="M22.984,29.9194286 C22.5105306,30.4010612 21.8493061,30.6867755 21.139102,30.6867755 C20.8860408,30.6867755 20.6329796,30.6459592 20.3962449,30.5806531 L18.2901224,29.9439184 L16.6656327,31.4296327 C16.6084898,31.4786122 16.5595102,31.5275918 16.5023673,31.5684082 L19.1146122,39.6663673 C19.2044082,39.9520816 19.5717551,40.0173878 19.7595102,39.7806531 L21.661551,37.3398367 C21.7513469,37.2173878 21.9146122,37.1684082 22.0533878,37.2092245 L25.0166531,38.0745306 C25.3023673,38.1561633 25.5635918,37.8867755 25.4737959,37.6092245 L22.984,29.9194286 Z" id="Path"></path>
            <path d="M11.539102,29.9439184 L9.43297959,30.5806531 C9.18808163,30.6541224 8.94318367,30.6867755 8.69012245,30.6867755 C7.97991837,30.6867755 7.32685714,30.4010612 6.84522449,29.9194286 L4.35542857,37.6173878 C4.26563265,37.903102 4.52685714,38.1643265 4.81257143,38.0826939 L7.77583673,37.2173878 C7.92277551,37.1765714 8.07787755,37.225551 8.16767347,37.348 L10.0697143,39.7888163 C10.2493061,40.025551 10.6248163,39.9602449 10.7146122,39.6745306 L13.3268571,31.5765714 C13.2697143,31.5357551 13.2125714,31.4867755 13.1635918,31.4377959 L11.539102,29.9439184 Z" id="Path"></path>
            <path d="M20.2248163,12.9316735 L16.8452245,12.6867755 L15.5717551,9.55208163 C15.3350204,8.96432653 14.4942041,8.96432653 14.2574694,9.55208163 L12.984,12.6867755 L9.60440816,12.9316735 C8.96767347,12.9806531 8.71461224,13.7724898 9.1962449,14.1806531 L11.784,16.3684082 L10.9758367,19.6582041 C10.8207347,20.2786122 11.4982857,20.7684082 12.0370612,20.4337143 L14.9105306,18.6459592 L17.784,20.4337143 C18.3227755,20.7684082 19.0003265,20.2786122 18.8452245,19.6582041 L18.0370612,16.3684082 L20.6248163,14.1806531 C21.1146122,13.7724898 20.861551,12.9806531 20.2248163,12.9316735 Z" id="Path"></path>
        </g>
    </g>
</svg>