<?xml version="1.0" encoding="UTF-8"?>
<svg width="30px" height="30px" viewBox="0 0 30 30" version="1.1" xmlns="http://www.w3.org/2000/svg" xmlns:xlink="http://www.w3.org/1999/xlink">
    <!-- Generator: Sketch 59.1 (86144) - https://sketch.com -->
    <title>Combined Shape</title>
    <desc>Created with Sketch.</desc>
    <g id="Final" stroke="none" stroke-width="1" fill="none" fill-rule="evenodd">
        <path d="M29.7929429,2.31745691 C30.0690287,3.08439084 30.0690186,3.92359671 29.7929144,4.69052402 L21.5041667,27.7139572 C20.8577016,29.509626 18.8779609,30.4412398 17.0822921,29.7947747 C16.086133,29.4361439 15.3093503,28.6406456 14.9745332,27.6362322 L12.131,19.107 L20.3459863,10.893107 C20.6879879,10.5511182 20.6879879,9.99664488 20.3459863,9.65465611 C20.0039847,9.31266735 19.4494905,9.31266735 19.1074888,9.65465611 L10.893,17.868 L2.36373392,15.0259072 C0.553253789,14.4224365 -0.425220699,12.4655427 0.17824998,10.6550626 C0.513047135,9.65063338 1.28984056,8.85512528 2.28601637,8.49651547 L25.3105081,0.208010203 C27.1308059,-0.447272365 29.1376603,0.497159096 29.7929429,2.31745691 Z" id="Combined-Shape" fill="#CCE3FF"></path>
    </g>
</svg>