<?xml version="1.0" encoding="UTF-8"?>
<svg width="225px" height="18px" viewBox="0 0 225 18" version="1.1" xmlns="http://www.w3.org/2000/svg" xmlns:xlink="http://www.w3.org/1999/xlink">
    <!-- Generator: sketchtool 58 (101010) - https://sketch.com -->
    <title>231C7FE0-0658-4634-9BCB-1B020271526B</title>
    <desc>Created with sketchtool.</desc>
    <g id="Page-1" stroke="none" stroke-width="1" fill="none" fill-rule="evenodd">
        <g id="Artboard-Copy-7" transform="translate(-75.000000, -45.000000)">
            <g id="long-form-6&quot;-copy-8" transform="translate(75.000000, 45.000000)">
                <g id="Group-28-Copy" transform="translate(53.859349, 0.000000)" fill="#FFA800">
                    <path d="M8.24420326,8.4611714 L16.9006167,8.4611714 L16.9006167,16.9223428 L15.0198141,16.9223428 C14.2372936,16.9223428 13.6029354,16.2879846 13.6029354,15.5054641 L13.6029354,11.6844748 L13.6029354,11.6844748 L9.66108197,11.6844748 C8.87856147,11.6844748 8.24420326,11.0501166 8.24420326,10.2675961 L8.24420326,8.4611714 L8.24420326,8.4611714 Z" id="Rectangle-Copy-35"></path>
                    <path d="M9.06862359,0 C12.0425346,0 14.6821016,1.39920982 16.3358604,3.56085869 L13.964,5.877 L13.9433867,5.8436447 C12.9197464,4.26854536 11.1190663,3.22330339 9.06862359,3.22330339 C5.88142017,3.22330339 3.29768131,5.74876704 3.29768131,8.86408433 C3.29768131,11.9794016 5.88142017,14.5048653 9.06862359,14.5048653 C9.76731758,14.5048653 10.437011,14.3834997 11.0568418,14.16116 L11.0570214,17.5144336 C10.4171235,17.6543516 9.75169293,17.7281687 9.06862359,17.7281687 C4.06016108,17.7281687 -3.70903308e-12,13.7595829 -3.70903308e-12,8.86408433 C-3.70903308e-12,3.96858573 4.06016108,0 9.06862359,0 Z" id="Combined-Shape" fill-rule="nonzero"></path>
                </g>
                <polygon id="Rectangle-Copy-56" fill="#FFA800" points="32.8761966 -5.1159077e-13 37.8227186 -5.1159077e-13 37.8227186 3.22330339 36.9982982 3.22330339 36.9982982 14.5048653 37.8227186 14.5048653 37.8227186 17.7281687 32.8761966 17.7281687 32.8761966 14.5048653 33.7006169 14.5048653 33.7006169 3.22330339 32.8761966 3.22330339"></polygon>
                <g id="Group-29-Copy" fill="#FFA800">
                    <path d="M9.14056185,3.55271368e-15 C11.3692642,-2.55979012e-06 13.2479481,1.63339905 13.5760631,3.81621067 L13.6029354,4.02912924 C13.7337763,5.30802782 13.3215661,6.6510709 12.3663049,8.05825848 C14.0776418,9.52292554 14.9066062,11.0579691 14.8531981,12.6633891 L14.8395659,12.8932136 C14.6064543,15.6274594 12.3190404,17.7281551 9.57487545,17.7281687 L-3.95772304e-12,17.7281687 L-3.95772304e-12,3.55271368e-15 L9.14056185,3.55271368e-15 Z M9.11510979,10.475736 L3.29768131,10.475736 L3.29768131,14.5048653 L9.11510979,14.5048653 C10.2277231,14.5048653 11.1296744,13.602914 11.1296744,12.4903006 C11.1296744,11.3776873 10.2277231,10.475736 9.11510979,10.475736 L9.11510979,10.475736 Z M8.29068946,3.22330339 L3.29768131,3.22330339 L3.29768131,7.25243263 L8.29068946,7.25243263 C9.40330278,7.25243263 10.3052541,6.35048133 10.3052541,5.23786801 C10.3052541,4.12525469 9.40330278,3.22330339 8.29068946,3.22330339 Z" id="Combined-Shape"></path>
                </g>
                <g id="Group-4" transform="translate(90.006636, 0.505332)" fill="#FFFFFF" fill-rule="nonzero">
                    <path d="M7.13013426,0.194284366 C8.18496788,0.194284366 9.23912296,0.330934099 10.2914846,0.603768598 C11.3755276,0.884816793 12.4201216,1.41044049 13.4234022,2.17610204 L13.9739225,2.59623594 L12.7022767,3.86788176 L12.281489,3.54910325 C11.9061176,3.26473095 11.502179,3.02009206 11.0690488,2.81492515 C10.6287466,2.60636094 10.1836685,2.43873412 9.73355508,2.31177906 C9.27573621,2.18265066 8.82486737,2.08603591 8.38085283,2.02177064 C7.9378095,1.95764595 7.53311162,1.92584826 7.16728659,1.92584826 C6.83117266,1.92584826 6.44047054,1.94934914 5.99621688,1.9967362 C5.56303811,2.04294193 5.1293256,2.1239016 4.69482963,2.23976719 C4.2745205,2.35184963 3.87451837,2.50849382 3.49397049,2.70996034 C3.14278458,2.8958823 2.85285675,3.12985914 2.61161581,3.42333425 C2.51360918,3.53767532 2.42493348,3.69729159 2.3494465,3.90488078 C2.27412861,4.11200498 2.23730525,4.31453345 2.23730525,4.51523289 C2.23730525,4.88118426 2.32129975,5.17737539 2.48575175,5.41972571 C2.67951349,5.70526932 2.92156886,5.94987264 3.2148432,6.1556792 C3.52729398,6.3749429 3.86117912,6.55283252 4.21748981,6.6898751 C4.60575986,6.83920973 4.95924321,6.96099812 5.26744842,7.05241063 C5.42891389,7.09726215 5.58680559,7.13869583 5.74111534,7.17671663 L6.07753199,7.25784115 L6.2500895,7.3017375 C6.33338761,7.32352014 6.41199368,7.34499501 6.48491297,7.3658944 L9.18022954,8.07225609 C9.81135859,8.23969849 10.4053804,8.43662962 10.9622375,8.66325754 C11.5449538,8.90040949 12.0580512,9.19116471 12.5000277,9.53645885 C12.9568154,9.8933242 13.3245453,10.3115269 13.5994336,10.7889645 C13.8894507,11.2926784 14.0331696,11.867554 14.0331696,12.5029836 C14.0331696,13.3348851 13.7877808,14.0557147 13.2963354,14.6393061 C12.843391,15.1771776 12.272819,15.6103897 11.5902782,15.9377307 C10.932749,16.2530763 10.2116147,16.4801001 9.42825095,16.6195123 C8.6635624,16.7556009 7.93469648,16.8239321 7.24159125,16.8239321 C6.72236502,16.8239321 6.18510989,16.7915673 5.62980893,16.7269974 C5.06787589,16.6616564 4.50645488,16.5539419 3.94572572,16.4039795 C3.38577353,16.2542248 2.82973685,16.0623759 2.27773233,15.8285857 C1.71300706,15.589408 1.17201954,15.2907032 0.655220625,14.9329193 L0.0459634506,14.5111259 L1.39818629,13.212992 L1.80379227,13.4873725 C2.19385035,13.7512353 2.61970241,13.984303 3.08182253,14.1864805 C3.55163589,14.3920239 4.02673611,14.5621215 4.50729246,14.6969117 C4.98878065,14.8319633 5.46327379,14.9315482 5.9308885,14.9958453 C6.39997879,15.0603452 6.83083392,15.0923682 7.22301508,15.0923682 C7.64512025,15.0923682 8.08638517,15.0658923 8.5467978,15.0127678 C8.99750807,14.9607627 9.43601541,14.8742152 9.8626533,14.7531423 C10.2767429,14.6356304 10.6576541,14.4799295 11.0063216,14.2862253 C11.3333529,14.1045413 11.6074302,13.8816934 11.8344144,13.6134584 C11.9351324,13.4959539 12.0244431,13.3396604 12.0997974,13.1418552 C12.1724786,12.951067 12.2087249,12.7517124 12.2087249,12.5401359 C12.2087249,12.1688388 12.1278294,11.8677279 11.9705546,11.6230782 C11.7852331,11.3348003 11.563604,11.0927915 11.3040644,10.89432 C11.0287273,10.6837681 10.732388,10.5113526 10.413998,10.3764415 C10.0647784,10.2284671 9.76294073,10.1141791 9.49205059,10.0276766 C9.29757693,9.95903885 9.11302699,9.90225425 8.93856458,9.85723169 L8.74527248,9.80653625 C8.61914233,9.77290656 8.49916036,9.73979802 8.38944072,9.70833038 L5.17582775,8.87241949 C4.53071852,8.70469109 3.93188419,8.50723761 3.379325,8.27971324 C2.80469316,8.04310013 2.30244314,7.75951678 1.87380015,7.42766414 C1.42211396,7.07797161 1.0678746,6.66100237 0.816223587,6.17990484 C0.55804482,5.68632778 0.431436698,5.11659123 0.431436698,4.47808056 C0.431436698,3.66332893 0.664321506,2.95322116 1.1313479,2.37135221 C1.56722894,1.82828731 2.1257174,1.39430264 2.80021231,1.07110717 C3.44479957,0.762242438 4.15287173,0.538464914 4.92312617,0.399022301 C5.67641618,0.262650834 6.41216959,0.194284366 7.13013426,0.194284366 Z M12.6472551,3.06629207 L12.2189494,2.63798643 L12.5796813,2.27725458 C12.6853846,2.346818 12.7893617,2.41883117 12.8916054,2.49329116 L12.9995616,2.6012474 L12.6472551,3.06629207 Z M1.88388149,14.4260323 L1.54100925,14.7551897 C1.39890823,14.6703912 1.26023982,14.5822559 1.12501597,14.4907809 L1.4508508,14.0091121 L1.49553949,14.0388209 L1.54035281,14.0681899 L1.88388149,14.4260323 Z" id="Path"></path>
                    <path d="M31.4039783,9.50492333 L32.009694,8.89920768 L32.009694,9.50492333 L31.4039783,9.50492333 Z M32.009694,16.5452896 L30.2224016,16.5452896 L30.2224016,0.472926832 L32.009694,0.472926832 L32.009694,7.77335943 L41.3866764,7.77335943 L41.3866764,0.472926832 L43.1739688,0.472926832 L43.1739688,16.5452896 L41.3866764,16.5452896 L41.3866764,9.50492333 L32.009694,9.50492333 L32.009694,16.5452896 Z M41.3866764,8.89920768 L41.992392,9.50492333 L41.3866764,9.50492333 L41.3866764,8.89920768 Z M41.992392,7.77335943 L41.3866764,8.37907508 L41.3866764,7.77335943 L41.992392,7.77335943 Z M32.009694,8.37907508 L31.4039783,7.77335943 L32.009694,7.77335943 L32.009694,8.37907508 Z M31.4338329,8.29349204 L31.4338329,8.98479073 L30.7982627,8.98479073 L30.7982627,8.29349204 L31.4338329,8.29349204 Z M41.9625375,8.29349204 L42.5981077,8.29349204 L42.5981077,8.98479073 L41.9625375,8.98479073 L41.9625375,8.29349204 Z M42.5682531,1.07864248 L42.5682531,1.68435812 L41.992392,1.68435812 L41.992392,1.07864248 L42.5682531,1.07864248 Z M41.992392,15.939574 L41.992392,15.3338583 L42.5682531,15.3338583 L42.5682531,15.939574 L41.992392,15.939574 Z M30.8281172,15.939574 L30.8281172,15.3338583 L31.4039783,15.3338583 L31.4039783,15.939574 L30.8281172,15.939574 Z M31.4039783,1.07864248 L31.4039783,1.68435812 L30.8281172,1.68435812 L30.8281172,1.07864248 L31.4039783,1.07864248 Z" id="Path"></path>
                    <path d="M58.9385423,0.472926832 L61.1340353,0.472926832 L66.6415045,7.91592834 L72.1137822,0.472926832 L74.3475913,0.472926832 L67.5274249,9.6750618 L67.5274249,16.5452896 L65.7587087,16.5452896 L65.7587087,9.6750618 L58.9385423,0.472926832 Z M67.1299775,8.57606917 L66.1550552,8.57756187 L66.6415045,7.91592834 L67.1299775,8.57606917 Z M66.3159937,9.27507576 L66.6430668,8.83377105 L66.97014,9.27507576 L66.97014,9.51405512 L66.6446292,9.95679168 L66.3159937,9.5126612 L66.3159937,9.27507576 Z M72.420254,1.68435812 L72.9082656,1.43744062 L72.7267258,1.68435812 L72.420254,1.68435812 Z M66.3644244,15.939574 L66.3644244,15.3338583 L66.9217093,15.3338583 L66.9217093,15.939574 L66.3644244,15.939574 Z M60.3418168,1.43893332 L60.8287274,1.68435812 L60.5234195,1.68435812 L60.3418168,1.43893332 Z" id="Path"></path>
                    <polygon id="Path" points="91.8994573 16.5452896 90.1121649 16.5452896 90.1121649 0.472926832 107.013566 0.472926832 107.013566 2.20449073 91.8994573 2.20449073 91.8994573 7.55044546 101.28042 7.55044546 101.28042 9.28200936 91.8994573 9.28200936"></polygon>
                    <polygon id="Path" points="119.924309 2.20449073 119.924309 0.472926832 134.418923 0.472926832 134.418923 2.20449073 128.455974 2.20449073 128.455974 16.5452896 126.687258 16.5452896 126.687258 2.20449073"></polygon>
                </g>
            </g>
        </g>
    </g>
</svg>