<?xml version="1.0" encoding="UTF-8"?>
<svg width="16px" height="19px" viewBox="0 0 16 19" version="1.1" xmlns="http://www.w3.org/2000/svg" xmlns:xlink="http://www.w3.org/1999/xlink">
    <!-- Generator: Sketch 58 (84663) - https://sketch.com -->
    <title>Group 12</title>
    <desc>Created with Sketch.</desc>
    <g id="Page-1" stroke="none" stroke-width="1" fill="none" fill-rule="evenodd">
        <g id="Artboard-Copy-9" transform="translate(-102.000000, -633.000000)">
            <g id="Group-12" transform="translate(102.000000, 633.000000)">
                <g id="Group-2">
                    <path d="M2.25,2.45 L13.75,2.45 L13.75,13.5 L12.3217375,13.5 C11.5209246,13.5 10.8717375,12.8508129 10.8717375,12.05 L10.8717375,5.16118758 L10.8717375,5.16118758 L3.7,5.16118758 C2.89918711,5.16118758 2.25,4.51200047 2.25,3.71118758 L2.25,2.45 L2.25,2.45 Z" id="Rectangle-Copy-35" fill="#FFA800" fill-rule="nonzero" transform="translate(8.000000, 7.975000) rotate(-45.000000) translate(-8.000000, -7.975000) "></path>
                    <path d="M9.66935825,8.9 C10.892269,8.90000577 11.9257132,9.78460541 12.1277701,10.9745351 L12.1501098,11.1386364 C12.2232121,11.849209 11.9929057,12.5954211 11.4591908,13.3772727 C12.3940859,14.1729765 12.8576571,15.0060639 12.8499044,15.8765347 L12.8410289,16.0636364 C12.7107716,17.5829969 11.4394688,18.7499723 9.9145349,18.75 L4.55,18.75 L4.55,8.9 L9.66935825,8.9 Z M9.6489535,14.7204545 L6.39245087,14.7204545 L6.39245087,16.9590909 L9.6489535,16.9590909 C10.2671359,16.9590909 10.7682717,16.4579551 10.7682717,15.8397727 C10.7682717,15.2215904 10.2671359,14.7204545 9.6489535,14.7204545 L9.6489535,14.7204545 Z M9.18834078,10.6909091 L6.39245087,10.6909091 L6.39245087,12.9295455 L9.18834078,12.9295455 C9.80652315,12.9295455 10.307659,12.4284096 10.307659,11.8102273 C10.307659,11.1920449 9.80652315,10.6909091 9.18834078,10.6909091 Z" id="Combined-Shape" fill="#FFFFFF"></path>
                </g>
            </g>
        </g>
    </g>
</svg>