<svg width="590" height="343" xmlns="http://www.w3.org/2000/svg"><defs><filter x="-33.3%" y="-80%" width="166.7%" height="260%" filterUnits="objectBoundingBox" id="a"><feOffset dy="2" in="SourceAlpha" result="shadowOffsetOuter1"/><feGaussianBlur stdDeviation="2" in="shadowOffsetOuter1" result="shadowBlurOuter1"/><feColorMatrix values="0 0 0 0 0.0588235294 0 0 0 0 0.0745098039 0 0 0 0 0.0862745098 0 0 0 1 0" in="shadowBlurOuter1" result="shadowMatrixOuter1"/><feMerge><feMergeNode in="shadowMatrixOuter1"/><feMergeNode in="SourceGraphic"/></feMerge></filter></defs><g fill="none" fill-rule="evenodd"><path d="M537.408 317.275s1.428-3.542 3.217-8.176a213.97 213.97 0 004.675-13.48c.318-1.025.638-2.077.96-3.16a244.69 244.69 0 001.344-4.74c.167-.608.332-1.222.498-1.842.986-3.734 1.948-7.741 2.835-11.978.06-.296.123-.595.184-.89.33-1.625.65-3.282.96-4.969.17-.936.336-1.884.497-2.838l.033-.197c.06-.355.117-.709.176-1.065a211.136 211.136 0 002.41-21.65c.078-1.332.14-2.678.19-4.031.053-1.366.09-2.745.111-4.129.138-8.603-.307-17.533-1.561-26.604a155.288 155.288 0 00-1.857-10.716 147.284 147.284 0 00-2.274-9.337 140.957 140.957 0 00-6.797-19.078 136.75 136.75 0 00-7.038-13.805 137.053 137.053 0 00-4.39-7.02 138.893 138.893 0 00-7.38-10.037c-3.684-4.57-7.336-8.716-10.957-12.466a152.105 152.105 0 00-4.454-4.446 130.496 130.496 0 00-3.788-3.503c-.069-.063-.144-.127-.215-.19a125.71 125.71 0 00-8.658-7.054c-.585-.43-1.166-.856-1.75-1.272a104.462 104.462 0 00-10.137-6.394c-18.827-10.368-36.28-11.719-51.718-10-11.935 1.329-22.669 4.494-31.901 6.751-.607.15-1.207.294-1.8.434-6.01 1.412-11.347 2.342-15.927 1.981-7.31-.578-13.268-5.952-19.674-13.877-.466-.578-.934-1.167-1.407-1.77-3.732-4.773-7.656-10.338-12.115-16.264a286.083 286.083 0 00-2.497-3.277c-1.685-2.18-3.445-4.4-5.3-6.635a189.251 189.251 0 00-3.644-4.262 163.976 163.976 0 00-6.696-7.165c-10.194-10.252-22.95-20.134-39.828-27.69l-.023-.012c-7.13-3.191-14.996-5.965-23.716-8.178-9.578-2.432-19.866-4.247-30.428-5.309a213.672 213.672 0 00-15.981-1.01c-1.665-.04-3.33-.063-4.997-.066-4.12-.007-8.244.113-12.341.367-1.456.087-2.907.192-4.353.315-17.73 1.504-34.813 5.565-49.227 12.824-10.11 5.088-48.2 27.852-59.376 66.361-3.53 12.154-4.377 25.875-.818 41.105 12.596 53.893-6.582 60.6-30.578 86.283-32.028 34.274-42.34 80.524-16.653 104.232.026.022 494.164-.071 494.164-.071z" fill="#191C24" fill-rule="nonzero"/><g opacity=".7" fill-rule="nonzero"><path d="M330.967 41.554c1.4-3.276-1.49-6.474-4.647-6.916-1.165-.162-1.669 1.622-.492 1.787 2.258.315 4.716 2.556 3.141 4.858-.43-.49-.942-.91-1.52-1.201-2.202-1.109-5.413.612-3.44 3.133 1.138 1.455 2.916 1.513 4.426.823.16.637-.034 1.283-.987 1.775-1.059.546-.125 2.144.933 1.6 1.874-.968 2.192-2.798 1.595-4.44.42-.42.769-.9.991-1.42zm-4.597.021c.034-.042.528.32.992.856-.611.33-.942.046-.992-.856zM215.345 26.175c1.5-3.51-1.6-6.936-4.987-7.408-1.248-.175-1.789 1.737-.527 1.914 2.423.337 5.06 2.738 3.369 5.204a5.458 5.458 0 00-1.63-1.287c-2.362-1.186-5.806.656-3.69 3.357 1.22 1.56 3.129 1.622 4.748.882.171.683-.037 1.375-1.06 1.903-1.136.585-.133 2.297 1.002 1.713 2.01-1.037 2.35-2.997 1.711-4.757a4.875 4.875 0 001.064-1.52zm-5.046.03c.047-.05.702.377 1.315 1.01-.808.39-1.246.056-1.315-1.01z" fill="#BED0E2"/><path d="M234.111 51.283c-.837 1.62-2.363 2.765-4.212 2.906-1.93.146-1.946 3.174 0 3.026 2.888-.22 5.481-1.802 6.825-4.404.892-1.73-1.718-3.262-2.613-1.528z" fill="#92CEFF"/><path d="M162.588 63.257c-1.777-.407-3.266-1.6-3.862-3.357-.623-1.834-3.56-1.096-2.931.752.93 2.743 3.109 4.86 5.963 5.516 1.895.435 2.73-2.475.83-2.91z" fill="#6E99BD"/><path d="M333.456 100.173c-1.77-.437-3.24-1.656-3.806-3.421-.592-1.843-3.54-1.154-2.943.704.886 2.758 3.029 4.911 5.87 5.614 1.89.465 2.773-2.43.879-2.897zM290.541 55.996c-1.77-.437-3.239-1.655-3.805-3.42-.592-1.843-3.54-1.154-2.944.704.886 2.757 3.028 4.911 5.871 5.613 1.888.466 2.772-2.43.878-2.897z" fill="#92CEFF"/></g><g fill-rule="nonzero"><path d="M378.169 140.908c-.83-1.941.884-3.836 2.757-4.097.69-.096.99.96.292 1.058-1.34.187-2.798 1.514-1.864 2.878.255-.29.56-.54.902-.711 1.306-.657 3.21.362 2.04 1.856-.675.862-1.73.896-2.625.488-.095.377.02.76.585 1.051.629.324.075 1.27-.553.948-1.112-.574-1.3-1.658-.946-2.63a2.712 2.712 0 01-.588-.841zm2.79.016c-.026-.028-.388.209-.727.559.447.216.689.03.726-.56z" fill="#6C7683"/><path d="M425.1 86.347c-.83-1.94.885-3.836 2.758-4.097.69-.096.99.96.291 1.059-1.34.186-2.797 1.514-1.863 2.877.255-.29.56-.539.902-.711 1.306-.656 3.21.362 2.04 1.856-.674.863-1.73.897-2.626.488-.094.378.021.76.587 1.052.628.324.073 1.27-.554.948-1.112-.574-1.3-1.658-.947-2.63a2.696 2.696 0 01-.588-.842zm2.79.017c-.025-.028-.387.208-.726.558.446.216.689.03.726-.558z" fill="#67727C"/><path d="M421.164 120.362c.463.896 1.307 1.529 2.33 1.607 1.066.08 1.076 1.755 0 1.673-1.598-.121-3.032-.996-3.775-2.435-.493-.957.95-1.804 1.445-.845zM457.909 102.543c.982-.226 1.805-.886 2.135-1.857.345-1.014 1.968-.606 1.621.416-.514 1.517-1.719 2.688-3.297 3.05-1.049.24-1.51-1.368-.46-1.61zM387.464 101.599c.979-.242 1.791-.915 2.105-1.892.327-1.018 1.957-.638 1.627.39-.49 1.524-1.674 2.716-3.246 3.104-1.044.258-1.533-1.344-.486-1.602z" fill="#567591"/></g><g fill-rule="nonzero"><path d="M130.052 4.103c-.83-1.94.884-3.835 2.757-4.097.69-.096.99.961.292 1.059-1.34.186-2.798 1.514-1.863 2.878.255-.29.559-.54.901-.712 1.307-.656 3.211.363 2.041 1.857-.675.861-1.73.896-2.626.487-.094.378.02.76.586 1.052.628.324.074 1.27-.554.947-1.112-.573-1.3-1.657-.946-2.63a2.712 2.712 0 01-.588-.84zm2.79.016c-.026-.027-.388.21-.727.56.447.216.69.03.727-.56zM74.615 59.563c-.83-1.94.885-3.836 2.758-4.097.69-.096.989.96.291 1.058-1.34.187-2.798 1.514-1.863 2.878.255-.29.56-.539.901-.711 1.307-.656 3.211.362 2.041 1.856-.675.863-1.73.897-2.626.488-.094.378.021.76.587 1.052.628.324.073 1.27-.554.947-1.112-.573-1.3-1.657-.947-2.63a2.696 2.696 0 01-.588-.841zm2.79.016c-.026-.028-.388.209-.727.559.447.216.69.03.727-.559z" fill="#555F68"/><path d="M59.082 100.522c.463.896 1.307 1.529 2.33 1.607 1.067.08 1.076 1.755 0 1.673-1.597-.122-3.031-.997-3.775-2.435-.493-.957.95-1.804 1.445-.845z" fill="#445E73"/><path d="M120.627 78.735c.983-.226 1.806-.886 2.136-1.857.344-1.014 1.968-.606 1.62.416-.514 1.517-1.719 2.688-3.297 3.05-1.048.24-1.51-1.368-.459-1.61zM168.208 17.994c.979-.242 1.791-.915 2.105-1.892.327-1.019 1.957-.638 1.627.39-.49 1.524-1.674 2.716-3.246 3.103-1.044.258-1.533-1.343-.486-1.601z" fill="#4A637B"/></g><g transform="translate(0 78.276)"><ellipse fill="#21232F" fill-rule="nonzero" cx="289.502" cy="245.834" rx="289.502" ry="18.41"/><path d="M21.037 169.396a26.297 26.297 0 00-11.25-3.872c-1.837-.189-3.846-.136-5.32.978-.314.237-.618.585-.549.971.052.285.292.49.52.666 4.578 3.49 11.501 3.932 16.6 1.257M20.75 169.077c-2.548-1.987-5.11-3.988-7.267-6.392-2.158-2.405-3.911-5.26-4.555-8.425-.196-.96-.256-2.057.36-2.82 5.791 4.524 10.34 10.374 11.461 17.637" fill="#022D50"/><path d="M20.978 169.352c-.437-3.168-.593-6.425.133-9.54.729-3.114 2.423-6.095 5.083-7.872 1 2.34.57 5.035-.136 7.48a36.328 36.328 0 01-5.038 10.608M26.655 179.526c-3.446.418-6.448 2.235-9.022 4.566a17.073 17.073 0 00-5.16 8.858c3.38-.209 6.248-2.593 8.329-5.266 2.08-2.672 3.521-5.606 5.806-8.106M27.888 181.153c-2.776-6.839-1.77-15.078 2.57-21.048 1.963 6.985 1.242 14.874-2.57 21.048M35.39 190.085a16.2 16.2 0 00-9.024 2.114 16.203 16.203 0 00-6.36 6.742c-.191.38-.36.866-.105 1.207.223.296.652.323 1.021.3 3.032-.197 5.72-2.02 7.936-4.098 2.218-2.077 4.15-4.477 6.6-6.273M35.15 189.599a28.654 28.654 0 01-.285-16.006c.564-2.06 1.51-4.229 3.416-5.195.162-.083.351-.156.522-.092.162.061.255.227.33.382.678 1.417.875 3.024.805 4.593-.069 1.568-.395 3.112-.72 4.648-.599 2.841-.918 5.895-2.477 8.344-.37.582-.695 1.21-.99 1.833-.295.623-.297.842-.567 1.337M55.008 192.558c-1.471-5.596.09-12.381 3.617-16.97.26-.336.604-.699 1.028-.66.65.06.818.925.789 1.578a30.658 30.658 0 01-5.434 16.052M56.799 193.782c6.799 1.769 14.598.048 20.253-4.12a16.39 16.39 0 00-10.964-1.345c-3.663.837-7.01 2.478-9.29 5.465M58.309 190.055c3.807-6.209 11.107-10.26 18.381-10.63-.838 2.96-3.269 5.259-6.012 6.648-2.743 1.39-5.805 1.995-8.824 2.58-1.174.229-2.785.48-3.545 1.402M55.386 171.974c1.032-3.532 2.069-7.096 2.352-10.765.282-3.669-.24-7.5-2.144-10.649-3.558 6.883-3.918 14.925-.315 21.783M67.362 165.921c4.16-7.559 12.645-13.598 21.233-14.444-3.313 8.247-12.347 14.621-21.233 14.444M64.745 167.403c6.203.945 11.489 4.907 17.286 7.309 1.24.514 2.577.923 3.908.748 1.33-.174 2.642-1.067 2.941-2.375.247-1.087-.247-2.24-1.026-3.036-.78-.796-1.81-1.294-2.84-1.723-6.313-2.628-13.084-2.693-19.735-1.1" fill="#022D50"/><path d="M61.155 171.754c1.404.402 1.884 1.129 2.996 2.076a32.342 32.342 0 0013.109 6.734c.5.125 1.157.174 1.405-.279.217-.395-.057-.873-.338-1.225-2.016-2.521-4.89-4.247-7.915-5.373-3.025-1.127-5.646-2.484-9.257-2.192M57.104 145.475c5.044 4.71 12.15 7.127 19.019 6.472.313-.03.654-.08.866-.311.478-.521-.096-1.324-.653-1.76-5.592-4.359-12.365-6.167-19.232-4.4" fill="#022D50"/><path d="M61.907 143.718c6.668-5 15.812-6.507 23.732-3.916-2.988 2.946-7.136 4.53-11.309 4.965-4.174.435-8.353-.028-12.423-1.05M59.999 131.643c-.55-5.581-.194-9.987-.581-15.594-.031-.448-.127-.987-.546-1.149-.584-.225-1.07.493-1.262 1.088-1.661 5.169-.753 11.097 2.38 15.532" fill="#022D50"/><path d="M59.596 132.26c3.783-2.34 6.622-5.395 9.246-8.986 1.825-2.498 3.365-5.492 2.95-8.559-2.564-.05-5 1.364-6.669 3.313-1.668 1.947-2.66 4.384-3.4 6.84-.74 2.455-1.258 4.979-2.127 7.391M68.68 129.736a74.553 74.553 0 0022.752-13.415c-2.719-1.095-5.83-.44-8.547.656-6.207 2.506-11.28 6.736-14.324 12.699M62.15 135.313c4.2.459 8.467.758 12.634.061 4.096-.684 7.967-2.308 11.794-3.918.318-.134.662-.294.801-.61.151-.34-.01-.757-.287-1.008-.277-.25-.646-.37-1.006-.471-4.16-1.165-8.651-.62-12.745.761-4.094 1.381-7.451 3.02-11.19 5.185M38.168 145.667c-2.865-5.785-2.68-12.535-.204-18.495 1.742 2.654 1.955 6.035 1.636 9.196-.318 3.159-1.28 6.411-1.342 9.587M26.72 139.893c-7.153-.136-14.31 2.912-19.168 8.166 3.57.56 7.248-.36 10.496-1.946 3.248-1.587 6.134-3.812 8.995-6.02M19.025 137.32c-3.5-.285-6.868-.718-10.233.313-3.366 1.03-6.428 3.372-7.8 6.614 3.274.369 6.593-.452 9.593-1.812s5.73-3.243 8.44-5.115M30.42 137.437c-3.15-2.063-6.382-4.164-10.048-5.019-3.667-.855-7.915-.223-10.47 2.54 2.966 1.742 6.567 1.948 10.008 1.945 3.441-.003 7.66-.041 10.903 1.107" fill="#022D50"/><path d="M30.438 137.603c-5.383-5.285-7.423-14.781-5.257-22.008 4.23 6.43 6.125 14.362 5.257 22.008M45.24 122.627c1.015-2.36 1.729-4.837 2.64-7.239.91-2.402 2.042-4.766 3.763-6.675 1.722-1.906 4.101-3.327 6.667-3.454-1.606 7.273-6.437 13.771-12.938 17.406M42.561 125.747c-1.68-2.312-3.62-5.45-5.899-7.177-2.278-1.725-5.245-2.77-8.024-2.107 2.826 5.054 8.17 8.617 13.923 9.284M43.097 122.82c-1.101-2.798-2.21-5.627-2.655-8.6-.446-2.974-.175-6.15 1.346-8.744 2.954 5.585 3.907 11.58 1.46 17.407M45.267 105.476c1.674-5.537 6.744-9.614 12.217-11.486.69-.235 1.422-.432 2.142-.32.72.111 1.428.605 1.58 1.318.199.941-.58 1.785-1.311 2.411a41.598 41.598 0 01-14.628 8.077M45.327 100.947c.213-3.57.436-7.191 1.597-10.574s3.399-6.556 6.654-8.037c.554 3.606-1.037 7.194-2.954 10.297-1.919 3.102-4.232 6.03-5.384 9.492M45.24 103.405c-1.384-4.035-1.526-9.162-3.943-12.676-1.69-2.458-4.394-4.132-5.85-6.734-.966 2.43-.67 5.231.34 7.644 1.012 2.413 2.683 4.49 4.471 6.4 1.788 1.909 3.32 3.346 4.982 5.366" fill="#022D50"/><path d="M45.267 222.24c-.107 0-.201-26.919-.209-60.118-.007-33.21.074-60.123.182-60.123.107 0 .2 26.913.208 60.123.007 33.2-.074 60.118-.18 60.118" fill="#074F8A"/><path d="M68.79 141.605c.008.025-.352.16-1.011.38-.727.246-1.663.56-2.785.94-2.35.8-5.575 1.959-9.077 3.393-3.468 1.487-6.737 2.695-8.6 4.308-.93.797-1.463 1.658-1.727 2.286-.267.633-.315 1.02-.35 1.012-.014-.002-.009-.099.011-.282.031-.181.078-.452.198-.785.227-.664.746-1.585 1.686-2.437.936-.853 2.239-1.619 3.731-2.317a113.841 113.841 0 014.904-2.144 112.466 112.466 0 019.138-3.296 75.678 75.678 0 012.827-.824c.673-.175 1.049-.26 1.056-.234" fill="#074F8A"/><path d="M76.502 122.665c.008.01-.09.114-.284.303-.23.214-.515.483-.864.81l-3.224 2.93-10.734 9.557c-4.19 3.73-7.81 7.293-10.32 9.976a119.71 119.71 0 00-2.92 3.225l-.78.89c-.18.202-.28.304-.29.295-.012-.007.067-.126.23-.344.162-.217.4-.539.724-.939a72.61 72.61 0 012.834-3.314c2.465-2.738 6.065-6.342 10.263-10.08 4.205-3.72 8.03-7.063 10.81-9.472l3.307-2.837.912-.756c.211-.17.327-.254.336-.244" fill="#074F8A"/><path d="M56.873 140.057c-.11-.049.766-2.07 1.638-4.626.88-2.555 1.294-4.712 1.406-4.693.102.01-.146 2.23-1.037 4.818a31.598 31.598 0 01-1.304 3.236c-.381.806-.655 1.286-.703 1.265M45.292 156.35c-.022.017-.251-.251-.646-.75-.439-.561-.993-1.272-1.654-2.12a713.413 713.413 0 00-5.463-6.988 708.228 708.228 0 00-5.567-6.907l-1.69-2.092c-.394-.498-.603-.781-.582-.798.02-.018.268.233.698.7.43.467 1.041 1.155 1.786 2.014a212.623 212.623 0 015.66 6.842 212.045 212.045 0 015.378 7.064c.667.92 1.198 1.67 1.555 2.196.359.526.546.823.525.84" fill="#074F8A"/><path d="M40.133 149.729c-.064.067-1.44-1.565-2.16-4.045-.532-1.75-.556-3.348-.49-4.079l.171.014c-.077.312-.133.476-.164.471-.03-.005-.032-.179-.006-.499l.172.014c.063.725.172 2.268.69 3.967.696 2.404 1.892 4.09 1.787 4.157M33.474 141.352c-.05.055-.493-.504-1.508-.876-1.008-.39-2.525-.476-4.19-.333-1.665.122-3.152.419-4.217.68-1.065.264-1.715.471-1.736.417-.017-.046.602-.346 1.662-.681a19.28 19.28 0 014.263-.805c1.682-.144 3.28-.015 4.32.467 1.057.468 1.441 1.122 1.406 1.13M31.896 139.322c-.03.06-.879-.352-2.312-.842a23.878 23.878 0 00-5.766-1.187 23.857 23.857 0 00-5.881.3c-1.49.266-2.392.545-2.412.482-.009-.027.209-.118.612-.262.402-.15.999-.321 1.746-.49 1.493-.343 3.621-.593 5.965-.417 2.34.182 4.407.75 5.83 1.316.714.28 1.278.54 1.652.75.376.203.578.326.566.35M45.24 130.738c-.104.026-.859-2.596-1.686-5.855-.827-3.262-1.413-5.925-1.308-5.952.103-.027.858 2.595 1.685 5.856.827 3.26 1.413 5.924 1.309 5.95" fill="#074F8A"/><path d="M45.347 130.738c-.116.037-.6-1.715-1.868-3.506-1.233-1.829-2.808-2.747-2.75-2.838.02-.04.454.12 1.06.548.609.423 1.36 1.14 2.008 2.067 1.315 1.864 1.644 3.722 1.55 3.729M45.267 207.89c-.042.007-.122-.647-.425-1.79-.3-1.144-.865-2.764-1.798-4.66-1.86-3.8-5.244-8.62-9.545-13.446-2.13-2.436-4.198-4.732-5.953-6.931-1.757-2.196-3.202-4.289-4.256-6.139-1.058-1.85-1.747-3.436-2.149-4.556-.198-.562-.342-1-.422-1.303-.085-.301-.124-.461-.111-.465.035-.011.23.616.675 1.714a33.323 33.323 0 002.244 4.471c1.077 1.819 2.535 3.881 4.298 6.053 1.762 2.177 3.833 4.46 5.967 6.899 4.312 4.84 7.688 9.719 9.5 13.583.91 1.928 1.44 3.58 1.697 4.744.125.583.209 1.037.239 1.35.038.311.053.474.04.477" fill="#074F8A"/><path d="M66.524 183.88c.013.029-.394.234-1.114.626a24.363 24.363 0 00-2.89 1.91c-1.161.89-2.46 2.057-3.795 3.461-1.332 1.407-2.703 3.041-4.104 4.792-2.8 3.513-5.419 6.622-6.987 9.104a37.31 37.31 0 00-1.754 2.996c-.382.726-.585 1.134-.613 1.122-.012-.006.023-.115.103-.317.083-.2.196-.501.375-.873.338-.751.884-1.816 1.657-3.075 1.522-2.542 4.12-5.693 6.916-9.2 1.402-1.754 2.791-3.392 4.149-4.796 1.359-1.404 2.693-2.563 3.888-3.435a20.372 20.372 0 012.984-1.824c.37-.185.671-.299.87-.385.202-.081.31-.118.315-.106" fill="#074F8A"/><path d="M66.94 191.67c.005.056-.9.166-2.355.342-1.45.187-3.47.43-5.584 1.1-2.108.685-3.86 1.731-5 2.623-1.153.891-1.697 1.628-1.75 1.585-.02-.014.094-.214.348-.542.252-.33.664-.77 1.228-1.255 1.122-.968 2.89-2.077 5.054-2.782 2.167-.686 4.214-.884 5.677-1.004 1.468-.106 2.378-.118 2.382-.068" fill="#074F8A"/><path d="M52.938 196.465c-.122-.07.938-1.692 1.761-3.871.773-2.2.953-4.13 1.093-4.108.05.007.047.49-.04 1.264a13.551 13.551 0 01-.687 2.977 14.4 14.4 0 01-1.366 2.73c-.42.656-.718 1.034-.76 1.008M73.409 162.97c.004.012-.126.08-.378.2l-1.106.502c-.484.208-1.074.472-1.736.82-.665.345-1.442.698-2.25 1.183l-1.285.73c-.445.257-.886.561-1.355.854-.946.575-1.895 1.283-2.908 2.005a54.653 54.653 0 00-6.07 5.34 54.594 54.594 0 00-5.131 6.25c-.687 1.037-1.362 2.01-1.904 2.976-.277.478-.566.93-.806 1.383-.238.455-.468.89-.687 1.31-.457.823-.784 1.611-1.104 2.289-.327.674-.57 1.27-.761 1.762l-.465 1.123c-.11.256-.175.388-.187.384-.013-.005.027-.146.113-.41l.397-1.152a19.8 19.8 0 01.704-1.795c.302-.689.613-1.488 1.057-2.326l.669-1.327c.235-.462.519-.919.792-1.404.534-.98 1.203-1.966 1.887-3.016a52.298 52.298 0 015.146-6.318 52.277 52.277 0 016.137-5.357c1.026-.72 1.988-1.422 2.95-1.99.474-.29.922-.588 1.374-.839l1.306-.713c.82-.473 1.61-.811 2.288-1.138a19.882 19.882 0 011.77-.763l1.136-.437c.262-.095.402-.14.407-.127" fill="#074F8A"/><path d="M56.585 174.241c-.035-.006.153-.659.925-1.378.753-.717 2.127-1.382 3.728-1.43 1.594-.042 2.977.404 3.921.766.95.374 1.503.675 1.484.72-.022.054-.614-.158-1.574-.46-.956-.293-2.308-.678-3.82-.637-1.506.046-2.805.626-3.56 1.25-.77.62-1.042 1.207-1.104 1.17M54.07 176.835c-.107-.06.842-1.45 1.058-3.443.249-1.99-.355-3.562-.237-3.595.043-.017.255.349.437 1.003.185.652.306 1.6.187 2.637-.123 1.036-.46 1.93-.789 2.523-.328.595-.618.902-.656.875" fill="#074F8A"/><path d="M26.675 211.747c.58 10.288 3.68 20.75 8.448 31.328h20.735c4.548-10.473 7.434-20.92 7.947-31.328h-37.13" fill="#101B6B"/><g filter="url(#a)" transform="translate(27.38 218.11)" fill="#0F1316"><path d="M33.065 10.284c0 .108-6.827.195-15.247.195-8.423 0-15.248-.087-15.248-.195 0-.107 6.825-.194 15.248-.194 8.42 0 15.247.087 15.247.194M32.601 14.012c0 .107-6.4.195-14.293.195-7.896 0-14.295-.088-14.295-.195 0-.107 6.399-.195 14.295-.195 7.894 0 14.293.088 14.293.195M8.079.393c.107 0 .195 2.138.195 4.776 0 2.637-.088 4.776-.195 4.776-.108 0-.195-2.139-.195-4.776 0-2.638.087-4.776.195-4.776"/><path d="M35.767.393c0 .107-8.007.194-17.883.194C8.006.587 0 .5 0 .393 0 .286 8.006.198 17.884.198c9.876 0 17.883.088 17.883.195"/></g><path d="M46.567 218.502c.108 0 .195 2.214.195 4.945 0 2.733-.087 4.946-.195 4.946-.107 0-.194-2.213-.194-4.946 0-2.73.087-4.945.194-4.945M56.997 218.418c.107 0 .195 2.259.195 5.044 0 2.787-.088 5.045-.195 5.045-.107 0-.194-2.258-.194-5.045 0-2.785.087-5.044.194-5.044" fill="#0F1316"/><g><path d="M548.693 217.595c-.01-.005.048-.142.167-.405l.544-1.158c.461-1.024 1.062-2.575 1.596-4.639 1.057-4.124 1.426-10.425-.136-17.91-.725-3.75-1.894-7.77-3.32-12.031-1.408-4.271-3.041-8.802-4.376-13.7-1.319-4.885-2.359-10.188-2.158-15.747.202-5.571 1.85-11.132 3.665-16.667 1.81-5.543 3.682-10.961 4.242-16.413.635-5.44-.53-10.782-3.009-15.158-2.4-4.423-5.421-8.205-7.68-12.125-2.296-3.904-3.733-7.92-4.618-11.655a43.403 43.403 0 01-.292-18.057c.89-4.203 1.884-6.378 1.884-6.378.01.004-.028.148-.112.425l-.381 1.223c-.333 1.074-.763 2.677-1.172 4.773a43.985 43.985 0 00.47 17.922c.9 3.692 2.343 7.655 4.632 11.506 2.254 3.873 5.288 7.64 7.736 12.115 2.531 4.424 3.747 9.94 3.103 15.466-.565 5.543-2.45 10.997-4.255 16.535-1.814 5.53-3.444 11.032-3.65 16.509-.206 5.474.809 10.727 2.108 15.59 1.312 4.873 2.926 9.404 4.314 13.686 1.41 4.275 2.566 8.328 3.27 12.102 1.52 7.541 1.085 13.907-.047 18.045-.573 2.072-1.21 3.619-1.709 4.631l-.596 1.137c-.138.255-.211.383-.22.378" fill="#114169"/><path d="M541.297 95.508s-4.59-14.676 3.644-23.271a.509.509 0 01.872.253c.44 2.423.99 9.807-4.516 23.018" fill="#022D50"/><path d="M544.047 77.128c.078.015-.053 1.048-.308 2.708-.303 1.865-.657 4.055-1.048 6.473-.385 2.42-.73 4.61-1.028 6.474-.252 1.658-.401 2.686-.486 2.679-.075-.006-.067-1.05.083-2.728.151-1.677.447-3.985.864-6.517.413-2.532.855-4.813 1.214-6.456.36-1.643.63-2.649.71-2.633" fill="#0F1316"/><path d="M546.689 130.125s2.806-15.119 14.103-18.865a.509.509 0 01.654.631c-.745 2.348-3.712 9.132-14.757 18.234" fill="#022D50"/><path d="M557.715 115.165c.063.05-.537.902-1.539 2.249l-3.954 5.232-3.934 5.242c-.998 1.347-1.612 2.186-1.683 2.141-.063-.04.432-.96 1.349-2.374.917-1.41 2.258-3.312 3.81-5.356a129.183 129.183 0 014.093-5.137c1.085-1.285 1.797-2.047 1.858-1.997" fill="#0F1316"/><path d="M543.636 168.058s-1.706-15.284 8.017-22.149a.509.509 0 01.808.414c-.031 2.463-.9 9.816-8.825 21.735" fill="#022D50"/><path d="M549.843 150.539c.073.03-.253 1.018-.82 2.6l-2.264 6.155-2.244 6.158c-.563 1.579-.906 2.56-.988 2.537-.072-.019.135-1.044.602-2.662.469-1.617 1.199-3.826 2.09-6.232.89-2.407 1.759-4.562 2.425-6.106.666-1.544 1.125-2.48 1.199-2.45" fill="#0F1316"/><path d="M552.146 206.212s-1.158-15.334 8.804-21.848c.35-.228.813.026.794.442-.12 2.46-1.252 9.778-9.598 21.406" fill="#022D50"/><path d="M558.975 188.926c.072.033-.289 1.01-.913 2.569-.715 1.748-1.553 3.802-2.482 6.07l-2.462 6.074c-.619 1.558-.998 2.525-1.078 2.5-.072-.022.172-1.038.696-2.64.526-1.598 1.335-3.779 2.313-6.153a129.865 129.865 0 012.641-6.014c.72-1.52 1.213-2.437 1.285-2.406" fill="#0F1316"/><path d="M534.7 82.613s-13.63-7.12-13.897-19.018c-.01-.417.45-.677.793-.438 2.027 1.4 7.64 6.226 13.105 19.456" fill="#022D50"/><path d="M523.633 67.682c.065-.043.704.778 1.698 2.132l3.842 5.314c1.441 1.982 2.747 3.774 3.857 5.3.996 1.349 1.618 2.182 1.553 2.237-.056.048-.791-.696-1.873-1.985-1.08-1.293-2.504-3.132-4.003-5.215a128.955 128.955 0 01-3.711-5.42c-.91-1.414-1.429-2.318-1.363-2.363" fill="#0F1316"/><path d="M549.339 114.134s-14.04-6.277-15.028-18.138c-.035-.416.408-.703.766-.487 2.108 1.275 8.005 5.752 14.262 18.625" fill="#022D50"/><path d="M537.383 99.905c.064-.049.75.733 1.825 2.023l4.16 5.072 4.17 5.056c1.076 1.284 1.746 2.078 1.686 2.138-.054.051-.83-.646-1.99-1.868-1.156-1.224-2.69-2.973-4.313-4.962a129.873 129.873 0 01-4.033-5.186c-.994-1.356-1.568-2.227-1.505-2.273" fill="#0F1316"/><path d="M541.26 149.296s-9.638-11.984-5.118-22.993c.16-.387.685-.44.906-.084 1.294 2.094 4.505 8.765 4.213 23.077" fill="#022D50"/><path d="M537.1 131.182c.077-.015.333.995.702 2.632l1.392 6.409 1.41 6.401c.372 1.635.61 2.647.528 2.672-.072.022-.446-.954-.92-2.57-.473-1.617-1.041-3.872-1.58-6.381-.54-2.509-.963-4.793-1.23-6.453-.267-1.66-.381-2.696-.303-2.71" fill="#0F1316"/><path d="M550.809 190.671s-13.931-6.512-14.722-18.389a.509.509 0 01.775-.473c2.085 1.31 7.906 5.886 13.947 18.862" fill="#022D50"/><path d="M539.095 176.243c.064-.048.737.746 1.79 2.054l4.073 5.14 4.085 5.125c1.054 1.304 1.712 2.11 1.65 2.166-.054.051-.82-.659-1.958-1.9-1.136-1.245-2.64-3.019-4.228-5.034a129.564 129.564 0 01-3.947-5.252c-.97-1.373-1.53-2.253-1.465-2.3" fill="#0F1316"/><path d="M578.557 130.208c.014 0 .02.117.018.339l-.025.983c-.04.924-.095 2.172-.165 3.729l-.729 13.317v.012l-.004.018c-.995 5.566-3.828 11.733-7.635 17.721-2.794 4.413-5.72 8.423-8.245 12.153-2.54 3.719-4.685 7.164-6.18 10.217a43.172 43.172 0 00-2.892 7.498 49.88 49.88 0 00-.534 2.126c-.115.488-.186.744-.205.74-.02-.003.011-.266.09-.763.07-.5.219-1.226.432-2.16.448-1.858 1.272-4.52 2.743-7.617 1.46-3.102 3.585-6.594 6.107-10.337 2.508-3.757 5.42-7.773 8.197-12.162 3.787-5.96 6.607-12.033 7.638-17.508l-.005.03.936-13.303.3-3.72.1-.98c.025-.22.046-.333.058-.333" fill="#114169"/><path d="M570.262 165.184s5.9-14.202-1.52-23.506c-.262-.326-.782-.231-.894.172-.656 2.374-1.872 9.677 2.414 23.334" fill="#E0565F"/><path d="M569.188 146.63c.079-.01.26 1.017.468 2.686.21 1.67.442 3.98.625 6.539.185 2.56.27 4.884.27 6.569-.003 1.683-.09 2.725-.165 2.724-.084-.001-.142-1.039-.241-2.712l-.439-6.54-.456-6.542c-.104-1.676-.14-2.716-.062-2.725" fill="#132529"/><path d="M570.262 165.184c-2.424-7.722-3.088-13.413-3.09-17.33 0-3.01.392-4.973.676-6.004a.499.499 0 01.487-.368c.15 0 .3.062.406.196 2.863 3.59 3.743 7.906 3.745 11.857.002 5.07-1.444 9.535-2.005 11.076.039-.468.069-1.222.07-2.187 0-1.685-.085-4.009-.27-6.57-.183-2.559-.416-4.869-.625-6.538-.208-1.662-.387-2.687-.467-2.687h-.001c-.079.01-.042 1.049.062 2.725l.456 6.542.439 6.54c.077 1.307.13 2.227.188 2.567-.045.12-.071.18-.071.18" fill="#022D50"/><path d="M570.333 165.003c-.058-.34-.11-1.26-.188-2.567l-.439-6.54-.456-6.542c-.104-1.676-.14-2.716-.062-2.725.081 0 .26 1.025.468 2.687.21 1.67.442 3.98.625 6.539.185 2.56.27 4.884.27 6.569-.001.965-.031 1.719-.07 2.187-.06.165-.11.297-.148.392" fill="#0F1316"/><path d="M551.988 199.407s4.73-14.634-3.422-23.305a.509.509 0 00-.875.244c-.463 2.42-1.082 9.796 4.297 23.06" fill="#E0565F"/><path d="M549.412 181c.08-.014.341.995.684 2.64.344 1.647.764 3.932 1.154 6.467.392 2.537.667 4.847.802 6.525.133 1.68.13 2.724.056 2.728-.084.007-.224-1.023-.46-2.682l-.966-6.483-.985-6.484c-.241-1.662-.362-2.696-.285-2.711" fill="#132529"/><path d="M551.988 199.407c-3.761-9.275-4.59-15.672-4.59-19.508 0-1.65.154-2.825.293-3.553a.5.5 0 01.498-.409c.134 0 .27.052.377.165 3.772 4.013 4.786 9.305 4.786 13.831 0 4.09-.826 7.553-1.192 8.888 0-.47-.032-1.225-.108-2.189-.135-1.678-.41-3.988-.802-6.525-.39-2.535-.81-4.82-1.154-6.466-.34-1.635-.602-2.64-.682-2.64h-.002c-.077.014.044 1.048.285 2.71l.985 6.484.966 6.483c.184 1.298.31 2.212.397 2.544-.036.121-.057.185-.057.185" fill="#022D50"/><path d="M552.045 199.222c-.087-.332-.213-1.246-.397-2.544l-.966-6.483-.985-6.484c-.241-1.662-.362-2.696-.285-2.71h.002c.08 0 .342 1.005.682 2.64.344 1.646.764 3.931 1.154 6.466.392 2.537.667 4.847.802 6.525.076.964.108 1.72.108 2.189-.047.168-.086.303-.115.401" fill="#0F1316"/><path d="M577.776 147.828s12.598-8.82 11.327-20.653c-.045-.416-.535-.613-.844-.333-1.828 1.65-6.774 7.161-10.483 20.986" fill="#E0565F"/><path d="M577.776 147.828c3.71-13.825 8.655-19.336 10.483-20.986a.49.49 0 01.333-.131c.245 0 .481.181.511.464.06.566.09 1.125.09 1.677.004 10.98-11.417 18.976-11.417 18.976" fill="#022D50"/><path d="M586.823 131.593c.073.035-.326 1-1.045 2.518a129.25 129.25 0 01-2.981 5.854c-1.217 2.26-2.392 4.268-3.297 5.688-.906 1.42-1.537 2.25-1.6 2.21-.071-.046.438-.952 1.251-2.417.905-1.658 1.965-3.604 3.14-5.754l3.124-5.766c.811-1.47 1.338-2.368 1.408-2.333" fill="#0F1316"/><path d="M557.068 184.899s15.195-2.37 19.265-13.553a.509.509 0 00-.611-.672c-2.369.678-9.235 3.448-18.654 14.225" fill="#E0565F"/><path d="M557.068 184.899c9.42-10.777 16.285-13.547 18.654-14.225a.51.51 0 01.611.672c-3.561 9.788-15.645 12.825-18.606 13.43a18.3 18.3 0 01-.601.114l-.058.009" fill="#022D50"/><path d="M572.341 174.31c.048.063-.734.751-2.05 1.8a127.208 127.208 0 01-5.253 3.942c-2.088 1.492-4.026 2.777-5.464 3.654-1.44.876-2.373 1.345-2.41 1.28-.044-.072.811-.662 2.187-1.62l5.353-3.782 5.345-3.8c1.376-.964 2.244-1.537 2.292-1.475" fill="#0F1316"/><path fill="#101B6B" d="M538.14 242.695h27.622l-3.58-29.832h-19.609z"/><path d="M563.286 222.107c0 .159-4.989.288-11.139.288-6.152 0-11.138-.13-11.138-.288 0-.159 4.986-.288 11.138-.288 6.15 0 11.14.13 11.14.288M563.833 224.48c0 .16-5.15.288-11.503.288-6.354 0-11.505-.129-11.505-.287 0-.16 5.15-.288 11.505-.288 6.352 0 11.503.128 11.503.288" fill="#0F1316"/></g><g fill-rule="nonzero"><path d="M228.813 33.25c.04-.051.088-.095.125-.152.547-.828-.983-1.907-1.532-1.075-.038.056-.096.096-.137.15-.139-.501-.831-1.02-1.625-.405-.23.177-3.446 2.737-6.991 3.126.563-.573 1.52-1.513 2.358-1.927.89-.437.27-1.87-.62-1.417-.14.071-1.28.684-1.41.814-3.894 2.404-12.008 9.818-12.378 10.482-.132.238 2.893 5.444 3.722 5.043 2.903-1.411 3.789-4.33 5.87-5.068 4.164-1.41 9.38-2.58 12.823-5.321.693-.555-.022-1.775-.73-1.551-.01-.003-.018-.01-.026-.013l.03-.028c.217-.145 1.096-.976 1.323-1.269.434-.559-.257-1.355-.802-1.388z" fill="#FFB3B3"/><path d="M219.665 36.744a.225.225 0 01-.217-.168.224.224 0 01.163-.271c3.842-.942 7.47-4.262 7.507-4.297a.228.228 0 01.316.013.225.225 0 01-.012.316c-.153.14-3.752 3.432-7.704 4.4a.216.216 0 01-.053.007zM220.62 38.542a.227.227 0 01-.22-.18.225.225 0 01.176-.263c3.221-.626 8.036-4.97 8.085-5.015a.228.228 0 01.316.015.225.225 0 01-.016.317c-.201.18-4.954 4.47-8.298 5.123a.386.386 0 01-.042.003zM221.56 39.95a.223.223 0 01-.06-.438c2.414-.665 6.613-3.711 6.655-3.743a.22.22 0 01.312.048c.074.099.05.239-.047.311-.175.128-4.31 3.127-6.798 3.813a.167.167 0 01-.062.01z" fill="#2A2B3C"/><path d="M181.833 231.922c-3.18-1.248-8.881-1.698-11.518-4.244-.216-.2-.4-.412-.557-.638-1.006-1.39-1.28-2.101-1.743-5.067-3.399-.441-8.117.437-11.545 2.237.137 2.187.071 3.147.125 5.393 0 0-.008.022.006.05.063 2.285 1.134 4.795 1.75 6.1 7.913-.658 15.708-1.795 23.482-3.83z" fill="#FFB3B3"/><path d="M184.755 234.684c.047 1.4-24.607 4.518-26.165 2.613l-.016-.016c-.095-.096-.158-.204-.235-.315a7.644 7.644 0 01-.189-.346c-1.023-2.046-1.579-6.511-1.546-6.985-.017-.016 0-.032 0-.032 7.256 1.89 13.695-1.936 13.695-1.936 2.458 2.377 7.574 2.928 10.833 3.969 3.18.704 3.607 2.985 3.623 3.048z" fill="#4093F6"/><path d="M184.87 235.162c.047 1.403-24.464 4.64-26.022 2.735 0 0-.43-.82-.509-.93 8.213.635 20.095-1.214 26.337-2.458.033.066.18.592.194.653z" fill="#2A2B3B"/><path d="M137.286 28.877c16.862-7.772 35.44 13.758 44.97 25.062 9.533 11.302 4.155 20.494-2.04 19.537-19.432-2.998-53.149-39.89-42.93-44.599z" fill="#4093F6"/><path d="M211.293 35.341c-12.96 3.616-32.768 13.028-38.072 19.308-5.304 6.28 6.153 19.288 8.857 18.808 2.706-.48 27.584-7.823 39.303-21.096 0 0-7.55-17.727-10.088-17.02z" fill="#4093F6"/><path d="M221.38 52.361s-17.603 18.812-41.163 21.115c-2.925.288-19.305-8.626-19.305-8.626l2.328-13.36s11.387 15.877 17.072 16.96c5.683 1.087 41.069-16.089 41.069-16.089z" fill="#2483E2"/><path d="M178.385 221.617c.678.664-5.997-61.902-6.367-73.577-.388-12.311-1.33-24.674-2.638-36.92-1.06-9.927.426-22.367-7.004-29.524-.48-.463-26.664 1.67-30.855 12.162-2.228 5.573-.487 11.738.505 17.382 1.401 7.981 7.483 55.507 7.906 71.499.384 14.488 1.324 28.975 6.392 42.687 7.075 2.585 22.469-.334 32.06-3.71z" fill="#3F4261"/><path d="M144.764 104.65s4.751 57.977 7.113 68.244c2.361 10.264 4.863 44.472 12.008 52.426 0 0-11.039 2.29-17.558.006 0 0-5-13.6-6.154-35.886-1.152-22.286-9.732-70.977-9.732-70.977l14.323-13.813z" fill="#343751"/><path fill="#2A2B3B" d="M143.79 109.306l-9.357 33.44 3.287 22.75z"/><path d="M143.18 87.368c-.346-.567-25.52-9.682-32.37-.693-.188.252-.376.52-.55.803-3.149 5.053-3.716 14.814-4.235 20.214-.787 8.076-7.665 55.494-11.556 71.003-3.509 14.073-6.486 28.275-5.274 42.853 7.4-.33 19.018.11 31.88 5.022.473.818 10.816-61.257 13.587-72.592 2.928-11.98 5.32-24.134 7.352-36.288 1.638-9.84 6.409-21.43 1.166-30.322z" fill="#3F4261"/><path d="M89.194 221.538c.33-1.678 29.277-.008 31.88 5.02.883 1.707-32.36-2.584-31.88-5.02z" fill="#2A2B3B"/><path d="M95.976 234.169c-.4-1.911-.419-3.416.419-6.184-.003-.033.01-.049.01-.049.66-2.149 1.026-3.04 1.586-5.157 3.821-.624 8.575.033 11.66 1.527-.496 2.958-.46 3.72.053 5.356.077.264.186.525.326.782 1.802 3.443 7.643 5.74 10.061 8.057.674.6 1.079 1.214 1.096 1.836.137 3.174-24.214-1.58-25.211-6.168z" fill="#FFB3B3"/><path d="M121.102 239.973a.889.889 0 01.065.36c.222 3.4-24.697-1.358-25.644-5.791l-.013-.02a3.055 3.055 0 01-.184-.76c-.334-2.265.894-5.352 1.075-5.786-.013-.02.008-.032.008-.032 6.29 4.084 13.616 2.488 13.616 2.488 1.582 3.025 6.256 5.171 9.016 7.19 1.11.713 1.877 1.51 2.061 2.351z" fill="#4093F6"/><path d="M121.102 239.973a.889.889 0 01.065.36c.222 3.4-24.697-1.358-25.644-5.791l-.013-.02a3.055 3.055 0 01-.184-.76c1.273 1.01 3.937 2.794 8.119 3.946 5.41 1.497 11.14 2.821 17.657 2.265z" fill="#2A2B3B"/><path d="M119.863 98.48s-8.578 18.026-8.265 26.355c.315 8.312 2.283 41.719-3.383 55.1-5.67 13.382-6.252 41.373-6.252 41.373s-11.555-1.67-12.766.235c-1.214-14.578 1.763-28.778 5.274-42.853 3.89-15.508 10.768-62.927 11.555-71.003.52-5.4 1.087-15.16 4.235-20.214l9.604 2.535v8.473h-.002z" fill="#343751"/><path d="M168.084 94.09s-29.578 7.898-60.795 2.335l.963-7.398 59.832 5.063z" fill="#2A2B3B"/><path d="M156.43 31.719s6.47 3.602 10.401 19.772c2.06 8.476 2.54 17.852 2.54 17.852l-5.992-3.7-6.95-33.924z" fill="#17171D"/><path d="M105.882 93.583s7.134-55.312 23.534-64.8c10.556-6.11 26.848-.737 30.483 7.28 7.094 15.64 11.231 57.457 11.231 57.457s-37.926 7.95-65.248.063z" fill="#4093F6"/><path d="M147.654 18.99s-.189 6.268-.401 7.677c-.065.43-.79 2.284-1.692 2.272-3.237-.041-4.81-1.443-5.637-2.272.64-1.762.97-4.336.97-7.677 0-3.162 6.76 0 6.76 0z" fill="#FFB3B3"/><path d="M140.04 13.907s1.465 8.515 6.845 8.682c5.377.166 2.01-11.593 1.202-11.917-.809-.324-6.055-1.469-8.048 3.235z" fill="#FFB3B3"/><path d="M134.462 30.388s6.835 7.348 6.68 15.089c-.156 7.739-9.34 20.86-7.897 32.273 1.443 11.414 11.71 19.016 11.71 19.016s-21.024 1.113-32.307-1.343c-11.283-2.457-.559-32.937-.559-32.937l22.373-32.098z" fill="#2483E2"/><path d="M118.454 130.19c.797-2.769.998-5.47.603-8.31.047-.033.079-.084.12-.122.82 1.87 1.385 3.881 1.415 6.328.016 1.239 1.93 1.04 1.914-.188-.056-4.422-1.41-8.002-3.918-11.598-3.52-5.045-6.386-11.38-7.357-17.48a.998.998 0 00-.168-.417c-.137-.362-.455-.664-.942-.66l-8.977.072c-.628.006-1.02.763-.802 1.302 2.059 5.099 4.458 10.157 7.196 14.932a20.917 20.917 0 002.58 3.57c1.184 1.342 2.84 2.655 3.501 4.382.795 2.078.284 4.252-.15 6.299-.209.991 1.008 1.358 1.605.81a.177.177 0 01-.006.033c-.213.925.84 1.312 1.476.912-.107 1.031 1.59 1.247 1.91.135z" fill="#FFB3B3"/><path d="M119.24 125.633a.241.241 0 01-.235-.291c.134-.629-.088-2.69-.184-3.43a.24.24 0 01.208-.27c.129-.03.253.074.269.208.016.111.357 2.755.178 3.592a.243.243 0 01-.236.19zM116.543 130.293a.238.238 0 01-.23-.31c.013-.041 1.269-4.157.63-8.329a.243.243 0 01.201-.275.246.246 0 01.276.201c.653 4.287-.635 8.502-.649 8.544a.238.238 0 01-.228.169zM115.074 129.348a.241.241 0 01-.233-.3c.011-.042 1.082-4.382.315-6.986a.239.239 0 01.164-.297c.129-.032.26.034.297.163.803 2.73-.264 7.056-.308 7.24a.245.245 0 01-.235.18z" fill="#2A2B3C"/><path d="M134.462 30.388c8.735 16.383-7.836 37.316-18.566 47.488-10.73 10.172-22.955-4.747-21.965-8.99.992-4.242 35.236-48.425 40.53-38.498z" fill="#4093F6"/><path d="M122.332 114.011c1.183-13.404-3.873-39.6-7.881-46.776-4.007-7.175-20.22-1.039-20.723 1.663-.502 2.7-1.001 33.92 7.29 49.565 0 0 21.08-1.826 21.314-4.452z" fill="#4093F6"/><path d="M146.603 6.514c-.724-.362-1.52-.516-2.335-.36-.986.187-1.604.941-2.557 1.042-2.128.226-3.164 1.6-2.934 3.411-.055.052-.11.1-.156.172-.78 1.322-1.28 2.72-.5 3.988-.852 1.528.445 3.534 1.429 4.78.083.108.18.168.278.21.274.518 1.232.603 1.482-.137.631-1.86.082-4.102.78-5.828.338-.826 1.074-1.434 1.627-2.213.828.26 1.609.141 2.355-.325 1.77.939 4.692.525 5.184-1.675.655-2.925-2.492-3.819-4.653-3.065z" fill="#565B82"/><path d="M142.812 15.458s-.817-1.568-2.303-1.345c-1.487.224-1.83 3.766.688 4.075 2.515.307 1.615-2.73 1.615-2.73z" fill="#FFB3B3"/><path d="M149.862 18.58c-.48-.13-1.085-.19-1.34-.518-.44-.566-1.178-.476-1.18.148-.56.795-1.862 1.196-2.292.673a3.43 3.43 0 01-.636-.618c-.377-.446-.69-1-.936-1.532-.476-1.02-.73-2.132-.964-3.229-.212-.99-1.73-.57-1.519.42.305 1.43.723 2.954 1.464 4.259a.842.842 0 00.011.368c.557 2.35 1.58 3.89 4.095 4.284.762.118 2.009-.06 2.68-.564.763-.576.8-3.276.617-3.691z" fill="#565B82"/><path d="M168.829 111.333c-1.025 0-3.179-.148-4.336-1.305-1.514-1.516-1.694-14.066-1.702-14.598a.198.198 0 01.194-.2c.1.004.198.085.2.193.046 3.59.423 13.162 1.588 14.327 1.397 1.4 4.561 1.18 4.593 1.174h.015c.101 0 .19.079.197.181a.2.2 0 01-.18.213c-.035 0-.246.015-.57.015z" fill="#2A2B3C"/><path d="M126.588 31.239s-27.904 22.71-32.86 37.659c-4.956 14.948 4.975 46.662 7.29 49.565 0 0-5.817-40.52-2.407-47.999 3.41-7.478 27.977-39.225 27.977-39.225z" fill="#2483E2"/><path d="M145.146 221.741a.198.198 0 01-.196-.195.198.198 0 01.195-.198c.26-.003 26.111-.33 32.865-4.964a.197.197 0 01.222.326c-6.851 4.7-32.015 5.022-33.086 5.031zM122.132 222.058a.2.2 0 01-.11-.033c-9.766-6.578-32.84-5.296-33.067-5.28h-.013a.198.198 0 01-.197-.185.199.199 0 01.184-.21c.235-.01 23.44-1.301 33.313 5.347a.197.197 0 01-.11.36z" fill="#2A2B3C"/></g><g><path d="M231.54.294l-.329.487c-.22 1.521 3.948 5.201 7.563 8.562 4.099 3.811 8.39 6.382 9.63 4.954C249.635 12.866 235.731-2.28 231.54.294M223.562 5.914c2.022-2.836 3.382-.594 3.972.851.385-.741.776-1.449 1.17-2.132-.651-1.277-2.248-3.59-5.128-3.096-3.948.666-6.265 8.809.992 12.496l.007-.014c.227-.78.48-1.541.755-2.297-.879-.439-4.209-2.4-1.768-5.808M245.019 19.598a54.73 54.73 0 01-1.597 2.187c.965.212 2.16.738 2.218 2.039.082 2.008-3.162 3.326-5.26 1.466-.871.875-1.692 1.582-2.468 2.145l-.01.007c1.16 1.336 8.692 4.666 11.641 0 2.705-4.277.038-7.57-4.524-7.844" fill="#FDB001"/><path d="M225.75 26.385l-4.162 5.63s-5.674.868-6.962 2.599c1.566-1.59 11.233 3.1 10.872 6.282.433-1.775.47-5.73-1.043-7.56l4.449-4.936c-.48-.244-.91-.487-1.301-.666a6.133 6.133 0 01-1.854-1.35" fill="#E99B00"/><path d="M222.529 29.413c-3.066 1.377-6.537 4.449-9.014 6.723-1.018.935 3.348 1.442 3.754.863 1.017-1.45 3.072-2.971 4.4-4.06 2.84-2.325 1.496-3.81.86-3.526z" fill="#FFB3B3" fill-rule="nonzero"/><path d="M238.774 9.343c-3.615-3.36-7.783-7.04-7.563-8.562l-.014-.01a47.884 47.884 0 00-2.492 3.862c-.395.683-.786 1.39-1.17 2.132-.8 1.552-1.566 3.213-2.205 4.957a36.659 36.659 0 00-.755 2.297c-.213.721-.405 1.449-.563 2.184-1.037 4.734-.151 8.201 1.737 10.182a6.133 6.133 0 001.854 1.349c.391.179.82.422 1.301.666 1.988 1.01 4.837 2.07 9.008-.965.776-.563 1.597-1.27 2.469-2.145.954-.955 1.967-2.112 3.041-3.505a54.73 54.73 0 001.597-2.187 85.087 85.087 0 003.384-5.3c-1.239 1.427-5.53-1.144-9.63-4.955" fill="#FDC130"/><path d="M214.626 34.614l-.14.21c-.402.895 7.954 10.113 10.645 6.91l.158-.23.21-.608c.36-3.182-9.307-7.872-10.873-6.282" fill="#CB8700"/><path d="M236.776 11.722c-2.736-1.483-7.21-1.153-8.071 3.379-.858 4.531 4.188 9.677 9.197 7.247 5.022-2.428 2.588-8.604-1.126-10.626" fill="#FFF"/><path d="M231.99 14.699c-.405 1.232 3.145.717 3.145.717s-3.502 4.072-2.788 4.861c.714.783 4.645-5.578 4.645-5.578s-4.713-.858-5.002 0" fill="#13005E"/></g><g><path d="M293.77 31.212c-7.011-.48-9.196-5.71-13.056-10.485-1.727-2.136-3.983-3.032-6.53-1.955-.237.099-.36.264-.397.445-5.45 2.928-4.638 14.644-.39 18.116 2.595 2.124 7.539 1.823 10.59 1.376 4.321-.633 7.995-2.68 10.462-6.313.36-.53-.127-1.148-.68-1.184z" fill="#32344E" fill-rule="nonzero"/><path d="M258.568 32.65c5.222-.481 6.851-5.71 9.726-10.484 1.284-2.136 2.967-3.032 4.863-1.957.176.1.27.264.296.446 4.058 2.928 3.455 14.644.293 18.115-1.935 2.124-5.616 1.823-7.89 1.378-3.219-.633-5.955-2.681-7.794-6.313-.267-.53.096-1.148.506-1.186z" fill="#32344E" fill-rule="nonzero"/><path d="M193.626 59.875c-.033-.047-.077-.086-.109-.135-.483-.73.866-1.68 1.35-.948.032.05.083.084.119.13.123-.44.734-.896 1.433-.355.201.158 3.038 2.412 6.161 2.755-.497-.504-1.34-1.333-2.078-1.697-.784-.387-.239-1.648.547-1.25.124.063 1.127.601 1.242.718 3.43 2.119 10.582 8.652 10.908 9.238.117.21-2.55 4.797-3.28 4.441-2.557-1.24-3.34-3.814-5.172-4.465-3.67-1.24-8.265-2.273-11.3-4.69-.613-.488.02-1.563.643-1.368.008-.003.014-.007.022-.009-.01-.008-.017-.017-.026-.025-.191-.126-.966-.861-1.165-1.12-.385-.49.223-1.19.705-1.22z" fill="#F1AD92"/><path d="M201.688 62.953a.146.146 0 01-.046-.006c-3.484-.852-6.656-3.756-6.79-3.88a.197.197 0 11.268-.289c.033.03 3.233 2.958 6.614 3.786.105.025.17.133.144.236a.193.193 0 01-.19.153zM200.846 64.538s-.026-.001-.038-.003c-2.947-.576-7.137-4.354-7.314-4.513a.198.198 0 01-.015-.279.2.2 0 01.28-.014c.042.038 4.286 3.865 7.124 4.419a.2.2 0 01.156.231.197.197 0 01-.193.16zM200.02 65.779a.149.149 0 01-.053-.008c-2.196-.603-5.837-3.248-5.992-3.361a.193.193 0 01-.042-.274.194.194 0 01.274-.042c.038.026 3.739 2.714 5.866 3.3a.197.197 0 01-.054.385z" fill="#2A2B3C" fill-rule="nonzero"/><path d="M199.7 57.418c2.252 1.01 4.801 3.267 6.618 4.937.748.688-2.46 1.058-2.757.633-.748-1.066-2.257-2.182-3.233-2.982-2.082-1.705-1.094-2.796-.628-2.588z" fill="#F1AD92"/><path d="M278.566 37.333c-3.522-4.193-17.462 7.046-42.125 29.921-10.842 10.055 4.694 21.225 8.846 19.907 4.154-1.32 40.518-41.215 33.28-49.828z" fill="#E0565F"/><path d="M207.735 64.3c7.568-9.644 26.69-.105 34.595 2.145 7.905 2.25 5.662 19.438 3.149 20.55-2.513 1.11-33.568-1.458-39.544-16.956-.001 0 .174-3.666 1.8-5.738z" fill="#E0565F"/><path d="M279.023 49.364s-3.143 17.731-32.407 37.856c-2.39 1.643-16.386.214-24.528-4.057 0 0 16.015 1.34 20.952-2.499 7.57-5.885 35.983-31.3 35.983-31.3z" fill="#CE444D"/><g fill="#2A2B3C" fill-rule="nonzero"><path d="M207.955 65.362a.16.16 0 01-.148-.1.157.157 0 01.093-.204c.257-.096 6.341-2.373 9.59-1.22a.16.16 0 01.097.201.157.157 0 01-.202.098c-3.15-1.129-9.31 1.193-9.373 1.217a.257.257 0 01-.057.008zM214.14 67.77a.15.15 0 01-.083-.023c-2.423-1.485-6.741-1.212-6.787-1.21-.083-.013-.163-.06-.167-.147a.155.155 0 01.147-.167c.18-.013 4.465-.28 6.974 1.256a.158.158 0 01-.083.291zM210.614 69.978a.155.155 0 01-.038-.005c-1.522-.376-3.74-2.516-3.835-2.606a.159.159 0 01-.004-.223.159.159 0 01.223-.005c.024.024 2.253 2.171 3.694 2.529.085.02.135.105.113.19a.156.156 0 01-.153.12zM212.097 75.352a.163.163 0 01-.107-.04c-3.476-3.226-5.655-6.913-5.675-6.95a.157.157 0 01.055-.215c.07-.047.17-.02.216.055.022.036 2.18 3.685 5.62 6.878a.159.159 0 01.008.224.166.166 0 01-.117.048z"/></g><path d="M207.763 63.23a30.655 30.655 0 01-2.039 4.923c-.466.897.891 1.694 1.36.794a32.896 32.896 0 002.197-5.298c.307-.97-1.212-1.384-1.518-.419zM271.263 37.822s-7.396 5.213-8.314 11.542c-.918 6.328-2.23 26.662-2.23 26.662l4.314-4.257 6.23-33.947z" fill="#2A2B3C" fill-rule="nonzero"/><path d="M267.129 222.288c-.42 5.081-2.111 9.754-2.037 10.621 0 0 .019.013.008.046.201 2.858-.147 4.326-.94 6.08-2.529-3.997-5.372-4.436-10.515-3.32-4.835 1.045-14.361 3.416-13.572 2.988 2.857-1.737 8.673-3.386 11.174-6.338.2-.227.367-.447.5-.696.305-.532 1.83-3.426 3.729-10.397.589-.022 6.832.885 11.653 1.016z" fill="#F1AD92"/><path d="M263.579 240.73c-.164.215-.328.334-.454.345-1.418.048-1.755-4.028-2.662-3.71-12.16 4.208-21.88 4.685-22.827 3.835-.214-.197-.301-.42-.277-.655.1-1.178 2.503-2.768 3.523-3.16 3.149-1.358 5.768-2.453 10.376-5.038 0 0 6.793 3.174 13.843.573 0 0 .014.018-.001.034.442 3.682-.718 6.777-1.521 7.775z" fill="#3F4261" fill-rule="nonzero"/><path d="M252.17 230.775c-2.439 3.227-8.247 5.285-8.247 5.285s4.333 1.823 21.17-3.147c0 0-10.837-4.898-12.923-2.138z" fill="#F1AD92"/><path d="M263.125 241.075c-1.418.048-1.755-4.028-2.662-3.71-12.16 4.208-21.88 4.685-22.827 3.835-.214-.197-.301-.42-.277-.655 6.61.894 12.454-1.283 18.657-3.03 4.707-1.323 5.025-2.417 6.785 2.39.102.16.45 1.16.324 1.17z" fill="#2A2B3B" fill-rule="nonzero"/><path d="M294.215 96.324c-3.857-10.61-15.712-13.193-25.52-10.39-.362-.347-.93-.49-1.417-.048-7.65 6.927-10.074 16.72-11.445 26.606-1.7 12.2-3.024 24.528-3.794 36.823-.74 11.65-9.383 73.977-8.676 73.347 4.347 1.842 8.928 2.962 13.366 3.639 6.958 1.07 13.586 1.07 18.561 1.07 5.494-13.553 6.88-27.99 7.73-42.473.913-15.965 2.33-31.646 5.29-47.389l.565-2.926c1.34-6.976 2.835-13.935 4.283-20.893 1.165-5.605 3.102-11.714 1.057-17.366z" fill="#3F4261" fill-rule="nonzero"/><path d="M288.876 134.581c-.187.975-.376 1.95-.565 2.927-2.96 15.743-4.376 31.423-5.29 47.388-.85 14.484-2.235 28.92-7.73 42.473-4.974 0-11.602 0-18.56-1.07 0 0 17.459-29.928 18.513-53.023 1.04-23.08 3.669-52.582 3.669-52.582l9.963 13.887z" fill="#343751" fill-rule="nonzero"/><path d="M277.903 113.95s3.486 40.31 6.414 49.166l3.519-20.467-9.933-28.7z" fill="#2A2B3B" fill-rule="nonzero"/><path d="M310.509 222.288c.42 5.081 2.111 9.754 2.037 10.621 0 0-.019.013-.008.046-.201 2.858.147 4.326.94 6.08 2.528-3.997 5.372-4.436 10.515-3.32 4.835 1.045 14.36 3.416 13.572 2.988-2.857-1.737-8.674-3.386-11.174-6.338a3.683 3.683 0 01-.5-.696c-.305-.532-1.83-3.426-3.729-10.397-.589-.022-6.83.885-11.653 1.016z" fill="#F1AD92"/><path d="M314.06 240.73c.166.215.328.334.454.345 1.418.048 1.754-4.028 2.662-3.71 12.162 4.208 21.878 4.685 22.828 3.835.214-.197.3-.42.277-.655-.101-1.178-2.503-2.768-3.524-3.16-3.148-1.358-5.768-2.453-10.376-5.038 0 0-6.793 3.174-13.843.573 0 0-.015.018.002.034-.443 3.682.716 6.777 1.52 7.775z" fill="#3F4261" fill-rule="nonzero"/><path d="M325.47 230.775c2.438 3.227 8.246 5.285 8.246 5.285s-4.333 1.823-21.17-3.147c0 0 10.838-4.898 12.924-2.138z" fill="#F1AD92"/><path d="M314.514 241.075c1.418.048 1.754-4.028 2.662-3.71 12.162 4.208 21.878 4.685 22.828 3.835.214-.197.3-.42.277-.655-6.61.894-12.455-1.283-18.657-3.03-4.708-1.323-5.026-2.417-6.786 2.39-.102.16-.45 1.16-.324 1.17z" fill="#2A2B3B" fill-rule="nonzero"/><path d="M327.416 180.943c-4.125-15.458-7.7-30.794-9.824-46.663-1.07-8.044-1.935-16.103-2.85-24.15-.33-2.914-.503-6.013-1.117-8.973-.567-2.834-1.512-5.526-3.322-7.84-6.99-8.88-19.05-7.602-27.488-1.872-.456-.236-1.039-.189-1.37.394-5.1 8.973-4.329 19.033-2.534 28.857 2.22 12.105 4.819 24.228 7.935 36.146 2.943 11.303 7.432 22.245 9.556 33.737 2.314 12.469 4.707 39.468 5.163 38.634 8.06.016 15.317-.614 21.254-1.888 4.233-.883 7.808-2.11 10.547-3.638.978-14.578-2.218-28.747-5.95-42.744z" fill="#3F4261" fill-rule="nonzero"/><path d="M333.368 223.687c-2.74 1.527-6.315 2.755-10.548 3.638-1.165-9.982-5.51-43.813-12.311-59.808-8.029-18.891-2.094-66.862-2.094-66.862l5.213.504c.614 2.96.787 6.06 1.117 8.973.914 8.045 1.78 16.104 2.85 24.15 2.125 15.87 5.699 31.203 9.824 46.663 3.73 13.995 6.925 28.164 5.949 42.742z" fill="#343751" fill-rule="nonzero"/><path d="M319.335 101.732s-17.458-60.207-31.665-64.794c-11.605-3.749-21.716.395-22.725 12.404-.932 11.086-2.226 27.602-3.915 33.236-1.69 5.633-6.844 16.055-6.844 16.055s37.826 10.986 65.149 3.099z" fill="#E0565F"/><path d="M270.342 29.833s1.9 5.703 2.113 7.112c.064.43.946 1.767 1.692 2.274 2.632-1.886 4.81-1.442 5.636-2.274-.639-1.76-2.048-4.014-2.68-7.112-.634-3.098-6.761 0-6.761 0z" fill="#F1AD92"/><path d="M279.357 24.622s-2.606 8.237-7.959 7.675c-5.352-.562-.423-11.76.422-11.972.846-.21 6.197-.63 7.537 4.297z" fill="#F1AD92"/><path d="M275.222 17.637c-3.356-.668-7.404.04-7.91 3.724-.057.42.094.849.549.969 2.686.703 5.36.791 8.078.33.031.461.08.926.165 1.397.195 1.073.353 2.857 1.252 3.632 1.81 1.55 3.532-1.113 3.842-2.644.807-3.958-2.402-7.246-5.976-7.408z" fill="#32344E" fill-rule="nonzero"/><path fill="#F2F8FF" fill-rule="nonzero" d="M274.147 39.219l1.121-3.774h3.88l3.837.487zM274.147 39.219l-1.398-3.774-1.486 2.377z"/><path d="M286.551 40.788s-5.617 18.82-6.768 36.676c-1.15 17.855-17.572 23.139-17.572 23.139s30.146 8.473 57.122 1.129c.002 0-11.779-49.522-32.782-60.944z" fill="#CE444D"/><path d="M314.517 85.515l-3.814-11.872-26.509-26.378s18.919 29.764 30.323 38.25z" fill="#2A2B3C" fill-rule="nonzero"/><g><path d="M358.026 45.858c.046-.037.096-.062.139-.101.642-.583-.394-1.828-1.038-1.244-.044.041-.099.06-.146.098-.005-.455-.467-1.044-1.267-.694-.23.099-3.49 1.566-6.534 1.125.6-.362 1.608-.95 2.398-1.118.842-.176.646-1.522-.2-1.335-.132.032-1.22.3-1.357.383-3.786 1.189-7.358 3.706-10.198 6.503-.496.42-.981.86-1.44 1.342-.163.171-.16.474-.08.677.41 1.04 1.83 3.065 2.546 3.917a.681.681 0 00.255.18c-.27.656.663 1.292 1.14.645 1.272-1.732 4.033-4.516 4.06-4.536 3.79-.288 7.454-.628 10.94-2.2.704-.316.38-1.504-.261-1.471l-.02-.016c.012-.005.021-.013.032-.017.214-.074 1.134-.588 1.387-.786.491-.383.093-1.206-.356-1.352z" fill="#F1AD92"/><path d="M349.76 46.793c-.033 0-.066 0-.1-.002a.156.156 0 01-.155-.159c0-.086.07-.156.157-.156h.101c3.399 0 7.108-1.988 7.144-2.007a.16.16 0 01.214.063.157.157 0 01-.063.214c-.04.02-3.82 2.047-7.298 2.047zM350.337 48.532c-.099 0-.195-.003-.29-.009a.156.156 0 01-.147-.165c.005-.087.077-.17.165-.148 2.839.159 7.835-2.464 7.886-2.49.075-.047.171-.013.212.064a.156.156 0 01-.064.212c-.2.107-4.813 2.536-7.762 2.536zM350.525 49.918a.156.156 0 01-.158-.154.157.157 0 01.155-.161c2.17-.036 6.361-1.707 6.402-1.724a.158.158 0 01.117.293c-.173.07-4.289 1.708-6.515 1.744h-.001v.002z" fill="#2A2B3C" fill-rule="nonzero"/></g><path d="M282.908 38.08c3.667-4.066 32.09 10.676 40.987 22.485 8.895 11.809.386 27.478-3.718 26.014-4.104-1.461-44.802-40.14-37.269-48.498z" fill="#E0565F"/><path d="M341.73 47.508c-11.476-4.308-22.858 13.78-28.44 19.81-5.583 6.029 5.265 19.549 7.989 19.192 2.722-.356 27.92-18.69 24.972-35.035 0 0-2.052-3.043-4.52-3.967z" fill="#E0565F"/><path d="M292.321 59.246s20.746 16.813 27.672 18.504c6.923 1.688 23.005-12.133 23.005-12.133s-1.848 4.71-11.357 13.526c-9.509 8.815-10.109 8.262-11.466 7.439-1.357-.825-13.295-9.06-27.854-27.336z" fill="#CE444D"/><g fill="#2A2B3C" fill-rule="nonzero"><path d="M333.566 50.858a.158.158 0 01-.122-.059.16.16 0 01.025-.222c2.708-2.14 9.194-1.94 9.474-1.931a.157.157 0 01.151.164.157.157 0 01-.157.15h-.007c-.061 0-6.648-.206-9.264 1.865a.16.16 0 01-.1.033zM337.852 53.233a.156.156 0 01-.1-.034.158.158 0 01-.022-.222c1.88-2.264 6.022-3.39 6.2-3.437.079-.013.17.027.192.112a.157.157 0 01-.112.192c-.04.01-4.22 1.147-6.036 3.331a.156.156 0 01-.122.058zM341.904 54.189a.155.155 0 01-.132-.072.156.156 0 01.047-.218c1.248-.803 2.665-3.556 2.68-3.583a.158.158 0 01.28.145c-.059.115-1.47 2.856-2.79 3.704a.17.17 0 01-.085.024zM342.23 59.754a.163.163 0 01-.076-.019.159.159 0 01-.063-.214c2.23-4.132 3.098-8.28 3.108-8.32.019-.085.102-.143.186-.121.085.017.14.099.12.185-.007.041-.885 4.232-3.137 8.407a.159.159 0 01-.138.082z"/></g><path d="M276.398 25.785s1.02-1.445 2.464-1.022c1.444.424 1.302 3.979-1.233 3.944-2.534-.035-1.23-2.922-1.23-2.922z" fill="#F1AD92"/><path d="M346.48 51.138a21.633 21.633 0 00-3.902-3.722c-.814-.606-1.6.76-.795 1.359a20.137 20.137 0 013.583 3.476c.637.789 1.746-.332 1.114-1.113z" fill="#2A2B3C" fill-rule="nonzero"/></g><g><g fill-rule="nonzero"><path d="M356.332 87.166c-.038-.05-.084-.091-.12-.146-.518-.788.935-1.81 1.456-1.02.035.055.092.09.13.141.133-.477.791-.968 1.544-.382.217.166 3.274 2.599 6.642 2.969-.537-.543-1.444-1.436-2.242-1.83-.845-.415-.255-1.774.59-1.344.133.068 1.214.647 1.339.773 3.7 2.284 11.407 9.326 11.758 9.956.126.227-2.747 5.171-3.534 4.79-2.758-1.34-3.599-4.112-5.576-4.812-3.957-1.34-8.91-2.453-12.18-5.057-.659-.526.021-1.684.693-1.475l.024-.011c-.01-.008-.017-.019-.017-.019-.217-.145-1.052-.937-1.268-1.214-.414-.532.241-1.287.76-1.319z" fill="#FFB3B3"/><path d="M365.022 90.483a.184.184 0 01-.05-.006c-3.753-.92-7.174-4.048-7.318-4.182a.212.212 0 11.288-.31c.033.032 3.486 3.188 7.13 4.08a.214.214 0 01.156.258.213.213 0 01-.206.16zM364.114 92.193a.15.15 0 01-.04-.005c-3.177-.62-7.693-4.691-7.884-4.866a.212.212 0 11.285-.313c.046.04 4.62 4.165 7.678 4.763a.21.21 0 01.167.248.21.21 0 01-.206.173zM363.221 93.531a.245.245 0 01-.057-.008c-2.366-.652-6.29-3.503-6.457-3.624a.21.21 0 01-.046-.296.21.21 0 01.296-.046c.04.03 4.03 2.925 6.322 3.557a.214.214 0 01.148.261.215.215 0 01-.206.156z" fill="#2A2B3C"/></g><path d="M362.878 84.516c2.427 1.09 5.176 3.524 7.133 5.323.808.74-2.65 1.142-2.97.683-.805-1.147-2.433-2.352-3.485-3.213-2.246-1.84-1.182-3.016-.678-2.793z" fill="#FFB3B3" fill-rule="nonzero"/><path d="M449.45 78.53c-17.369-6.56-34.376 16.23-43.085 28.178-8.71 11.947-2.695 20.737 3.415 19.345 19.17-4.364 50.195-43.547 39.67-47.522z" fill="#565B82" fill-rule="nonzero"/><path d="M376.085 90.21c13.185 2.691 29.694 11.572 39.34 16.567 7.299 3.779-4.773 19.674-7.506 19.386-2.733-.288-28.065-5.853-40.694-18.265.001.003 6.276-18.213 8.86-17.687z" fill="#565B82" fill-rule="nonzero"/><path d="M432.456 82.271s-8.668 17.412-16.24 34.204c-3.063 6.79-8.296 9.691-8.296 9.691s14.267-1.796 17.307-5.129c6.253-6.857 7.23-38.766 7.23-38.766z" fill="#17171D" fill-rule="nonzero"/><path d="M519.79 138.926c-4.502-14.515-9.65-31.124-22.134-40.853a31.58 31.58 0 00-2.253-1.622c-12.264-8.122-26.7-6.626-37.549 3.859-7.304 7.067-11.634 16.387-17.537 24.51-6.172 8.502-14.106 15.02-23.346 19.727-16.908 7.588-37.454 26.826-34.477 59.334a38.622 38.622 0 001.557 7.84c3.353 11.036 11.713 21.473 24.858 24.967 18.42 4.896 29.424 3.355 48.331 3.292 16.216-.048 33.55-.724 46.962-10.958 11.32-8.613 18.357-21.978 21.094-35.77 3.626-18.18-.072-36.914-5.507-54.326z" fill="#E0565F"/><path d="M519.79 138.926c-4.502-14.515-9.65-31.124-22.134-40.853a31.58 31.58 0 00-2.253-1.622c-.078.458 0 .946.285 1.45 10.562 18.733 18.15 39.515 17.773 61.272-.33 18.782-7.32 47.984-27.897 54.17-10.861 3.246-23.048 4.41-34.241 5.684-10.392 1.18-21.002 2.283-31.487 1.86-10.044-.411-18.732-3.464-28.085-6.787-1.968-.709-4.975-2.063-7.7-2.378 3.353 11.036 11.713 21.474 24.858 24.967 18.42 4.897 29.424 3.355 48.331 3.292 16.216-.047 33.55-.724 46.962-10.957 11.32-8.613 18.357-21.979 21.094-35.77 3.626-18.182-.072-36.916-5.507-54.328z" fill="#CE444D"/><path d="M478.538 162.958s9.285-15.976 22.273-22.086c0 0-20.466 9.633-29.125 24.59l6.852-2.504z" fill="#17171D" fill-rule="nonzero"/><g fill-rule="nonzero"><path d="M364.76 238.83c.948-1.706 1.411-3.139 1.433-6.03.013-.03.005-.05.005-.05.008-2.248.735-7.932.827-10.122-2.87-2.025-7.833.765-12.04.44-.404 2.976-1.022 5.978-2 7.387-.153.23-.332.446-.543.65-2.741 2.754-9.004 3.215-11.997 4.71-.821.374-1.39.84-1.593 1.429-1.072 2.992 23.594 5.673 25.907 1.586z" fill="#FFB3B3"/><path d="M339.043 236.924a.86.86 0 00-.169.323c-1.218 3.181 23.987 6.026 26.208 2.073l.017-.014c.16-.197.29-.427.403-.674.99-2.065.732-5.376.69-5.844.017-.014.001-.033.001-.033-7.218 2.036-13.742-1.66-13.742-1.66-2.407 2.419-7.508 3.083-10.74 4.193-1.275.353-2.245.885-2.668 1.636z" fill="#4093F6"/><path d="M339.043 236.924a.86.86 0 00-.169.323c-1.218 3.181 23.987 6.026 26.208 2.073l.017-.014c.16-.197.29-.427.403-.674-1.514.587-4.589 1.502-8.925 1.362-5.612-.173-11.476-.608-17.534-3.07z" fill="#2A2B3B"/></g><path d="M394.962 171.055c.906.028 33.873 5.516 46.176 4.959 9.967-.446 23.898.417 27.478-7.669 5.56-12.61 2.096-19.203-8.153-23.155-5.452-2.098-12.687-5.777-18.374-5.203-8.05.827-69.244 4.974-75.066 16.904-5.18 10.622 17.157 13.811 27.94 14.164z" fill="#4093F6" fill-rule="nonzero"/><path d="M368.896 154.348c-6.683 6.053-19.028 47.267-19.028 67.537 8.602 3.225 20.774 4.038 24.134 3.452.047.957 5.529-24.292 11.026-36.174 3.74-8.083 8.393-2.955 14.456-9.467a186.037 186.037 0 005.795-6.432c5.475-6.433-28.527-26.03-36.383-18.916z" fill="#4093F6" fill-rule="nonzero"/><path d="M420.927 145.293s-35.006 4.1-40.61 15.334c-6.383 12.79 0 42.353 0 42.353l7.426-35.016 33.184-22.671z" fill="#17171D" fill-rule="nonzero"/><path d="M478.615 149.11c-.772-2.865-2.266-5.195-4.44-7.084-1.731-1.541-3.92-2.8-6.517-3.84-5.573-2.235-9.855 1.716-15.509 2.692-7.319 1.276-59.131 5.871-67.867 21.488-.016 0-.016.016-.016.016-.015.047-.047.08-.063.126-.143.285-.267.567-.41.867-.032.046-.046.095-.08.158a8.948 8.948 0 00-.69 3.463c0 4.487 4.973 8.14 15.365 10.029 3.605.66 7.872 1.1 12.8 1.29 10.122.41 23.079-.251 39.026-2.3 9.887-1.275 23.883-.69 26.984-10.546 2.141-6.85 2.55-12.17 1.417-16.359z" fill="#4093F6" fill-rule="nonzero"/><path d="M409.684 161.185c-8.594-2.396-26.408 3.694-26.424 3.763-3.008 15.592-3.705 47.856-2.112 60.482 2.659-.34 5.708-.683 9.025-.932 7.118-.573 15.383-.724 23.278.47-.074-4.792-3.624-19.074-2.187-30.396.479-3.908 2.708-17.031 3.253-24.859.126-1.917.25-3.33.356-3.877.453-2.23-1.762-3.71-5.19-4.65z" fill="#4093F6" fill-rule="nonzero"/><path d="M478.615 149.11c-.772-2.865-2.266-5.195-4.44-7.084-1.322.047-2.629.44-3.855 1.214a.646.646 0 00-.268.283c-.426.126-.804.614-.567 1.148 3.637 8.627-7.682 12.234-13.649 13.981-6.266 1.842-12.531 3.653-18.86 5.227-6.28 1.557-12.6 3.305-19.065 3.745-10.71.732-12.63 5.643-14.122 14.988-.958 6.028-9.118 39.757-9.81 41.348 6.517.107 12.84.144 19.475 1.009 1.118-4.659-1.256-11.383-1.017-22.795.143-6.813.025-16.297 2.497-23.744 10.123.411 19.334-.365 35.282-2.413 9.887-1.275 23.882-.691 26.984-10.546 2.14-6.852 2.548-12.173 1.415-16.36z" fill="#2483E2" fill-rule="nonzero"/><path d="M393.975 224.241l-.033-.003a.282.282 0 01-.249-.313c.044-.39 4.547-39.194 6.619-49.783 1.664-8.498 8.762-9.151 24.318-10.58 2.834-.262 6.047-.558 9.522-.931 21.536-2.315 28.885-21.276 28.958-21.468a.28.28 0 01.365-.165.282.282 0 01.165.365c-.072.194-7.536 19.48-29.427 21.833-3.48.373-6.696.669-9.532.93-15.263 1.403-22.231 2.044-23.813 10.123-2.068 10.568-6.567 49.35-6.613 49.74a.281.281 0 01-.28.252z" fill="#2A2B3C" fill-rule="nonzero"/><path d="M478.517 144.293s-.033-57.596-16.432-67.084c-10.556-6.109-26.849-.736-30.485 7.282-7.094 15.638-19.101 57.455-19.101 57.455s38.695 10.233 66.018 2.347z" fill="#565B82" fill-rule="nonzero"/><path d="M443.845 67.418s.189 6.266.4 7.675c.064.43.947 1.766 1.693 2.273 2.631-1.886 4.808-1.444 5.635-2.273-.638-1.76-.97-4.334-.97-7.675 0-3.165-6.758 0-6.758 0z" fill="#FFB3B3" fill-rule="nonzero"/><path d="M451.46 62.333s-1.466 8.515-6.846 8.682c-5.379.167-2.01-11.593-1.202-11.916.809-.326 6.055-1.47 8.048 3.234z" fill="#FFB3B3" fill-rule="nonzero"/><path fill="#F2F8FF" fill-rule="nonzero" d="M445.938 77.366l1.12-3.772 4.19.433 3.527.737zM445.938 77.366l-1.397-3.772-1.735 2.13z"/><path d="M441.017 58.2c1.208 4.14 4.608 3.067 8.069 2.456-.172.968-.034 2.039.198 3.062a.778.778 0 00-.109.3 43.647 43.647 0 00-.41 3.869c-.032.496.35.968.886.886 4.085-.631 5.566-5.618 4.724-9.24-.374-1.616-1.316-2.717-2.845-3.299-1.705-.649-3.474-.348-5.329-.663-2.33-.395-6.331-1.311-5.184 2.63z" fill="#424876" fill-rule="nonzero"/><path d="M448.686 63.885s.817-1.57 2.304-1.346c1.487.225 1.83 3.767-.688 4.074-2.515.309-1.616-2.728-1.616-2.728z" fill="#FFB3B3" fill-rule="nonzero"/><path d="M413.456 224.96c.543-1.317-31.142-1.507-32.307.464-1.582 2.682 30.725 3.38 32.307-.465z" fill="#17171D" fill-rule="nonzero"/><g fill-rule="nonzero"><path d="M403.413 237.022c.517-1.883.627-3.384-.036-6.198.005-.034-.01-.05-.01-.05-.525-2.186-1.168-4.557-1.599-6.704-4.32-.207-8.555-.041-11.571.061.313 2.985.404 5.948-.21 7.549-.092.26-.217.513-.373.76-2.008 3.325-7.981 5.26-10.535 7.425-.708.557-1.15 1.144-1.207 1.765-.331 3.162 24.266-.089 25.541-4.608z" fill="#FFB3B3"/><path d="M377.979 241.275a.909.909 0 00-.087.355c-.428 3.38 24.732.162 25.951-4.205l.013-.02c.107-.23.179-.481.231-.749.472-2.241-.564-5.398-.718-5.84.013-.02-.006-.033-.006-.033-6.529 3.691-13.744 1.648-13.744 1.648-1.763 2.922-6.562 4.778-9.438 6.623-1.154.644-1.965 1.39-2.202 2.221z" fill="#4093F6"/><path d="M377.979 241.275a.909.909 0 00-.087.355c-.428 3.38 24.732.162 25.951-4.205l.013-.02c.107-.23.179-.481.231-.749-1.332.93-4.101 2.548-8.347 3.442-5.491 1.16-11.29 2.131-17.761 1.177z" fill="#2A2B3B"/></g><path d="M496.287 162.06c-26.663-.475-45.065 8.911-57.266 25.64-1.18.091 1.686 20.065 20.139 20.013 19.568-.054 33.946 1.988 39.094-18.703 1.882-7.562 4.788-26.828-1.967-26.95z" fill="#E0565F"/><path d="M439.021 187.7s22.94-25.938 57.266-25.64c0 0-33.204-6.13-57.266 25.64z" fill="#17171D" fill-rule="nonzero"/><path d="M460.317 78.28s-9.96 5.958-8.857 29.609c.72 15.434-29.846 36.058-29.846 36.058s23.199 8.381 56.903.346l-1.327-36.768-16.873-29.244z" fill="#3F4261" fill-rule="nonzero"/><path d="M457.094 83.015l10.847 39.559-32.747 12.289s22.555-16.269 22.687-18.237c.13-1.968-10.455-22.897-.787-33.611z" fill="#17171D" fill-rule="nonzero"/><g fill-rule="nonzero"><path d="M425.132 156.796c.273 1.057 1.532 1.864 2.045.8l.02-.036c.127 1.147 1.519 2.149 2.085 1.026 1.175-2.317 2.371-4.834 4.69-5.836 1.929-.831 4.444-.197 6.552-.105 1.806.077 3.388-.029 5.092-.386 6.155-1.297 12.223-3.221 18.008-5.553.611-.247.833-1.36.265-2.054-2.716-3.304-5.428-6.607-8.143-9.912-.442-.537-.961-.614-1.364-.438a.868.868 0 00-.473.188c-5.56 4.432-13.029 6.993-20.108 7.678-5.045.486-9.023 2.226-12.461 6.146-.954 1.09.639 3.369 1.604 2.268 1.902-2.169 3.96-3.364 6.138-4.146.01.082 0 .159.016.24-2.536 2.126-4.422 4.78-5.814 8.148-.56 1.354 1.154 3.02 1.848 1.972z" fill="#FFB3B3"/><path d="M426.24 149.953a.308.308 0 01-.277-.449c.486-.963 2.833-2.977 2.932-3.06a.308.308 0 01.436.033.308.308 0 01-.033.436c-.653.557-2.426 2.161-2.782 2.867a.302.302 0 01-.275.173zM425.132 157.108a.31.31 0 01-.288-.423c.084-.215 2.078-5.273 5.972-8.43a.311.311 0 01.436.046.311.311 0 01-.046.436c-3.767 3.051-5.763 8.12-5.784 8.17a.31.31 0 01-.29.201zM427.2 157.868a.292.292 0 01-.13-.03.309.309 0 01-.152-.41c.099-.216 2.446-5.298 5.294-6.891.15-.08.339-.03.422.12a.309.309 0 01-.12.421c-2.671 1.494-5.01 6.557-5.033 6.608a.312.312 0 01-.282.182z" fill="#2A2B3C"/></g><path d="M460.317 78.28c-12.483 13.744-1.54 38.097 6.374 50.588 7.914 12.489 23.42 1.017 23.498-3.34.079-4.355-22.308-55.579-29.872-47.247z" fill="#565B82" fill-rule="nonzero"/><path d="M434.032 135.778c10.412-8.522 34.913-19.087 43.098-19.813 8.187-.726 12.237 16.129 10.29 18.065-1.947 1.937-27.475 19.918-45.074 21.87 0-.001-10.354-18.454-8.314-20.122z" fill="#565B82" fill-rule="nonzero"/><path d="M467.741 81.03s21.496 28.847 22.642 44.557c1.148 15.709-35.967 25.964-38.923 28.213 0 0 35.281-19.803 33.806-27.889-1.478-8.084-17.525-44.882-17.525-44.882z" fill="#3F4261" fill-rule="nonzero"/></g></g></g></svg>