<?xml version="1.0" encoding="UTF-8"?>
<svg width="592px" height="312px" viewBox="0 0 592 312" version="1.1" xmlns="http://www.w3.org/2000/svg" xmlns:xlink="http://www.w3.org/1999/xlink">
    <!-- Generator: sketchtool 56.3 (101010) - https://sketch.com -->
    <title>2BD13CC1-FC29-46A2-BF03-57BA7E9C10B6</title>
    <desc>Created with sketchtool.</desc>
    <g id="Final" stroke="none" stroke-width="1" fill="none" fill-rule="evenodd">
        <g id="Jobseeker_Web_Bigshyft" transform="translate(-727.000000, -273.000000)">
            <g id="Group-137" transform="translate(727.000000, 274.000000)">
                <path d="M216,130 L216,144.034281 L206,144.034281 L203,134 L211,132 L216,130 Z M192.703283,129 C192.901094,128.333333 192.901094,126 192.703283,122 L202,122 L202,124 C195.604378,128 192.505472,129.666667 192.703283,129 Z" id="Shape" stroke="#202125" stroke-width="0.6" fill="#FFFFFF"></path>
                <rect id="Rectangle" stroke="#202125" stroke-width="0.6" fill="#FFFFFF" x="203.035811" y="143.644464" width="31.7" height="3.170247"></rect>
                <polyline id="Path" stroke="#202125" stroke-width="0.6" fill="#FFF5E4" points="120 107 120 49 289 49 289 123.102514 221 123.102514 159 123.102514"></polyline>
                <path d="M483.054066,137.741656 C479.699346,139.564216 476.344147,141.387256 472.493107,143.479095 C473.236147,138.948376 473.902387,134.923576 474.554707,130.896856 C475.011187,128.078776 475.241107,125.201657 475.975507,122.458937 C476.395027,120.893657 475.832467,120.165497 474.917587,119.188217 C470.222707,114.174137 465.588307,109.103417 461.185267,104.325978 C464.145907,103.890618 468.060787,103.307898 471.977107,102.740058 C474.744307,102.338778 477.507666,101.889498 480.286386,101.592858 C482.043186,101.405658 483.048786,100.662138 483.823026,98.9878981 C486.336786,93.5518984 489.067986,88.2166987 491.722386,82.8464591 C492.072306,82.1374991 492.461106,81.4477391 492.955506,80.5150992 C496.027025,86.7421388 499.081265,92.7104585 501.902225,98.7867781 C502.757105,100.628058 503.884625,101.351418 505.804145,101.600538 C512.364784,102.453018 518.906704,103.453338 525.509104,104.405178 C525.575344,105.293658 524.922544,105.597498 524.512144,105.999738 C520.169584,110.253497 515.868304,114.552377 511.419664,118.692857 C509.696945,120.296057 508.956785,121.870937 510.002225,124.087577 C510.161105,124.424537 510.076625,124.875737 510.104465,125.273657 C510.530704,127.663576 510.956944,130.053976 511.383184,132.444856 C510.711184,132.980056 509.920625,132.932536 509.121905,132.964696 C503.151665,133.205176 497.926385,131.323576 493.235346,127.667416 C492.271986,126.916696 490.837746,125.417657 489.770706,126.616216 C488.935506,127.553656 490.091346,129.116536 491.062386,130.058296 C491.765106,130.739896 492.700626,131.614456 492.435186,132.366136 C492.100146,133.313656 490.723986,133.285816 489.737586,133.401496 C488.964306,133.491736 488.143026,133.405816 487.372146,133.251736 C485.363826,132.849016 483.375186,132.351736 481.371666,131.921176 C480.595506,131.754136 479.753106,131.018296 479.093586,132.208696 C478.497426,133.284376 478.767186,134.206936 479.446866,135.075736 C480.399186,136.292536 481.882866,136.810456 483.054066,137.741656" id="Fill-1" fill="#F9A719"></path>
                <path d="M483.054066,137.741656 C481.882866,136.810456 480.399186,136.292536 479.446866,135.075736 C478.767186,134.206936 478.497426,133.284376 479.093586,132.208696 C479.753106,131.018296 480.595506,131.754136 481.371666,131.921176 C483.375186,132.351736 485.363826,132.849016 487.372146,133.251736 C488.143026,133.405816 488.964306,133.491736 489.737586,133.401496 C490.723986,133.285816 492.100146,133.313656 492.435186,132.366136 C492.700626,131.614456 491.765106,130.739896 491.062386,130.058296 C490.091346,129.116536 488.935506,127.553656 489.770706,126.616216 C490.837746,125.417657 492.271986,126.916696 493.235346,127.667416 C497.926385,131.323576 503.151665,133.205176 509.121905,132.964696 C509.920625,132.932536 510.711184,132.980056 511.383184,132.444856 C512.701744,132.558136 514.004944,132.539416 515.306704,132.218296 C518.298064,131.481016 521.299504,130.785496 524.296144,130.072216 C524.929744,134.406616 525.563824,138.740536 526.196944,143.074935 C521.732464,142.884375 517.435024,141.542296 512.998864,141.157816 C511.287664,140.484376 509.490065,140.291416 507.674225,140.197816 C503.969105,139.531576 500.284145,139.621816 496.536785,140.053336 C491.874066,140.590936 487.394226,139.420696 483.054066,137.741656 Z" id="Stroke-3" stroke="#1F2024" stroke-width="0.599999964"></path>
                <path d="M528.635295,121.887113 C528.987615,123.815273 529.340895,125.742473 529.693695,127.670152 C528.278655,129.334312 525.910816,128.857192 524.296096,130.072552 C521.299456,130.785352 518.298016,131.480872 515.306656,132.218152 C514.005376,132.539272 512.701696,132.557992 511.383136,132.444712 C510.956896,130.054312 510.530656,127.663432 510.104897,125.273993 C515.997856,125.211593 521.585056,123.476393 527.246656,122.143913 C527.704575,122.036873 528.172095,121.972073 528.635295,121.887113 Z" id="Stroke-5" stroke="#1F2024" stroke-width="0.599999964"></path>
                <path d="M185.667828,288.802399 C185.451828,292.115839 183.962388,293.839518 182.911188,296.890398 C181.415988,301.229118 179.725428,305.500158 178.118388,309.799998 C177.625428,309.808638 177.131988,309.817278 176.639028,309.826878 C175.877268,309.453918 175.114548,309.456318 174.351829,309.826398 C168.712789,309.816798 163.073269,309.807678 157.43423,309.798558 C156.98543,309.730398 156.53615,309.661278 156.08687,309.592158 C155.81999,308.664318 156.36527,307.900638 156.63743,307.099998 C157.87439,303.452478 159.159829,299.822238 160.427989,296.185758 C161.634229,293.386879 162.842389,290.588479 163.353589,287.553439 C163.655029,286.918879 163.956949,286.283839 164.258389,285.649279 C170.795989,285.643039 175.792308,285.571999 182.329908,285.565279 C182.712948,286.485919 185.039508,288.116959 185.667828,288.802399 Z" id="Stroke-7" stroke="#1F2024" stroke-width="0.599999964"></path>
                <path d="M377.44236,146.864919 L380.94396,146.853879 C386.83548,146.844279 392.72796,146.835159 398.619959,146.826039 C406.914839,146.837559 415.210198,146.850039 423.505558,146.861559 C428.062197,146.866839 432.619317,146.920119 437.174517,146.849559 C438.732117,146.825079 439.493397,147.138519 439.451495,148.934679 C439.337397,153.488919 439.359957,158.047959 439.441077,162.603158 C439.468917,164.154998 438.989397,164.730038 437.398677,164.675798 C434.524437,164.578838 431.643957,164.662838 428.766357,164.670998 C428.206677,164.662358 427.646997,164.646998 427.087317,164.646998 C349.517402,164.650358 271.947967,164.654678 194.378051,164.661878 C193.819811,164.661878 193.261571,164.706518 192.703331,164.730038 C191.102532,164.037398 189.501252,163.345718 187.899972,162.653558 C188.549412,162.374678 189.189732,161.875958 189.848292,161.850998 C195.141731,161.648438 199.393091,159.231639 203.384291,155.965719 C206.958371,153.041079 207.746051,151.264599 206.618051,146.882679 C215.66317,146.859639 224.70877,146.837079 233.753409,146.814999 C243.619328,146.825559 253.485248,146.836599 263.351647,146.847639 C301.381565,146.853879 339.411963,146.859159 377.44236,146.864919 Z" id="Stroke-9" stroke="#1F2024" stroke-width="0.599999964"></path>
                <path d="M87.4970817,146.884599 C88.8689216,151.536279 89.4012416,156.361239 90.4078015,161.088758 C90.6554815,162.251318 90.7428415,163.447958 90.9041215,164.629238 C76.7004424,164.636438 62.4967632,164.638358 48.293084,164.653718 C34.5689249,164.667638 20.8452457,164.694998 7.1206065,164.717078 C5.24764661,164.378198 2.79196676,165.522038 1.59772683,164.175158 C0.361726906,162.781718 1.24204685,160.346198 1.19308686,158.370039 C1.11868686,155.332119 1.28860685,152.285079 1.13212686,149.253879 C1.03132687,147.307959 1.72300682,146.836599 3.58492671,146.843249 C20.7026857,146.906679 37.8204447,146.879319 54.9382037,146.878359 C65.791003,146.880279 76.6442824,146.882199 87.4970817,146.884599 Z" id="Stroke-11" stroke="#1F2024" stroke-width="0.599999964"></path>
                <path d="M192.703283,164.729894 C193.261523,164.706374 193.819763,164.661734 194.378003,164.661734 C271.947919,164.654534 349.517354,164.650214 427.087269,164.646854 C427.646949,164.646854 428.206629,164.662214 428.766309,164.670854 C428.880549,170.387174 428.880549,170.386694 423.18727,170.387654 C416.87719,170.388614 410.56807,170.390534 404.258951,170.391974 C401.761511,170.392934 399.264071,170.394374 396.766631,170.395334 C333.581835,170.392934 270.396559,170.390054 207.211763,170.390054 C206.572403,170.390054 205.933043,170.427014 205.293683,170.446694 C200.932403,168.904454 196.900883,166.633574 192.703283,164.729894 Z" id="Stroke-13" stroke="#1F2024" stroke-width="0.599999964"></path>
                <path d="M225.810657,181.513045 L225.810657,181.513045 C219.666178,177.327925 213.025378,174.086486 206.200739,171.194006 C205.898819,170.944406 205.596419,170.696246 205.294019,170.446646 C200.932259,168.904406 196.900739,166.633526 192.703619,164.729846 C191.10234,164.038166 189.50106,163.345526 187.90026,162.653366 C185.5449,162.377846 183.60282,163.600406 181.57386,164.445686 C176.00922,166.763606 171.133381,170.591126 165.136741,171.968246 C163.360741,172.376246 161.578981,172.753526 159.799621,173.144726 C159.854341,173.509046 159.909541,173.873366 159.964261,174.237206 C160.330981,176.107286 160.658821,177.985525 161.070661,179.845525 C162.099301,184.488565 162.550981,189.249205 163.924741,193.821204 C167.120581,194.087604 170.254021,194.728884 173.380741,195.407604 C178.38426,195.786324 183.2073,196.961844 187.89978,198.710484 C187.75674,197.845524 187.8561,197.089524 188.09706,196.400244 C187.8561,197.089524 187.75674,197.845044 187.89978,198.710484 C194.908259,199.980564 198.248099,205.767924 196.912259,213.416723 C196.030979,218.465843 193.852259,223.070003 192.684899,227.996242 C190.90074,231.389842 190.62522,235.153522 190.36554,238.834642 C190.07562,242.952082 190.23546,247.088241 191.1393,251.191761 C191.793539,254.164401 190.83162,256.998321 189.56586,259.744401 C187.56282,264.09176 184.7217,268.01432 183.15546,272.58056 C182.08506,275.70056 181.41114,278.874799 181.65642,282.186319 C181.7961,284.073199 181.63386,285.592399 179.0961,285.164719 C178.84266,285.122479 178.53546,285.405679 178.25322,285.538159 L178.33386,285.648559 C184.87098,285.642799 191.40858,285.636559 197.946179,285.630319 C198.913859,285.634159 199.881059,285.637999 200.849699,285.641839 C207.244259,285.616399 213.638818,285.590959 220.032898,285.565039 C220.670818,281.225359 221.329378,276.888559 221.942338,272.54552 C224.595778,253.751121 227.268417,234.959602 229.862337,216.157043 C230.843937,209.042964 231.777057,201.902964 231.902817,194.720724 C231.995457,189.464245 230.589057,184.645045 225.810657,181.513045" id="Fill-15" fill="#1F2024"></path>
                <path d="M7.1205105,164.71727 C20.8451497,164.69519 34.5693089,164.66735 48.292988,164.65343 C62.4966672,164.63855 76.7003464,164.63663 90.9040255,164.62895 C91.5102655,166.48703 91.9446654,168.37295 91.8645055,170.34623 C74.2830665,170.37023 56.7011475,170.39423 39.1197086,170.41823 C36.6961887,170.42063 34.2726689,170.42303 31.850109,170.42495 C24.3745895,170.41247 16.8981099,170.32607 9.42499037,170.43791 C7.49155048,170.46719 6.90307052,169.88735 7.1200305,168.05375 C7.25011049,166.95695 7.1291505,165.83039 7.1205105,164.71727 Z" id="Stroke-17" stroke="#1F2024" stroke-width="0.599999964"></path>
                <path d="M156.48719,265.440848 C156.51887,256.167249 156.54335,246.893169 156.59039,237.61957 C156.60095,235.44085 155.14079,233.98789 154.10063,232.32133 C153.99935,232.28917 153.89711,232.26085 153.79343,232.23733 C151.07711,231.88501 148.35983,231.42613 145.65791,232.33141 C145.51487,232.48645 145.37135,232.64053 145.22783,232.79509 C143.77967,234.04837 142.84703,235.58533 142.84943,237.53797 C142.86095,246.681489 142.90271,255.825009 142.93343,264.968528 L142.93343,269.777648 C142.92623,270.639248 142.92911,271.176368 142.92623,272.132528 C142.86671,276.457328 142.80719,280.782607 142.74767,285.107887 C147.39743,285.109807 152.04623,285.111247 156.69551,285.113647 C156.62591,278.555887 156.55679,271.998128 156.48719,265.440848" id="Stroke-19" stroke="#1F2024" stroke-width="0.599999964"></path>
                <path d="M217.99189,113.715401 C220.00261,116.055401 221.29957,118.663721 221.04469,121.853801 C221.18533,126.16084 218.85925,128.81764 215.20309,130.585 C214.89157,130.7338 214.57957,130.88308 214.26757,131.03188 C210.66229,132.32932 206.655251,132.32404 203.295251,134.41732 C202.496051,131.22388 201.697331,128.02996 200.898611,124.836521 C201.476531,123.857321 202.054451,122.878601 202.632851,121.899881 C202.650611,121.748201 202.668371,121.597481 202.686131,121.445801 C203.061971,120.865481 203.438291,120.284681 203.814131,119.704361 C204.920051,118.318121 206.793971,116.073641 207.899891,114.687401 C207.899891,115.634921 207.945491,117.241961 207.947891,118.039241 C208.372691,119.403401 208.72261,120.918761 210.54085,120.847721 C212.22997,120.781961 212.77429,119.261321 213.11413,117.836681 C213.61669,115.731881 213.31813,113.581961 213.36613,111.451241 C215.20981,111.589961 216.53029,112.797641 217.99189,113.715401 Z" id="Stroke-21" stroke="#1F2024" stroke-width="0.599999964" fill="#FFFFFF"></path>
                <path d="M25.1903494,207.404916 C25.0261894,208.016916 24.8217094,208.621716 24.7055495,209.243316 C23.3274695,216.606995 21.9393096,223.969235 20.5991497,231.339634 C18.8461898,240.979954 17.1335499,250.627473 15.40267,260.272112 C15.33115,260.551472 15.25963,260.830832 15.18715,261.110192 C15.15067,261.432752 15.11419,261.754832 15.07723,262.076912 C14.3586701,265.658672 13.6026701,269.233712 12.9277902,272.823632 C10.9573903,283.309711 8.34139043,297.41451 6.35275055,307.89675 C6.10795056,309.18891 6.42331054,309.62379 7.74187047,309.53739 C9.17227038,309.44379 10.6156303,309.46635 12.0484302,309.53499 C12.9810702,309.57867 13.4951501,309.37035 13.6693901,308.33547 C14.5007501,303.39483 16.09195,294.85515 16.9660299,289.921231 C17.8636299,285.306991 18.8020298,280.699951 19.6506698,276.076112 C22.0525896,262.983632 24.4170695,249.883953 26.7964293,236.786674 C26.7964293,236.786674 26.7935493,236.776594 26.7897093,236.762194 C26.8434693,236.566354 26.8977093,236.370514 26.9514693,236.174194 C27.0225093,235.614994 27.0940293,235.055794 27.1650693,234.496594 C27.2457093,234.257554 27.3263493,234.018034 27.4065093,233.778514 C28.5042692,227.931154 29.6183492,222.086195 30.6973891,216.234995 C33.5125889,200.964276 36.3129088,185.690677 39.1199486,170.418038 C36.6964287,170.420438 34.2729089,170.422358 31.849389,170.425238 C31.1538691,174.269558 30.4516291,178.113397 29.7623492,181.958677 C28.3698692,189.729877 26.9845893,197.502036 25.5969094,205.274196 C25.5239494,205.481076 25.4514694,205.688436 25.3789894,205.895796 L25.1903494,207.404916" id="Stroke-23" stroke="#1F2024" stroke-width="0.599999964"></path>
                <path d="M419.89471,57.2338046 C412.73455,51.2995649 405.581591,45.3566853 398.406071,39.4406856 C390.802392,33.171886 383.176632,26.9294864 375.560953,20.6760468 C373.076953,18.5803669 370.615033,16.457327 368.104633,14.3933271 C362.466073,9.75892742 356.304314,4.85764771 350.651354,0.240527986 C350.651354,3.14980781 350.244794,4.81876771 349.300634,7.51012755 C356.500634,13.4352472 364.495033,20.0146068 371.695033,25.9397265 C374.846233,28.6210063 377.976312,31.3282061 381.153432,33.978766 C390.396312,41.6880455 399.614711,49.4280451 408.936311,57.0413246 C412.00591,59.5488445 414.69343,62.5574843 418.27567,64.4198842 C418.39183,62.0386043 419.62351,60.4675644 421.79455,59.5786044 C421.62079,58.4251645 420.68239,57.8866045 419.89471,57.2338046 Z" id="Stroke-25" stroke="#1F2024" stroke-width="0.599999964" stroke-linejoin="round"></path>
                <path d="M130.705479,294.695982 C133.841319,295.588782 136.795719,298.450542 137.010279,300.803502 C137.383719,304.904622 135.907239,307.668462 132.525159,309.199182 C128.628999,310.962701 125.401959,309.759822 122.80756,305.823822 C120.7306,302.671662 122.23012,298.607982 124.797159,296.515662 C125.851239,295.656462 127.009959,294.954702 128.387559,294.716142 C129.159879,294.709422 129.933159,294.703182 130.705479,294.695982" id="Fill-27" fill="#F5F5F5"></path>
                <path d="M130.705479,294.695982 C133.841319,295.588782 136.795719,298.450542 137.010279,300.803502 C137.383719,304.904622 135.907239,307.668462 132.525159,309.199182 C128.628999,310.962701 125.401959,309.759822 122.80756,305.823822 C120.7306,302.671662 122.23012,298.607982 124.797159,296.515662 C125.851239,295.656462 127.009959,294.954702 128.387559,294.716142 C129.159879,294.709422 129.933159,294.703182 130.705479,294.695982 Z" id="Stroke-29" stroke="#1F2024" stroke-width="0.599999964"></path>
                <path d="M418.915942,66.1466361 C418.706662,67.076396 418.533382,68.0157559 418.282822,68.9339959 C416.210662,76.5175154 414.124582,84.097195 412.042822,91.6783145 C410.254342,96.4931942 409.041383,101.478954 407.719463,106.427754 C406.558823,110.774153 404.872583,114.985193 404.298023,119.484713 C406.455623,118.629353 408.412583,118.864553 410.103622,120.551273 C410.924902,117.821993 411.811462,115.110953 412.554502,112.360553 C414.288262,105.941994 416.402182,99.6266341 417.796582,93.1163944 C419.259142,88.0725548 420.779782,83.0440751 422.164582,77.9786354 C423.126022,74.4607156 424.550182,71.0594358 424.930342,67.389356 C422.601862,68.5413559 420.635782,67.937996 418.915942,66.1466361 Z" id="Stroke-31" stroke="#1F2024" stroke-width="0.599999964"></path>
                <path d="M128.387559,294.716142 C127.969479,292.137583 128.634279,289.779343 129.851079,287.533423 C131.274279,286.755343 132.697959,285.977263 134.121639,285.198703 C136.996839,285.168463 139.872519,285.138223 142.747718,285.107503 C147.396518,285.109423 152.045798,285.111343 156.695558,285.113743 C158.330917,285.117583 159.966277,285.120943 161.602117,285.124783 C162.454597,285.280303 163.363607,285.498993 164.159557,285.569743 C167.386519,285.856581 169.333333,286.666667 170,288 C171.94688,290.232 171.356197,292.186543 171.485317,294.558222 C170.625637,295.158702 169.737637,295.144782 168.828997,294.681102 C168.837637,289.623823 166.814917,287.577103 161.762437,287.571343 C153.869318,287.563183 145.975718,287.566063 138.082599,287.570383 C132.856839,287.573263 130.877799,289.489903 130.705479,294.695982 C129.933159,294.703182 129.159879,294.709422 128.387559,294.716142 Z" id="Fill-33" fill="#1F2024"></path>
                <path d="M429.641445,308.181918 C429.462405,307.574238 429.431205,306.924318 429.315045,306.295998 C425.707846,286.762399 421.402246,263.61104 417.768646,244.081281 C416.382886,236.634082 414.903526,229.205122 413.467366,221.767523 C412.429606,214.849283 411.161926,207.972804 409.646567,201.142884 C409.249607,198.714564 408.878567,196.281924 408.449927,193.859364 C407.064167,186.034405 405.656807,178.213765 404.259047,170.392166 C401.761607,170.392166 399.264167,170.394086 396.766727,170.395046 C398.875847,181.593925 400.985447,192.792325 403.094567,203.991204 C404.312327,210.396323 405.530087,216.802403 406.747367,223.207523 C406.773767,223.685123 406.748327,224.171843 406.833767,224.637923 C411.528166,250.055841 416.925286,279.090079 421.660486,304.499838 C422.619046,309.645438 422.707366,309.629118 427.981605,309.522078 C428.141445,309.518718 428.303205,309.507198 428.461125,309.523998 C429.492165,309.634878 429.974085,309.311838 429.641445,308.181918 Z" id="Stroke-35" stroke="#1F2024" stroke-width="0.599999964"></path>
                <path d="M145.217078,217.430531 C145.236278,222.394211 145.254998,227.35789 145.274678,232.32061 C145.402358,232.31917 145.530518,232.32253 145.658198,232.33117 C148.360118,231.42589 151.076918,231.88477 153.793718,232.23805 C153.896918,232.26061 153.999638,232.28893 154.100918,232.32109 C154.132118,228.02989 154.239158,223.737731 154.156598,219.448451 C154.125878,217.844771 154.452758,217.157891 156.207158,217.306211 C158.102198,217.466531 160.025557,217.422371 161.928277,217.321571 C165.387637,217.137731 167.370997,215.163011 167.783317,211.650851 C155.737238,211.679171 143.691158,211.707491 131.645559,211.735811 C132.100119,215.261411 134.026839,217.129571 137.588919,217.309091 C140.127159,217.437251 142.674038,217.395971 145.217078,217.430531" id="Stroke-37" stroke="#1F2024" stroke-width="0.599999964"></path>
                <path d="M117.422536,300.427422 C116.489896,297.257502 114.270856,295.623582 111.352456,294.629022 C110.515336,294.639582 109.678216,294.650622 108.841576,294.661662 C106.591817,295.349982 104.668937,296.491422 103.422857,298.571262 C101.746697,302.774622 102.726377,306.784062 105.888617,308.664222 C109.669096,310.911581 113.056456,310.254942 115.904296,306.722622 C117.392296,304.861662 118.152616,302.908062 117.422536,300.427422" id="Fill-39" fill="#F5F5F5"></path>
                <path d="M117.422536,300.427422 C116.489896,297.257502 114.270856,295.623582 111.352456,294.629022 C110.515336,294.639582 109.678216,294.650622 108.841576,294.661662 C106.591817,295.349982 104.668937,296.491422 103.422857,298.571262 C101.746697,302.774622 102.726377,306.784062 105.888617,308.664222 C109.669096,310.911581 113.056456,310.254942 115.904296,306.722622 C117.392296,304.861662 118.152616,302.908062 117.422536,300.427422 Z" id="Stroke-41" stroke="#1F2024" stroke-width="0.599999964"></path>
                <path d="M409.692359,139.789624 C407.564039,140.219704 405.435719,140.213944 403.305959,139.799224 C403.325159,135.139384 403.343879,130.480504 403.363079,125.821145 C405.364199,127.477144 407.442599,127.712824 409.617959,126.161464 L409.692359,139.789624 Z" id="Stroke-43" stroke="#1F2024" stroke-width="0.599999964"></path>
                <path d="M111.352696,294.628974 L108.841336,294.661134 C108.663736,291.407215 109.201816,288.438895 112.145176,286.439695 C113.288056,285.663535 114.529336,285.136495 115.930456,285.138887 C121.994296,285.148495 128.058135,285.177295 134.121975,285.198895 C132.698295,285.977455 131.274135,286.755535 129.850935,287.533615 C126.126615,287.536975 122.402296,287.538895 118.677496,287.542735 C113.482456,287.548495 111.482776,289.484335 111.352696,294.628974" id="Fill-45" fill="#1F2024"></path>
                <path d="M424.930486,67.389308 C422.601526,68.5417879 420.635926,67.938428 418.916086,66.1465881 C418.702006,65.5705881 418.488886,64.9941081 418.275766,64.4190682 C418.391926,62.0387483 419.623126,60.4677084 421.794646,59.5787484 C423.826966,59.6339484 425.600566,60.2411484 426.394006,62.2797083 C427.174485,64.2837082 426.486646,65.9915481 424.930486,67.389308" id="Fill-47" fill="#1F2024"></path>
                <path d="M409.617815,126.161656 C407.442935,127.712536 405.364535,127.476856 403.363415,125.821337 C401.879735,123.443897 402.289175,121.345817 404.298455,119.484377 C406.455575,118.629497 408.412535,118.864697 410.103574,120.551417 C411.076534,122.519897 410.998774,124.397177 409.617815,126.161656" id="Fill-49" fill="#1F2024"></path>
                <path d="M188.427348,309.826302 C189.190068,309.456222 189.952308,309.454302 190.714548,309.826782 C189.951828,310.064862 189.189588,310.064382 188.427348,309.826302" id="Fill-51" fill="#5B84C3"></path>
                <path d="M142.933286,269.777696 C143.410886,270.563936 143.433446,271.348736 142.926086,272.132576 C142.928486,271.347776 142.930886,270.562496 142.933286,269.777696" id="Fill-53" fill="#2B2C69"></path>
                <path d="M170.205637,310.039134 C170.139397,309.895134 170.124997,309.746334 170.162437,309.592254 C170.611717,309.661374 171.060517,309.730014 171.509797,309.798654 C171.074917,309.878814 170.640037,309.958974 170.205637,310.039134" id="Fill-55" fill="#5B84C3"></path>
                <path d="M15.403342,260.27192 C15.331342,260.55128 15.259342,260.83064 15.187342,261.11 C15.259342,260.83064 15.331342,260.55128 15.403342,260.27192" id="Fill-59" fill="#2B2C69"></path>
                <path d="M27.1652133,234.496786 C27.2458533,234.257746 27.3264933,234.018226 27.4071333,233.778706 C27.3264933,234.018226 27.2458533,234.257266 27.1652133,234.496786" id="Fill-61" fill="#28275F"></path>
                <path d="M145.274726,232.32085 C145.402886,232.31893 145.530086,232.32277 145.658246,232.33093 C145.514726,232.48645 145.371206,232.64101 145.227206,232.79557 C145.243526,232.63717 145.258886,232.47925 145.274726,232.32085" id="Fill-63" fill="#28275F"></path>
                <path d="M25.5967654,205.273956 C25.5242854,205.481316 25.4513254,205.688676 25.3788454,205.896036 C25.4513254,205.688676 25.5242854,205.481316 25.5967654,205.273956" id="Fill-65" fill="#28275F"></path>
                <path d="M26.7822213,236.789458 C26.8383813,236.584498 26.8950213,236.379538 26.9516613,236.174098 C26.8950213,236.379538 26.8383813,236.584498 26.7822213,236.789458" id="Fill-67" fill="#28275F"></path>
                <path d="M148.995638,99.84225 C145.810838,97.2905702 142.256438,95.4771303 138.290679,94.4854504 C139.339479,92.1113705 140.388279,89.7363307 141.437078,87.3622508 C143.534198,83.714731 143.408918,82.6630511 140.333559,79.9040112 C139.071159,78.7716913 138.342039,77.4195314 139.207959,75.9257715 C139.981719,74.5918516 141.405878,74.4008116 142.988438,74.7473715 C147.043958,75.6344115 149.081558,74.5932916 150.381398,70.7979318 C150.984758,69.0363319 151.837718,69.5307319 152.904278,70.0198518 C152.747318,70.7028918 152.449238,71.3883317 152.464118,72.0670517 C152.495318,73.5276916 152.070518,74.9000115 153.340598,76.3313715 L153.326678,76.3107315 C154.465718,78.0934513 154.879958,78.0224113 157.184438,77.2731314 L157.180118,77.2740914 C157.335638,77.1185714 157.491158,76.9630514 157.646678,76.8080114 L157.659638,76.7945714 C158.242357,75.8768115 158.291797,75.9756915 158.611957,75.3627315 L158.614837,75.3593715 C158.947477,74.6028916 159.284437,74.3043316 159.343477,73.6947316 C159.436117,72.7361717 160.086037,72.0377717 160.951477,71.8659317 C162.062197,71.6446517 161.879317,72.9752117 162.262357,73.4844916 C162.497077,73.7960116 162.730357,74.1089716 162.964597,74.4209716 C163.587157,75.4174515 163.484437,75.0521715 164.711797,75.6324915 C164.739637,76.6356914 163.585717,76.4739314 164.528917,78.0027314 C164.997877,78.7635313 164.499637,79.7192112 163.770517,80.0504112 C162.006997,80.8520112 161.433397,82.4921711 160.556917,83.971531 C158.890837,86.7833708 156.451958,88.6812907 153.209078,89.2236907 C151.743638,89.4689707 151.244918,90.2076906 150.888278,91.4691305 C150.108758,94.2296104 149.321558,96.9819302 148.995638,99.84225 Z" id="Stroke-69" stroke="#1F2024" stroke-width="0.599999964" fill="#FFFFFF"></path>
                <path d="M217.99189,113.469785 C216.53029,112.552025 215.20981,111.344345 213.36613,111.205625 C212.90869,108.940506 212.13061,108.639546 210.67957,108.644346 C208.96885,108.650586 208.040051,110.436185 207.994931,112.095065 C208.236371,113.281145 208.58293,113.922905 207.131411,115.300025 C206.025491,116.686265 204.920051,118.072505 203.814131,119.458265 C202.946771,118.238105 202.680851,116.861945 202.674611,115.390265 C202.665971,113.319545 202.591571,111.248825 202.545011,109.178105 C202.576691,107.576826 202.607411,105.975546 202.638611,104.373786 C202.762931,104.246106 202.888211,104.119386 203.013011,103.991706 L205.658291,104.014266 C209.08693,104.052666 212.51797,104.175546 215.94373,104.092506 C217.64341,104.051706 218.17093,104.636826 218.07733,106.290426 C217.94197,108.677466 218.01061,111.076505 217.99189,113.469785" id="Fill-71" fill="#FEFEFE"></path>
                <path d="M217.99189,113.469785 C216.53029,112.552025 215.20981,111.344345 213.36613,111.205625 C212.90869,108.940506 212.13061,108.639546 210.67957,108.644346 C208.96885,108.650586 208.040051,110.436185 207.994931,112.095065 C208.236371,113.281145 208.58293,113.922905 207.131411,115.300025 C206.025491,116.686265 204.920051,118.072505 203.814131,119.458265 C202.946771,118.238105 202.680851,116.861945 202.674611,115.390265 C202.665971,113.319545 202.591571,111.248825 202.545011,109.178105 C202.576691,107.576826 202.607411,105.975546 202.638611,104.373786 C202.762931,104.246106 202.888211,104.119386 203.013011,103.991706 L205.658291,104.014266 C209.08693,104.052666 212.51797,104.175546 215.94373,104.092506 C217.64341,104.051706 218.17093,104.636826 218.07733,106.290426 C217.94197,108.677466 218.01061,111.076505 217.99189,113.469785 Z" id="Stroke-73" stroke="#1F2024" stroke-width="0.599999964"></path>
                <path d="M203.013011,104.237274 C202.888211,104.364474 202.762931,104.491674 202.638611,104.618874 C202.397171,104.132634 202.765811,104.244954 203.013011,104.237274" id="Fill-75" fill="#28275F"></path>
                <path d="M206.618147,146.882727 L205.701347,143.504967 C204.899267,140.475688 204.097187,137.446888 203.295107,134.417128 C202.495907,131.223688 201.697187,128.030248 200.898467,124.836329 C200.075267,124.307849 199.622627,125.039369 199.059107,125.380169 C196.481507,126.937768 193.906787,128.500168 191.331108,130.060168 C184.328868,133.116328 177.348228,136.242088 169.611589,137.001448 C166.070149,136.965928 163.985029,134.836648 162.405829,131.98497 C160.660549,128.832808 159.636229,125.409449 158.631109,121.977929 C158.486149,121.721609 158.277829,121.482089 158.205349,121.207049 C156.20711,113.622089 154.54487,105.89553 148.99559,99.84225 C145.81079,97.2905702 142.25591,95.4771303 138.291111,94.4849704 C135.605991,97.7379302 133.994151,101.64993 131.737671,105.16593 C131.583111,105.60561 131.428071,106.04481 131.273991,106.48401 C132.708231,106.50753 134.141991,106.55025 135.576231,106.55217 C143.65607,106.56177 148.10423,110.397929 149.52455,118.299209 C151.56071,129.628648 153.73559,140.932648 155.86199,152.245287 C155.91959,152.551527 156.09623,152.834727 156.21719,153.129447 C157.26551,159.024807 158.312389,164.920646 159.362629,170.816006 C159.500869,171.592646 159.652069,172.367366 159.798469,173.144006 C161.578789,172.753286 163.361029,172.376006 165.136549,171.968486 C171.133189,170.591366 176.009028,166.763846 181.573668,164.445926 C183.603108,163.600166 185.545188,162.377606 187.900068,162.653126 C188.549028,162.374246 189.189348,161.876006 189.847908,161.851046 C195.142307,161.648486 199.392707,159.231687 203.384387,155.965767 C206.958467,153.041127 207.746147,151.264647 206.618147,146.882727 Z" id="Stroke-77" stroke="#1F2024" stroke-width="0.599999964" fill="#FFFFFF"></path>
                <path d="M178.252692,285.537535 C173.554933,285.555775 168.857173,285.597055 164.159893,285.569695 C163.305973,285.565375 162.454453,285.280255 161.601973,285.124735 C160.845493,279.659455 162.062773,274.548416 164.293813,269.588096 C165.601813,266.681216 166.888693,263.732576 168.721813,261.151136 C171.887893,256.691457 172.991413,251.839137 172.529173,246.478977 C171.988213,240.209218 173.802613,234.526498 177.064212,229.236418 C177.732852,228.153058 178.372212,227.049058 178.975572,225.928259 C181.387572,221.447939 182.716212,216.658499 183.007092,211.579619 C183.579732,203.93802 180.472212,198.48762 173.381173,195.40746 C178.384212,195.78666 183.207252,196.9617 187.899732,198.71034 C194.908211,199.98042 198.247571,205.76778 196.912211,213.416579 C196.030451,218.466179 193.851731,223.069859 192.684851,227.996578 C190.901172,231.389698 190.625172,235.153378 190.365492,238.834498 C190.075572,242.951938 190.235892,247.088097 191.139252,251.191617 C191.793491,254.165217 190.831092,256.998177 189.565812,259.744737 C187.562772,264.091616 184.722132,268.014176 183.155412,272.580416 C182.085012,275.700416 181.411092,278.874655 181.656372,282.186655 C181.796052,284.073055 182.004852,285.992575 179.467092,285.565375 C179.214132,285.523135 178.683252,285.537535 178.252692,285.537535" id="Fill-79" fill="#1F2024"></path>
                <path d="M178.252692,285.537535 C173.554933,285.555775 168.857173,285.597055 164.159893,285.569695 C163.305973,285.565375 162.454453,285.280255 161.601973,285.124735 C160.845493,279.659455 162.062773,274.548416 164.293813,269.588096 C165.601813,266.681216 166.888693,263.732576 168.721813,261.151136 C171.887893,256.691457 172.991413,251.839137 172.529173,246.478977 C171.988213,240.209218 173.802613,234.526498 177.064212,229.236418 C177.732852,228.153058 178.372212,227.049058 178.975572,225.928259 C181.387572,221.447939 182.716212,216.658499 183.007092,211.579619 C183.579732,203.93802 180.472212,198.48762 173.381173,195.40746 C178.384212,195.78666 183.207252,196.9617 187.899732,198.71034 C194.908211,199.98042 198.247571,205.76778 196.912211,213.416579 C196.030451,218.466179 193.851731,223.069859 192.684851,227.996578 C190.901172,231.389698 190.625172,235.153378 190.365492,238.834498 C190.075572,242.951938 190.235892,247.088097 191.139252,251.191617 C191.793491,254.165217 190.831092,256.998177 189.565812,259.744737 C187.562772,264.091616 184.722132,268.014176 183.155412,272.580416 C182.085012,275.700416 181.411092,278.874655 181.656372,282.186655 C181.796052,284.073055 182.004852,285.992575 179.467092,285.565375 C179.214132,285.523135 178.683252,285.537535 178.252692,285.537535 Z" id="Stroke-81" stroke="#FEFEFE" stroke-width="0.599999964"></path>
                <path d="M173.380981,195.4077 C170.253781,194.72898 167.120821,194.0877 163.924981,193.82082 C163.909621,194.11314 163.908661,194.40306 163.919701,194.69154 C163.908661,194.40306 163.909621,194.11314 163.924981,193.82082 C162.551221,189.249301 162.099061,184.488661 161.070901,179.845621 C160.658581,177.985621 160.331221,176.107382 159.964501,174.237302 C159.909781,173.873462 159.854101,173.509142 159.798421,173.143862 C159.652021,172.367222 159.500821,171.592982 159.362581,170.816342 C158.312341,164.920502 157.265462,159.024663 156.217142,153.129303 C156.096182,152.835063 155.919542,152.551383 155.861942,152.245143 C153.735542,140.932504 151.560662,129.628504 149.524502,118.299065 C148.104182,110.397785 143.656022,106.561626 135.576183,106.552026 C134.141943,106.550106 132.708183,106.507386 131.273943,106.483866 C119.532664,106.509786 107.790905,106.525146 96.0501052,106.574586 C94.7003453,106.579866 93.3510654,106.771866 92.0022654,106.877466 C84.5737859,109.705625 81.828666,114.545465 83.192346,122.426105 C83.8859459,126.432664 84.5929859,130.436824 85.2933058,134.441464 C85.8323458,136.847224 86.3723458,139.252984 86.9118657,141.658264 C86.9435457,142.272184 86.9752257,142.885143 87.0064257,143.499063 C87.2181057,144.620343 87.8742657,145.677783 87.4969857,146.884503 C88.8693056,151.536663 89.4016256,156.360663 90.4081855,161.088662 C90.6553855,162.251222 90.7427455,163.447862 90.9035455,164.629142 C91.5107455,166.486742 91.9446654,168.373142 91.8645055,170.346422 C92.3737854,170.720342 92.2590654,171.344822 92.4645054,171.840662 C94.7761853,184.228021 97.1771451,196.60002 99.321305,209.01666 C99.716825,211.307699 100.503065,211.733459 102.625145,211.712819 C112.297144,211.617779 121.971544,211.710419 131.645463,211.735859 C143.691062,211.707539 155.737142,211.678739 167.783221,211.650899 C172.857781,211.626899 177.93234,211.602899 183.00738,211.579379 C183.58002,203.93778 180.47202,198.48738 173.380981,195.4077 Z" id="Stroke-83" stroke="#1F2024" stroke-width="0.599999964" fill="#FFFFFF"></path>
                <path d="M208.007987,115.316153 C208.007987,113.738393 207.995027,113.543033 207.995027,112.340153 C208.001747,110.644313 208.732306,108.603354 210.679186,108.644634 C212.832466,108.690714 212.908786,109.186073 213.366226,111.451193 C213.318226,113.581913 213.616786,115.731833 213.114226,117.836633 C212.774386,119.261273 212.230066,120.781913 210.540466,120.847673 C208.722706,120.918713 208.229747,119.325113 208.028147,117.892313 C207.860147,116.700473 208.007987,116.423033 208.007987,115.316153" id="Fill-85" fill="#FEFEFE"></path>
                <path d="M208.007987,115.316153 C208.007987,113.738393 207.995027,113.543033 207.995027,112.340153 C208.001747,110.644313 208.732306,108.603354 210.679186,108.644634 C212.832466,108.690714 212.908786,109.186073 213.366226,111.451193 C213.318226,113.581913 213.616786,115.731833 213.114226,117.836633 C212.774386,119.261273 212.230066,120.781913 210.540466,120.847673 C208.722706,120.918713 208.229747,119.325113 208.028147,117.892313 C207.860147,116.700473 208.007987,116.423033 208.007987,115.316153 Z" id="Stroke-87" stroke="#1F2024" stroke-width="0.599999964"></path>
                <path d="M159.091573,71.0380278 L158.614933,75.3594675 L158.612053,75.3628275 C157.964534,75.6205875 157.654454,76.1025075 157.659734,76.7946674 L157.646774,76.8081074 C157.491254,76.9631474 157.335734,77.1186674 157.180214,77.2741874 L157.184054,77.2732274 C155.781974,77.4177074 154.477334,77.3869874 153.366614,76.3645874 C153.366614,76.3645874 153.345014,76.3405874 153.340694,76.3309875 C152.416214,74.3423476 152.950454,72.0834677 153.979094,70.0842678 C155.337974,70.0765878 157.101494,70.0007478 158.460853,69.9935478 C158.807413,70.3209078 158.749333,70.7164278 159.095413,71.0437878 L159.091573,71.0380278 Z" id="Stroke-91" stroke="#1F2024" stroke-width="0.599999964" fill="#FFFFFF"></path>
                <path d="M161.016757,69.6800598 C161.167477,70.1442198 161.318677,70.6078998 161.469877,71.0715798 C160.675957,71.1594198 159.874837,71.7090197 159.091477,71.0379798 L159.095317,71.0437398 C159.244597,70.5997398 158.946517,70.2882198 159.095317,69.8437398 C159.594517,69.5614999 160.525237,69.6906198 161.016757,69.6800598 Z" id="Stroke-93" stroke="#1F2024" stroke-width="0.599999964" fill="#FFFFFF"></path>
                <path d="M163.349221,67.755836 C163.543621,67.788476 163.715461,67.874876 163.842661,68.0668759 C163.715461,67.874876 163.543621,67.788476 163.349221,67.755836 M169.548421,52.5926369 C170.892901,57.5399966 170.024581,61.5551963 167.028421,65.0587161 C167.029381,65.0591961 167.029861,65.0596761 167.030341,65.0606361 C166.872901,65.2195161 166.713061,65.3774361 166.553221,65.5358361 C166.082341,65.5003161 165.774181,66.425756 165.197701,65.7657561 L165.197701,65.7652761 C166.712581,64.3156762 167.959141,62.6971163 168.747301,60.7156764 C169.965061,57.6523166 169.698661,55.0771167 167.870341,53.4095968 C165.907141,51.6187169 162.919141,51.4651169 160.071301,53.1038368 C157.696742,54.4703968 155.659622,56.2521566 154.022822,58.4635165 C153.462662,59.2195165 153.002822,59.7239964 151.887782,59.1383965 C146.086982,56.0942367 140.187303,56.5819166 134.313543,58.9291165 C130.683303,60.3796764 128.299143,62.9255962 127.354503,66.843836 C126.378663,70.8907158 127.474983,74.5727956 128.921223,78.2447953 C129.863463,79.5019153 130.806183,80.7599952 131.748423,82.0180751 C134.660103,84.375835 137.998983,85.9603149 141.437222,87.3623948 C143.533862,83.714875 143.409062,82.6631951 140.334183,79.9041552 C139.071303,78.7713553 138.341703,77.4196754 139.208103,75.9254355 C139.981383,74.5915156 141.405542,74.4009556 142.989062,74.7470355 C147.043622,75.6345555 149.081222,74.5934356 150.381062,70.7980758 C150.984422,69.0364759 151.837382,69.5303959 152.904422,70.0199958 C153.262502,70.0415958 153.620582,70.0631958 153.979142,70.0843158 C155.338022,70.0766358 156.696902,70.0694358 158.055782,70.0622358 C159.398341,69.7943958 159.245701,69.7943958 159.542341,69.7118358 C160.033861,69.7012758 160.524901,69.6907158 161.016901,69.6801558 C161.334181,69.4545559 161.651461,69.2294359 161.968741,69.0038359 L162.539461,68.6702359 C162.985381,68.4859159 163.431781,68.3025559 163.877701,68.1182359 C164.056741,68.1340759 164.235781,68.1499159 164.414821,68.1657559 L164.385541,68.2257559 C165.208741,67.429436 166.031461,66.632636 166.854181,65.8367961 C167.012581,65.6783961 167.171461,65.5199961 167.329861,65.3620761 C170.915461,61.9507163 172.148581,56.0812767 169.548421,52.5926369" id="Fill-95" fill="#1F2024"></path>
                <path d="M162.539221,68.6703799 C162.349141,68.7812599 162.159061,68.8930999 161.968981,69.0039799 C162.159061,68.8926199 162.349141,68.7812599 162.539221,68.6703799" id="Fill-97" fill="#4376BA"></path>
                <path d="M157.180022,77.2742834 C157.335542,77.1187634 157.491062,76.9632434 157.647062,76.8077234 C157.491062,76.9632434 157.335542,77.1187634 157.180022,77.2742834" id="Fill-99" fill="#D8D8E2"></path>
                <path d="M530.150319,47.9563171 C528.393999,44.1273574 528.968559,41.7719975 532.633359,39.7564776 C537.543279,37.0550378 542.867919,35.6375979 548.486798,36.4929578 C552.900878,37.1654378 556.260398,39.6839976 558.345518,43.6867174 C560.251118,47.3452772 562.878157,50.218077 566.728717,51.8390369 C570.533677,53.4407968 572.097037,56.5723166 572.779117,60.3935964 C573.027757,61.7865563 572.257837,62.4071963 571.296397,63.0676762 C565.774477,66.863036 559.518158,68.5699159 553.005998,69.5740759 C552.387758,69.6695958 551.782958,69.8539158 551.172398,69.9964758 C549.908078,70.0641558 548.643278,70.1308758 547.378958,70.1985558 C545.340398,70.5489558 544.678958,69.3772759 544.560398,67.630556 C544.497518,66.695516 544.470158,65.7580761 544.426958,64.8215961 C545.069198,63.3057562 546.477518,62.6870363 547.787918,61.9574363 C549.504398,61.0017564 550.433198,59.5459165 549.836078,57.6359966 C549.210638,55.6387167 547.539278,55.2993567 545.618318,55.5767967 C544.286318,55.7687967 542.950479,55.6847967 541.594479,55.4567967 C536.660079,54.6263967 533.236239,51.5663969 530.150319,47.9563171" id="Fill-101" fill="#1F2024"></path>
                <path d="M563.379997,288.580687 C569.250397,288.546127 575.120797,288.511567 580.990716,288.477007 C583.529916,295.419246 586.069116,302.361486 588.696636,309.548166 C587.566236,309.548166 586.777596,309.548526 585.989436,309.547566 C569.129917,309.530766 552.269918,309.514446 535.410399,309.497646 C535.408959,309.372366 535.407519,309.247566 535.407519,309.122286 C538.423359,305.363406 542.095839,302.490126 546.562718,300.606606 C547.757438,300.102606 548.738078,299.707566 550.094078,298.778766 C550.809758,298.524846 550.946558,298.375086 551.426558,298.082286 C555.804638,295.410126 559.894238,292.375567 563.379997,288.580687 Z" id="Stroke-103" stroke="#1F2024" stroke-width="0.599999964"></path>
                <path d="M579.00342,260.409296 C578.44134,255.560337 577.233661,250.878897 574.498141,246.703857 C572.996221,244.411857 572.441821,241.809298 572.972221,239.140018 C573.674461,235.602418 573.220381,232.156018 572.479261,228.734578 C571.055101,222.157139 568.627261,215.935859 565.500061,209.980499 C562.335421,203.9541 561.855901,197.60562 562.977661,190.966261 C563.828221,185.928661 565.502461,181.119541 566.638621,176.166421 C561.832381,176.719861 557.027582,177.281461 552.219902,177.825781 C557.027582,177.281461 561.832381,176.719861 566.638141,176.165941 C569.968861,166.873142 573.034621,157.522263 572.901661,147.473463 C570.490621,147.517143 568.101181,148.142103 565.673341,147.741783 C560.240702,149.745783 556.361342,153.782103 552.613502,157.917303 C549.463262,161.391542 545.741822,163.802102 541.198623,164.912822 C539.276703,165.382262 537.324063,165.726422 535.385343,166.127702 C534.368703,170.368982 534.239583,174.736022 533.556063,179.024341 C533.384703,180.205621 533.126943,181.381141 533.053983,182.568661 C532.588863,190.196341 532.205343,197.8269 531.687903,205.45314 C531.052383,214.814099 530.827263,224.210099 530.682783,233.595058 C530.402463,251.879697 530.302143,270.167696 530.126943,288.454735 C535.570143,288.457615 541.013343,288.460015 546.455582,288.462895 C551.449982,283.536655 553.922462,277.346575 555.395582,270.005456 C557.361182,274.328336 559.188542,278.089615 560.781182,281.947375 C561.685981,284.138575 563.273341,286.077775 563.379901,288.580975 C569.250781,288.546415 575.120701,288.511855 580.9911,288.477295 C580.8735,279.082255 580.08438,269.732336 579.00342,260.409296" id="Fill-105" fill="#1F2024"></path>
                <path d="M577.216525,113.935241 C578.520684,119.728361 580.461804,125.443241 579.092364,131.51956 C578.781324,133.13476 578.555244,134.74756 577.925004,136.3114 C575.609485,142.0522 571.310125,145.597479 565.673485,147.742119 C560.240846,149.745639 556.361486,153.782439 552.613166,157.917159 C549.463406,161.391398 545.741966,163.802438 541.198767,164.912678 C539.276847,165.382598 537.324207,165.726278 535.385487,166.127558 C533.520207,165.794438 531.088527,167.026598 529.898127,165.631718 C528.881967,164.440358 529.159407,162.139718 528.877167,160.328198 C527.981007,154.577799 527.089648,148.825959 526.196848,143.075079 C525.563248,138.74068 524.929648,134.40628 524.296528,130.07236 C525.910768,128.85748 528.278607,129.33412 529.693647,127.67044 C529.340847,125.742761 528.987567,123.815081 528.635247,121.886921 C528.824367,121.753481 529.004847,121.518761 529.203567,121.501481 C534.151887,121.073801 535.821327,117.904361 536.741967,113.441321 C538.106127,106.832682 539.564367,100.243242 540.759567,93.5990824 C541.226607,88.1746027 541.693167,82.7510831 542.160207,77.3266034 C546.301166,78.5750833 549.560366,77.1278834 552.275246,74.0174836 C553.005806,73.9906036 553.415246,74.5397236 553.869806,74.9578035 C562.069165,82.4875631 570.630445,90.2069226 574.356685,100.810602 C575.469805,103.979082 577.216525,113.935241 577.216525,113.935241" id="Stroke-107" stroke="#1F2024" stroke-width="0.599999964"></path>
                <path d="M591.444972,133.501816 C590.776812,125.218937 587.693292,118.045817 581.596332,112.275737 C581.029452,111.835097 580.392972,110.708537 579.864012,109.932377 C579.272172,109.063577 575.273293,102.308538 574.356493,100.810938 C575,103 576.994573,112.948217 577.216333,113.935097 C578.520492,119.728697 580.461612,125.443097 579.092652,131.519416 C578.781132,133.134616 578.555052,134.747896 577.924812,136.311736 C575.609773,142.052056 571.310413,145.597335 565.673293,147.741975 C568.101133,148.142295 570.490573,147.516855 572.901133,147.473175 C576.526573,147.091095 580.129452,146.569815 583.667052,145.670295 C589.903212,144.084375 590.620812,143.246295 591.320172,136.784056 C591.336012,136.633816 591.275532,136.475416 591.251052,136.320376 C591.637932,135.404056 591.520332,134.436376 591.444972,133.501816 Z" id="Stroke-109" stroke="#1F2024" stroke-width="0.599999964"></path>
                <path d="M546.455774,288.463039 C541.013055,288.460159 535.569855,288.457279 530.126655,288.454399 C527.284575,291.113119 524.090656,293.331679 521.021056,295.704318 C517.402816,297.864798 513.659776,299.779518 509.861537,301.609278 C506.754017,303.105918 504.031457,305.210718 501.827297,307.909278 C501.463937,308.354718 500.801057,308.733438 501.158177,309.497598 L535.410495,309.497598 C535.408575,309.372798 535.407615,309.247518 535.407135,309.122238 C538.423455,305.363358 542.095935,302.490078 546.562814,300.606558 C547.757534,300.102558 549.173054,299.799198 549.873854,298.471038 C549.160574,294.989118 547.709054,291.760159 546.455774,288.463039 Z" id="Stroke-111" stroke="#1F2024" stroke-width="0.599999964"></path>
                <path d="M551.17235,69.9964758 C549.90803,70.0641558 548.64323,70.1308758 547.37891,70.1985558 C545.34083,70.5484758 544.67891,69.3772759 544.56083,67.630076 C544.49747,66.695516 544.47059,65.7580761 544.42691,64.8215961 C545.06867,63.3057562 546.47747,62.6870363 547.78787,61.9574363 C549.50483,61.0022364 550.43315,59.5459165 549.83603,57.6359966 C549.21059,55.6387167 547.53923,55.2993567 545.61827,55.5767967 C544.28627,55.7687967 542.950431,55.6847967 541.594431,55.4567967 C536.660511,54.6268767 533.236191,51.5663969 530.150271,47.9563171 C528.478431,50.710077 527.593311,53.9015968 525.294112,56.3227166 C524.359072,57.3067166 524.864512,58.3612765 526.124032,58.6631965 C527.802591,59.0649565 528.270591,60.2764764 528.697311,61.6905563 C529.649631,64.8508761 531.846591,66.769916 534.999231,67.555196 C536.894751,68.0275159 538.768671,67.307516 540.657471,67.201916 L540.657951,67.201916 C541.008351,68.9548759 541.359711,70.7073558 541.709631,72.4603157 C541.419231,74.1235156 542.135391,75.6931155 542.160351,77.3265554 C546.30131,78.5750353 549.56051,77.1278354 552.27443,74.0183956 C552.43955,72.5318357 551.47283,71.3558357 551.17235,69.9964758 Z" id="Stroke-113" stroke="#1F2024" stroke-width="0.599999964"></path>
                <path d="M507.674225,140.197864 C509.490065,140.290984 511.287664,140.484424 512.998864,141.157864 C513.040144,141.779944 513.424144,142.383304 513.051184,143.123943 C511.183504,142.285864 509.297105,141.494824 507.674225,140.197864" id="Fill-115" fill="#E7AD24"></path>
                <path d="M171.399541,294.695982 C174.535381,295.588782 177.48978,298.450542 177.70434,300.803502 C178.07778,304.904622 176.6013,307.668462 173.219221,309.199182 C169.323061,310.962701 166.096021,309.759822 163.501621,305.823822 C161.424661,302.671662 162.924661,298.607982 165.491221,296.515662 C166.545781,295.656462 167.704021,294.954702 169.081621,294.716142 C169.853941,294.709422 170.627221,294.703182 171.399541,294.695982" id="Fill-117" fill="#F5F5F5"></path>
                <path d="M171.399541,294.695982 C174.535381,295.588782 177.48978,298.450542 177.70434,300.803502 C178.07778,304.904622 176.6013,307.668462 173.219221,309.199182 C169.323061,310.962701 166.096021,309.759822 163.501621,305.823822 C161.424661,302.671662 162.924661,298.607982 165.491221,296.515662 C166.545781,295.656462 167.704021,294.954702 169.081621,294.716142 C169.853941,294.709422 170.627221,294.703182 171.399541,294.695982 Z" id="Stroke-119" stroke="#1F2024" stroke-width="0.599999964"></path>
                <path d="M229.817553,300.940206 C221.077234,296.997966 213.190834,291.807247 205.957715,285.565327 C204.546515,285.571087 203.134355,285.576367 201.722675,285.582127 L201.722675,285.565327 L196.616915,285.579247 L196.610195,285.602767 C193.331795,285.615727 189.786036,285.628687 186.507156,285.641167 C186.246996,286.490767 186.073236,287.011567 185.800596,287.641807 C185.584596,290.955727 183.962676,293.839566 182.910996,296.889966 C181.415796,301.229166 179.725716,305.500206 178.118676,309.799566 C178.826196,309.882126 179.532756,310.037646 180.239796,310.03669 C199.663955,310.011726 219.087634,309.972846 238.511793,309.923406 C238.947153,309.921966 239.487153,310.140366 239.877873,309.399726 C237.354033,305.659566 233.918193,302.790126 229.817553,300.940206 Z" id="Stroke-121" stroke="#1F2024" stroke-width="0.599999964"></path>
                <polygon id="Stroke-123" stroke="#1F2024" stroke-width="0.599999964" points="263.199823 146.814711 377.442216 146.814711 377.442216 143.025591 263.199823 143.025591"></polygon>
                <path d="M301.101293,143.025831 L312.196012,103.088394 C312.196012,103.088394 312.013612,101.210634 315.132172,101.210634 C318.251212,101.210634 387.348168,101.310954 387.348168,101.310954 C387.348168,101.310954 389.678088,100.993194 389.058888,103.114314 C388.439688,105.234954 377.442408,143.025831 377.442408,143.025831 L301.101293,143.025831 Z" id="Stroke-125" stroke="#1F2024" stroke-width="0.599999964" fill="#FFE3B3"></path>
                <polygon id="Stroke-126" stroke="#1F2024" stroke-width="0.599999964" points="316.843324 109.398665 317.415484 107.457066 365.400601 107.558346 364.945081 109.522505"></polygon>
                <polygon id="Stroke-127" stroke="#1F2024" stroke-width="0.599999964" points="315.43798 113.330537 316.01014 111.388937 363.995257 111.490217 363.539737 113.454377"></polygon>
                <polygon id="Stroke-128" stroke="#1F2024" stroke-width="0.599999964" points="314.123644 117.692249 314.695804 115.750649 362.680921 115.851929 362.225401 117.816089"></polygon>
                <polygon id="Stroke-129" stroke="#1F2024" stroke-width="0.599999964" points="313.039852 122.092409 313.611532 120.150809 361.596649 120.252089 361.141609 122.216249"></polygon>
                <path d="M380.943912,146.853687 C380.943912,146.853687 380.640072,139.926328 388.664712,139.926328 L417.29479,139.926328 C417.29479,139.926328 423.50551,140.923768 423.50551,146.861847 L380.943912,146.853687 Z" id="Fill-130" fill="#1F2024"></path>
                <path d="M350.65145,0.240383986 C350.65145,11.3701433 341.628891,20.3922228 330.499131,20.3922228 C319.368892,20.3922228 310.346332,11.3701433 310.346332,0.240383986 L350.65145,0.240383986 Z" id="Stroke-131" stroke="#1F2024" stroke-width="0.599999964"></path>
                <path d="M167.330341,73.4347636 C166.994821,74.0885236 166.340101,75.1272435 165.301381,75.0691635 C164.262661,75.0120435 163.455301,74.5114036 163.147621,73.4923636 C162.839941,72.4728437 162.628261,71.7283637 163.166821,70.5235638 C163.704901,69.3187639 163.843621,68.9779639 165.301381,68.6702839 C165.301381,68.6702839 166.800421,68.4653239 167.330341,69.8438838 C167.860261,71.2229238 167.665861,72.7810037 167.330341,73.4347636 M167.849221,69.6432438 C167.113861,68.0592439 165.843301,67.845164 164.414821,68.1653239 C162.985861,68.4859639 162.329701,70.3632438 162.108901,71.0438838 C162.108901,71.0438838 160.471141,70.4352438 159.542341,71.3006838 C159.542341,71.3006838 159.441061,70.1866038 159.095461,69.8438838 C159.095461,69.8438838 158.865541,69.9250038 158.460421,69.9936438 C158.460421,69.9936438 158.958181,71.0414838 158.799301,72.6048437 C158.640421,74.1691636 157.816262,75.8750835 157.180262,76.3723634 C156.543302,76.8701234 155.366822,77.5579634 154.005542,76.8072434 C152.643782,76.0574835 153.125222,72.9878836 153.125222,72.9878836 C153.125222,72.9878836 153.283622,71.3702837 153.979142,70.0843638 L152.903942,70.0200438 C152.903942,70.0200438 152.064902,72.7094837 152.260742,74.4336436 C152.457062,76.1573235 153.331622,77.9736434 154.465382,78.0936433 C155.599622,78.2136433 156.850982,78.3202033 158.056742,76.8072434 C159.261541,75.2952435 159.457381,73.2960436 159.735301,72.9302837 C160.013701,72.5650037 160.559941,71.6453237 161.758021,72.3158837 C161.758021,72.3158837 162.605701,75.0610035 164.128261,75.5765235 C165.650821,76.0925235 166.823461,75.7262835 167.615461,74.4946036 C168.406501,73.2629236 168.584581,71.2262838 167.849221,69.6432438" id="Fill-132" fill="#1F2024"></path>
                <g id="Group-136" transform="translate(177.839988, 281.956783)">
                    <path d="M3.81628777,0.229679986 C4.30492774,4.35143974 4.19980775,3.66887978 1.6270079,3.60839978 C1.37068792,3.60263979 0.84364795,3.58055979 0.412607975,3.58055979" id="Fill-134" fill="#1F2024"></path>
                    <path d="M3.81628777,0.229679986 C4.30492774,4.35143974 4.19980775,3.66887978 1.6270079,3.60839978 C1.37068792,3.60263979 0.84364795,3.58055979 0.412607975,3.58055979" id="Stroke-135" stroke="#FEFEFE" stroke-width="0.599999964"></path>
                </g>
                <polyline id="Path-5" stroke="#1F2024" stroke-width="0.699999988" points="195.320932 76.6179653 187.620932 84.3179652 195.320932 92.017965"></polyline>
                <polyline id="Path-5-Copy" stroke="#1F2024" stroke-width="0.699999988" transform="translate(217.289208, 84.317965) scale(-1, 1) translate(-217.289208, -84.317965) " points="221.139208 76.6179653 213.439208 84.3179652 221.139208 92.017965"></polyline>
                <path d="M208.146119,72.9796411 L200.614021,96.217965" id="Path-7" stroke="#1F2024" stroke-width="0.699999988"></path>
            </g>
        </g>
    </g>
</svg>