<svg xmlns="http://www.w3.org/2000/svg" width="200" height="35" viewBox="0 0 200 35">
    <g fill="none" fill-rule="evenodd">
        <path fill="#FFAE12" d="M56.977 0c2.645 0 4.993 1.244 6.464 3.167l-2.11 2.061-.028-.045c-.912-1.393-2.509-2.316-4.326-2.316-2.836 0-5.134 2.247-5.134 5.018s2.298 5.018 5.134 5.018c.621 0 1.217-.108 1.769-.306v2.983c-.57.124-1.162.19-1.77.19-4.455 0-8.066-3.53-8.066-7.885S52.52 0 56.977 0zM34.645 0v2.867h-.734v10.036h.734v2.867h-4.4v-2.867h.733V2.867h-.733V0h4.4zM9.13 0c1.978 0 3.646 1.447 3.943 3.382l.026.202c.117 1.138-.25 2.332-1.1 3.584 1.515 1.297 2.253 2.655 2.213 4.076l-.013.225c-.207 2.432-2.242 4.3-4.683 4.3H1V0h8.13zm54.812 7.527v7.526H62.27c-.696 0-1.26-.564-1.26-1.26v-3.4h-3.506c-.696 0-1.26-.564-1.26-1.26V7.527h7.7zM9.108 9.319H3.933v3.584h5.175c.99 0 1.792-.803 1.792-1.792 0-.94-.724-1.712-1.645-1.787l-.147-.005zm-.733-6.452H3.933v3.584h4.442c.99 0 1.792-.802 1.792-1.792 0-.94-.724-1.711-1.645-1.786l-.147-.006z" transform="translate(-1)"/>
        <g fill="#000" fill-rule="nonzero">
            <path d="M86.343.173c.938 0 1.876.121 2.812.364.964.25 1.893.718 2.786 1.399l.49.373-1.132 1.132-.374-.284c-.334-.253-.693-.47-1.079-.653-.391-.186-.787-.335-1.188-.448-.407-.114-.808-.2-1.203-.258-.394-.057-.754-.085-1.08-.085-.298 0-.646.021-1.041.063-.385.041-.771.113-1.158.216-.374.1-.73.24-1.068.419-.312.165-.57.373-.785.634-.087.102-.166.244-.233.429-.067.184-.1.364-.1.542 0 .326.075.59.221.805.173.254.388.472.649.655.278.195.575.353.892.475.345.133.66.241.934.322.143.04.284.077.42.11l.3.073.154.04.209.056 2.397.629c.562.148 1.09.324 1.585.525.519.211.975.47 1.368.777.407.317.734.69.978 1.114.258.448.386.96.386 1.525 0 .74-.218 1.381-.655 1.9-.403.479-.91.864-1.518 1.155-.585.28-1.226.483-1.923.607-.68.12-1.329.181-1.945.181-.462 0-.94-.028-1.434-.086-.5-.058-1-.154-1.498-.287-.498-.133-.993-.304-1.484-.512-.502-.213-.983-.478-1.443-.797l-.542-.375 1.203-1.155.36.244c.348.235.726.443 1.137.622.418.183.84.335 1.268.454.429.12.85.21 1.267.266.417.058.8.086 1.15.086.375 0 .767-.023 1.177-.07.4-.047.79-.124 1.17-.232.369-.104.707-.243 1.018-.415.29-.162.534-.36.736-.598.09-.105.17-.244.236-.42.065-.17.097-.347.097-.535 0-.33-.072-.598-.212-.816-.165-.256-.362-.472-.593-.648-.245-.187-.508-.34-.791-.46-.311-.132-.58-.234-.82-.311-.173-.061-.338-.112-.493-.152l-.172-.045-.316-.087-2.859-.744c-.574-.149-1.106-.325-1.598-.527-.511-.21-.958-.463-1.34-.758-.401-.31-.716-.682-.94-1.11-.23-.439-.342-.946-.342-1.514 0-.724.207-1.356.622-1.874.388-.483.885-.869 1.485-1.156.573-.275 1.203-.474 1.888-.598.67-.121 1.325-.182 1.964-.182zm4.907 2.555l-.38-.381.32-.321c.094.062.187.126.278.192l.096.096-.314.414zm-9.574 10.104l-.305.293c-.127-.075-.25-.154-.37-.235l.29-.428.04.026.04.026.305.318zM107.935 8.455l.539-.539v.539h-.54zm.539 6.263h-1.59V.42h1.59v6.494h8.34V.42h1.59v14.297h-1.59V8.455h-8.34v6.263zm8.34-6.802l.54.539h-.54v-.539zm.54-1.001l-.54.538v-.538h.54zm-8.88.538l-.54-.538h.54v.538zm-.513-.076v.615h-.565v-.615h.565zm9.366 0h.566v.615h-.566v-.615zm.539-6.418v.54h-.512v-.54h.512zm-.512 13.22v-.539h.512v.539h-.512zm-9.931 0v-.539h.512v.539h-.512zm.512-13.22v.54h-.512v-.54h.512z" transform="translate(-1) translate(1.064 .45)"/>
            <path d="M6.668 28.117H5.552l-.516 2.652h1.38v.828H4.88l-.42 2.124h-.888l.42-2.124H2.264l-.42 2.124H.956l.42-2.124H.404v-.828h1.128l.516-2.652H.656v-.828h1.56l.396-2.028H3.5l-.396 2.028h1.728l.396-2.028h.888L5.72 27.29h.948v.828zm-2.52 2.652l.516-2.652H2.936L2.42 30.77h1.728zm8.926 3.048c-.656 0-1.258-.088-1.806-.264-.548-.176-1.018-.436-1.41-.78l.444-.912c.416.336.846.578 1.29.726.444.148.942.222 1.494.222.632 0 1.12-.118 1.464-.354.344-.236.516-.57.516-1.002 0-.368-.16-.642-.48-.822-.28-.157-.707-.307-1.281-.45l-.255-.06c-.672-.144-1.224-.308-1.656-.492-.432-.184-.77-.434-1.014-.75s-.366-.718-.366-1.206c0-.496.13-.932.39-1.308s.63-.67 1.11-.882c.48-.212 1.036-.318 1.668-.318.592 0 1.15.09 1.674.27.524.18.954.438 1.29.774l-.432.912c-.392-.32-.794-.558-1.206-.714-.412-.156-.85-.234-1.314-.234-.608 0-1.086.126-1.434.378-.348.252-.522.602-.522 1.05 0 .384.152.674.456.87.304.196.792.374 1.464.534.704.16 1.274.326 1.71.498.436.172.784.408 1.044.708s.39.69.39 1.17c0 .488-.13.916-.39 1.284s-.632.652-1.116.852c-.484.2-1.058.3-1.722.3zm9.946-6.096c1.4 0 2.1.788 2.1 2.364v3.636h-1.212v-3.576c0-.496-.098-.86-.294-1.092-.196-.232-.502-.348-.918-.348-.488 0-.88.152-1.176.456-.296.304-.444.712-.444 1.224v3.336h-1.212v-8.46h1.212v3.492c.2-.336.468-.592.804-.768.336-.176.716-.264 1.14-.264zm8.481 6.084c-.576 0-1.082-.124-1.518-.372-.436-.248-.772-.602-1.008-1.062-.236-.46-.354-.994-.354-1.602 0-.616.118-1.154.354-1.614.236-.46.572-.814 1.008-1.062.436-.248.942-.372 1.518-.372.576 0 1.082.124 1.518.372.436.248.772.602 1.008 1.062.236.46.354.998.354 1.614 0 .608-.118 1.142-.354 1.602-.236.46-.572.814-1.008 1.062-.436.248-.942.372-1.518.372zm0-.96c.536 0 .946-.176 1.23-.528.284-.352.426-.868.426-1.548 0-.672-.144-1.186-.432-1.542-.288-.356-.696-.534-1.224-.534s-.936.178-1.224.534c-.288.356-.432.87-.432 1.542 0 .68.142 1.196.426 1.548.284.352.694.528 1.23.528zm14.254-4.98h1.2l-2.244 5.856H43.62l-1.548-4.188-1.548 4.188H39.42l-2.232-5.856h1.26l1.584 4.404 1.596-4.404h.948l1.596 4.428 1.584-4.428zm11.698-2.604h.984v8.46h-1.116l.012-6.12-2.52 4.764h-.84l-2.532-4.704.012 6.06h-1.116v-8.46h.996l3.072 5.856 3.048-5.856zm10.138 2.604v5.856h-1.176v-.948c-.184.336-.438.592-.762.768-.324.176-.686.264-1.086.264-1.424 0-2.136-.784-2.136-2.352v-3.588h1.212v3.576c0 .472.096.82.288 1.044.192.224.488.336.888.336.472 0 .85-.152 1.134-.456.284-.304.426-.708.426-1.212v-3.288h1.212zm5.938 5.94c-1.016 0-1.828-.248-2.436-.744l.372-.876c.6.464 1.3.696 2.1.696.392 0 .692-.066.9-.198.208-.132.312-.318.312-.558 0-.208-.07-.372-.21-.492-.14-.12-.382-.22-.726-.3l-.972-.216c-.52-.12-.912-.316-1.176-.588-.264-.272-.396-.616-.396-1.032 0-.528.214-.956.642-1.284.428-.328.99-.492 1.686-.492.416 0 .812.066 1.188.198.376.132.7.318.972.558l-.372.852c-.576-.456-1.172-.684-1.788-.684-.368 0-.658.072-.87.216-.212.144-.318.34-.318.588 0 .2.066.362.198.486s.342.218.63.282l.996.228c.568.128.984.326 1.248.594.264.268.396.618.396 1.05 0 .528-.214.946-.642 1.254-.428.308-1.006.462-1.734.462zm8.614-.936c.184 0 .364-.012.54-.036l-.06.924c-.2.032-.408.048-.624.048-.76 0-1.326-.186-1.698-.558-.372-.372-.558-.91-.558-1.614v-2.832h-1.14v-.936h1.14v-1.764h1.212v1.764h1.608v.936h-1.608v2.784c0 .856.396 1.284 1.188 1.284zm10.653-3.636v3.984c-.36.184-.812.33-1.356.438-.544.108-1.096.162-1.656.162-.856 0-1.596-.172-2.22-.516-.624-.344-1.1-.84-1.428-1.488-.328-.648-.492-1.424-.492-2.328 0-.888.164-1.658.492-2.31.328-.652.798-1.15 1.41-1.494.612-.344 1.334-.516 2.166-.516.6 0 1.152.088 1.656.264.504.176.932.432 1.284.768l-.444.912c-.4-.328-.796-.564-1.188-.708-.392-.144-.824-.216-1.296-.216-.912 0-1.61.282-2.094.846-.484.564-.726 1.382-.726 2.454 0 1.096.248 1.926.744 2.49.496.564 1.22.846 2.172.846.624 0 1.24-.092 1.848-.276V30.17H89.7v-.936h3.096zm6.454 4.572c-.576 0-1.082-.124-1.518-.372-.436-.248-.772-.602-1.008-1.062-.236-.46-.354-.994-.354-1.602 0-.616.118-1.154.354-1.614.236-.46.572-.814 1.008-1.062.436-.248.942-.372 1.518-.372.576 0 1.082.124 1.518.372.436.248.772.602 1.008 1.062.236.46.354.998.354 1.614 0 .608-.118 1.142-.354 1.602-.236.46-.572.814-1.008 1.062-.436.248-.942.372-1.518.372zm0-.96c.536 0 .946-.176 1.23-.528.284-.352.426-.868.426-1.548 0-.672-.144-1.186-.432-1.542-.288-.356-.696-.534-1.224-.534s-.936.178-1.224.534c-.288.356-.432.87-.432 1.542 0 .68.142 1.196.426 1.548.284.352.694.528 1.23.528zm10.186.972c-.8 0-1.494-.176-2.082-.528-.588-.352-1.042-.852-1.362-1.5-.32-.648-.48-1.412-.48-2.292 0-.888.158-1.658.474-2.31.316-.652.77-1.152 1.362-1.5.592-.348 1.288-.522 2.088-.522.808 0 1.508.174 2.1.522.592.348 1.046.848 1.362 1.5.316.652.474 1.418.474 2.298 0 .88-.158 1.646-.474 2.298-.316.652-.77 1.154-1.362 1.506-.592.352-1.292.528-2.1.528zm0-1.008c.848 0 1.508-.288 1.98-.864.472-.576.708-1.396.708-2.46s-.234-1.882-.702-2.454c-.468-.572-1.13-.858-1.986-.858-.84 0-1.494.286-1.962.858-.468.572-.702 1.39-.702 2.454 0 1.064.234 1.884.702 2.46.468.576 1.122.864 1.962.864zm10.81-5.088c1.4 0 2.1.788 2.1 2.364v3.636h-1.212v-3.576c0-.496-.098-.86-.294-1.092-.196-.232-.502-.348-.918-.348-.488 0-.88.152-1.176.456-.296.304-.444.712-.444 1.224v3.336h-1.212v-5.856h1.188v.936c.192-.352.46-.62.804-.804.344-.184.732-.276 1.164-.276z" opacity=".805" transform="translate(-1) translate(1.064 .45)"/>
            <path d="M132.428.42h1.953l4.899 6.621 4.868-6.62h1.987l-6.067 8.185v6.112h-1.573V8.606L132.428.421zm7.286 7.209l-.867.001.433-.589.434.588zm-.724.622l.291-.393.291.393v.212l-.29.394-.292-.395V8.25zm5.43-6.753l.434-.22-.161.22h-.273zm-5.387 12.68v-.538h.496v.539h-.496zM133.676 1.28l.433.218h-.271l-.162-.218zM161.748 14.718L160.158 14.718 160.158.421 175.192.421 175.192 1.961 161.748 1.961 161.748 6.716 170.092 6.716 170.092 8.257 161.748 8.257zM186.677 1.961L186.677.421 199.57.421 199.57 1.961 194.266 1.961 194.266 14.718 192.693 14.718 192.693 1.961z" transform="translate(-1) translate(1.064 .45)"/>
        </g>
    </g>
</svg>
