<?xml version="1.0" encoding="UTF-8"?>
<svg width="200px" height="35px" viewBox="0 0 200 35" version="1.1" xmlns="http://www.w3.org/2000/svg" xmlns:xlink="http://www.w3.org/1999/xlink">
    <!-- Generator: sketchtool 59.1 (101010) - https://sketch.com -->
    <title>68D7CE75-1999-467C-BF05-58B572D48C31</title>
    <desc>Created with sketchtool.</desc>
    <g id="Playfor-a-cause" stroke="none" stroke-width="1" fill="none" fill-rule="evenodd">
        <g id="Play-for-a-cause" transform="translate(-90.000000, -30.000000)">
            <g id="1" transform="translate(90.000000, 30.000000)">
                <g id="long-form-6&quot;-copy-8">
                    <g id="Group-28-Copy" transform="translate(47.909768, 0.000000)" fill="#FFAE12">
                        <path d="M7.33350609,7.52650681 L15.0336875,7.52650681 L15.0336875,15.0530136 L13.360648,15.0530136 C12.6645688,15.0530136 12.100285,14.4887299 12.100285,13.7926506 L12.100285,10.3937475 L8.59386907,10.3937475 C7.89778982,10.3937475 7.33350609,9.82946377 7.33350609,9.13338451 L7.33350609,7.52650681 Z" id="Rectangle-Copy-35"></path>
                        <path d="M8.0668567,0 C10.7120275,0 13.0598387,1.24443265 14.530939,3.16701371 L12.421,5.228 L12.3934556,5.18329935 C11.4812487,3.79046446 9.88435575,2.86724069 8.0668567,2.86724069 C5.23172819,2.86724069 2.93340244,5.11372861 2.93340244,7.88491189 C2.93340244,10.6560952 5.23172819,12.9025831 8.0668567,12.9025831 C8.68851652,12.9025831 9.28436712,12.794573 9.83583779,12.5967048 L9.83572688,15.5796726 C9.26647833,15.7041517 8.67451376,15.7698238 8.0668567,15.7698238 C3.61165476,15.7698238 -3.70903308e-12,12.2396285 -3.70903308e-12,7.88491189 C-3.70903308e-12,3.5301953 3.61165476,0 8.0668567,0 Z" id="Path" fill-rule="nonzero"></path>
                    </g>
                    <polygon id="Rectangle-Copy-56" fill="#FFAE12" points="29.2445225 0 33.6446262 0 33.6446262 2.86724069 32.9112756 2.86724069 32.9112756 12.9025831 33.6446262 12.9025831 33.6446262 15.7698238 29.2445225 15.7698238 29.2445225 12.9025831 29.9778731 12.9025831 29.9778731 2.86724069 29.2445225 2.86724069"></polygon>
                    <g id="Group-29-Copy" fill="#FFAE12">
                        <path d="M8.13082434,3.55271368e-15 C10.1090813,3.55271368e-15 11.7773204,1.4467099 12.0744789,3.38213094 L12.100285,3.58405086 C12.2166726,4.72167572 11.8499973,5.91635934 11.0002591,7.16810172 C12.5153039,8.46476996 13.2529051,9.82344573 13.2130626,11.244129 L13.200311,11.4689628 C12.9929501,13.9011697 10.9582157,15.7698238 8.51718536,15.7698238 L-3.95772304e-12,15.7698238 L-3.95772304e-12,3.55271368e-15 L8.13082434,3.55271368e-15 Z M8.10820779,9.31853224 L2.93340244,9.31853224 L2.93340244,12.9025831 L8.10820779,12.9025831 C9.09791611,12.9025831 9.90023322,12.100266 9.90023322,11.1105577 C9.90023322,10.1703348 9.17614202,9.39923243 8.25518174,9.32447275 L8.10820779,9.31853224 Z M7.37485718,2.86724069 L2.93340244,2.86724069 L2.93340244,6.45129155 L7.37485718,6.45129155 C8.3645655,6.45129155 9.16688261,5.64897444 9.16688261,4.65926612 C9.16688261,3.71904322 8.44279142,2.94794088 7.52183113,2.8731812 L7.37485718,2.86724069 Z" id="Shape"></path>
                    </g>
                    <g id="Group-4" transform="translate(0.064039, 0.449510)" fill="#FFFFFF" fill-rule="nonzero">
                        <path d="M86.3425029,0.172822714 C87.2808141,0.172822714 88.2185218,0.294377413 89.1546342,0.537073207 C90.1189282,0.78707537 91.0481309,1.25463597 91.940584,1.9357186 L92.430291,2.30944234 L91.2991177,3.44061561 L90.9248125,3.15705102 C90.5909065,2.90409194 90.231589,2.68647713 89.8463046,2.50397401 C89.4546405,2.31844888 89.058728,2.16933899 88.6583364,2.05640803 C88.2510906,1.94154382 87.850027,1.85560163 87.4550606,1.79843544 C87.0609582,1.74139429 86.7009653,1.71310914 86.3755512,1.71310914 C86.0765661,1.71310914 85.729023,1.73401399 85.3338439,1.77616643 C84.9485163,1.81726804 84.5627139,1.88928449 84.1762146,1.99235097 C83.8023349,2.0920522 83.4465191,2.23139266 83.1080085,2.41060416 C82.7956164,2.57598821 82.5377155,2.78411877 82.3231233,3.04517511 C82.235943,3.14688548 82.1570628,3.28886971 82.0899145,3.47352752 C82.0229166,3.65777172 81.990161,3.83792785 81.990161,4.016457 C81.990161,4.3419835 82.064877,4.60545582 82.2111628,4.82103488 C82.3835206,5.07503587 82.5988373,5.29261905 82.8597151,5.47569115 C83.1376509,5.67073386 83.4346534,5.82897288 83.7516042,5.95087702 C84.0969839,6.08371538 84.4114197,6.19205039 84.6855789,6.27336501 C84.8292081,6.313262 84.9696583,6.3501187 85.1069222,6.38393953 L85.4061765,6.45610262 L85.5596724,6.49514995 C85.633769,6.51452637 85.7036918,6.53362901 85.7685561,6.55221974 L88.1661341,7.18055308 C88.7275454,7.32949893 89.2559484,7.50467604 89.7512923,7.70626947 C90.2696387,7.9172244 90.7260567,8.17586129 91.1192102,8.48301247 C91.5255388,8.80045663 91.8526474,9.17246254 92.0971701,9.59715989 C92.3551504,10.0452309 92.4829934,10.5566029 92.4829934,11.1218396 C92.4829934,11.861845 92.2647115,12.503048 91.8275537,13.0221729 C91.4246438,13.5006284 90.9171001,13.8859856 90.3099563,14.1771668 C89.7250612,14.4576777 89.0835871,14.6596233 88.3867578,14.7836353 C87.7065407,14.9046909 87.058189,14.9654739 86.4416478,14.9654739 C85.9797779,14.9654739 85.5018708,14.9366843 85.0079112,14.8792471 C84.5080522,14.821124 84.0086486,14.7253082 83.5098605,14.5919113 C83.0117635,14.4586994 82.5171495,14.2880431 82.0261223,14.0800786 C81.5237795,13.8673216 81.0425522,13.6016133 80.5828416,13.2833521 L80.0408861,12.9081522 L81.2437354,11.7534168 L81.6045361,11.9974878 C81.9515063,12.232203 82.3303166,12.4395248 82.7413885,12.6193688 C83.1593039,12.8022068 83.5819221,12.9535145 84.0093937,13.0734151 C84.4376942,13.1935482 84.8597724,13.2821325 85.275732,13.3393269 C85.6930042,13.3967018 86.0762648,13.4251874 86.4251236,13.4251874 C86.8006009,13.4251874 87.1931214,13.4016362 87.6026745,13.3543801 C88.003597,13.3081198 88.3936645,13.2311328 88.7731738,13.1234342 C89.141521,13.0189032 89.4803547,12.8804018 89.7905066,12.7080952 C90.0814123,12.546481 90.3252136,12.34825 90.527124,12.1096456 C90.6167162,12.0051213 90.6961611,11.8660927 90.7631914,11.6901381 C90.8278439,11.5204254 90.8600862,11.3430925 90.8600862,11.1548879 C90.8600862,10.8246062 90.7881269,10.5567575 90.6482255,10.3391331 C90.4833755,10.0826998 90.2862287,9.8674246 90.0553592,9.69087732 C89.8104372,9.50358404 89.5468331,9.35021439 89.2636141,9.23020634 C88.9529711,9.09857795 88.684476,8.99691473 88.4435098,8.91996778 C88.2705187,8.8589121 88.1063551,8.80840022 87.9511647,8.76835109 L87.7792246,8.72325573 C87.6670275,8.69334094 87.5602993,8.66388974 87.4626999,8.63589818 L84.6040791,7.89232631 C84.030232,7.74312606 83.497548,7.56748431 83.0060273,7.36509345 C82.4948723,7.15461784 82.0481034,6.90236057 81.6668105,6.60716609 C81.2650199,6.29610239 80.9499117,5.92519372 80.7260593,5.4972407 C80.4964003,5.05818671 80.383778,4.5513862 80.383778,3.9834087 C80.383778,3.25865874 80.5909371,2.62699313 81.0063734,2.10940042 C81.3941048,1.62632527 81.8908997,1.24028079 82.4908864,0.952787149 C83.0642693,0.67804121 83.6941241,0.478983305 84.3792923,0.354944241 C85.04937,0.233637069 85.7038483,0.172822714 86.3425029,0.172822714 Z M91.2501741,2.72757364 L90.8691813,2.34658085 L91.1900649,2.0256973 C91.2840917,2.08757639 91.3765829,2.15163461 91.4675322,2.21786937 L91.5635631,2.31390021 L91.2501741,2.72757364 Z M81.6757782,12.8324584 L81.3707814,13.1252554 C81.2443776,13.0498242 81.1210272,12.9714248 81.0007409,12.8900546 L81.2905823,12.4615934 L81.3303345,12.4880204 L81.3701975,12.5141452 L81.6757782,12.8324584 Z" id="Path"></path>
                        <path d="M107.934933,8.45496052 L108.473738,7.91615534 L108.473738,8.45496052 L107.934933,8.45496052 Z M108.473738,14.7176117 L106.883879,14.7176117 L106.883879,0.420684897 L108.473738,0.420684897 L108.473738,6.91467409 L116.814891,6.91467409 L116.814891,0.420684897 L118.40475,0.420684897 L118.40475,14.7176117 L116.814891,14.7176117 L116.814891,8.45496052 L108.473738,8.45496052 L108.473738,14.7176117 Z M116.814891,7.91615534 L117.353696,8.45496052 L116.814891,8.45496052 L116.814891,7.91615534 Z M117.353696,6.91467409 L116.814891,7.45347927 L116.814891,6.91467409 L117.353696,6.91467409 Z M108.473738,7.45347927 L107.934933,6.91467409 L108.473738,6.91467409 L108.473738,7.45347927 Z M107.96149,7.37735017 L107.96149,7.99228444 L107.396128,7.99228444 L107.396128,7.37735017 L107.96149,7.37735017 Z M117.327139,7.37735017 L117.892501,7.37735017 L117.892501,7.99228444 L117.327139,7.99228444 L117.327139,7.37735017 Z M117.865945,0.959490071 L117.865945,1.49829525 L117.353696,1.49829525 L117.353696,0.959490071 L117.865945,0.959490071 Z M117.353696,14.1788065 L117.353696,13.6400013 L117.865945,13.6400013 L117.865945,14.1788065 L117.353696,14.1788065 Z M107.422685,14.1788065 L107.422685,13.6400013 L107.934933,13.6400013 L107.934933,14.1788065 L107.422685,14.1788065 Z M107.934933,0.959490071 L107.934933,1.49829525 L107.422685,1.49829525 L107.422685,0.959490071 L107.934933,0.959490071 Z" id="Path"></path>
                        <path d="M6.66796092,28.1174195 L5.55196092,28.1174195 L5.03596092,30.7694195 L6.41596092,30.7694195 L6.41596092,31.5974195 L4.87996092,31.5974195 L4.45996092,33.7214195 L3.57196092,33.7214195 L3.99196092,31.5974195 L2.26396092,31.5974195 L1.84396092,33.7214195 L0.955960921,33.7214195 L1.37596092,31.5974195 L0.403960921,31.5974195 L0.403960921,30.7694195 L1.53196092,30.7694195 L2.04796092,28.1174195 L0.655960921,28.1174195 L0.655960921,27.2894195 L2.21596092,27.2894195 L2.61196092,25.2614195 L3.49996092,25.2614195 L3.10396092,27.2894195 L4.83196092,27.2894195 L5.22796092,25.2614195 L6.11596092,25.2614195 L5.71996092,27.2894195 L6.66796092,27.2894195 L6.66796092,28.1174195 Z M4.14796092,30.7694195 L4.66396092,28.1174195 L2.93596092,28.1174195 L2.41996092,30.7694195 L4.14796092,30.7694195 Z M13.0737791,33.8174195 C12.4177758,33.8174195 11.8157818,33.7294204 11.2677791,33.5534195 C10.7197764,33.3774186 10.2497811,33.1174212 9.8577791,32.7734195 L10.3017791,31.8614195 C10.7177812,32.1974212 11.1477769,32.4394188 11.5917791,32.5874195 C12.0357813,32.7354203 12.5337763,32.8094195 13.0857791,32.8094195 C13.7177823,32.8094195 14.2057774,32.6914207 14.5497791,32.4554195 C14.8937808,32.2194183 15.0657791,31.8854217 15.0657791,31.4534195 C15.0657791,31.0854177 14.9057807,30.8114204 14.5857791,30.6314195 C14.3057777,30.4739187 13.8787814,30.3240762 13.30478,30.1818885 L13.0497791,30.1214195 C12.3777757,29.9774188 11.8257813,29.8134204 11.3937791,29.6294195 C10.9617769,29.4454186 10.6237803,29.1954211 10.3797791,28.8794195 C10.1357779,28.5634179 10.0137791,28.161422 10.0137791,27.6734195 C10.0137791,27.177417 10.1437778,26.7414214 10.4037791,26.3654195 C10.6637804,25.9894176 11.0337767,25.6954206 11.5137791,25.4834195 C11.9937815,25.2714185 12.5497759,25.1654195 13.1817791,25.1654195 C13.7737821,25.1654195 14.3317765,25.2554186 14.8557791,25.4354195 C15.3797817,25.6154204 15.8097774,25.8734178 16.1457791,26.2094195 L15.7137791,27.1214195 C15.3217771,26.8014179 14.9197812,26.5634203 14.5077791,26.4074195 C14.095777,26.2514187 13.6577814,26.1734195 13.1937791,26.1734195 C12.5857761,26.1734195 12.1077808,26.2994183 11.7597791,26.5514195 C11.4117774,26.8034208 11.2377791,27.1534173 11.2377791,27.6014195 C11.2377791,27.9854214 11.3897776,28.2754185 11.6937791,28.4714195 C11.9977806,28.6674205 12.4857757,28.8454187 13.1577791,29.0054195 C13.8617826,29.1654195 14.4317769,29.3314187 14.8677791,29.5034195 C15.3037813,29.6754204 15.6517778,29.911418 15.9117791,30.2114195 C16.1717804,30.511421 16.3017791,30.9014171 16.3017791,31.3814195 C16.3017791,31.869422 16.1717804,32.2974177 15.9117791,32.6654195 C15.6517778,33.0334214 15.2797815,33.3174185 14.7957791,33.5174195 C14.3117767,33.7174205 13.7377824,33.8174195 13.0737791,33.8174195 Z M23.0195973,27.7214195 C24.4196043,27.7214195 25.1195973,28.5094116 25.1195973,30.0854195 L25.1195973,33.7214195 L23.9075973,33.7214195 L23.9075973,30.1454195 C23.9075973,29.649417 23.8095983,29.2854207 23.6135973,29.0534195 C23.4175963,28.8214184 23.1115994,28.7054195 22.6955973,28.7054195 C22.2075948,28.7054195 21.8155988,28.857418 21.5195973,29.1614195 C21.2235958,29.465421 21.0755973,29.873417 21.0755973,30.3854195 L21.0755973,33.7214195 L19.8635973,33.7214195 L19.8635973,25.2614195 L21.0755973,25.2614195 L21.0755973,28.7534195 C21.2755983,28.4174178 21.5435956,28.1614204 21.8795973,27.9854195 C22.215599,27.8094186 22.5955952,27.7214195 23.0195973,27.7214195 Z M31.5014155,33.8054195 C30.9254126,33.8054195 30.4194176,33.6814208 29.9834155,33.4334195 C29.5474133,33.1854183 29.2114166,32.8314218 28.9754155,32.3714195 C28.7394143,31.9114172 28.6214155,31.3774226 28.6214155,30.7694195 C28.6214155,30.1534164 28.7394143,29.6154218 28.9754155,29.1554195 C29.2114166,28.6954172 29.5474133,28.3414208 29.9834155,28.0934195 C30.4194176,27.8454183 30.9254126,27.7214195 31.5014155,27.7214195 C32.0774183,27.7214195 32.5834133,27.8454183 33.0194155,28.0934195 C33.4554176,28.3414208 33.7914143,28.6954172 34.0274155,29.1554195 C34.2634166,29.6154218 34.3814155,30.1534164 34.3814155,30.7694195 C34.3814155,31.3774226 34.2634166,31.9114172 34.0274155,32.3714195 C33.7914143,32.8314218 33.4554176,33.1854183 33.0194155,33.4334195 C32.5834133,33.6814208 32.0774183,33.8054195 31.5014155,33.8054195 Z M31.5014155,32.8454195 C32.0374181,32.8454195 32.447414,32.6694213 32.7314155,32.3174195 C33.0154169,31.9654178 33.1574155,31.4494229 33.1574155,30.7694195 C33.1574155,30.0974162 33.0134169,29.5834213 32.7254155,29.2274195 C32.437414,28.8714177 32.0294181,28.6934195 31.5014155,28.6934195 C30.9734128,28.6934195 30.5654169,28.8714177 30.2774155,29.2274195 C29.989414,29.5834213 29.8454155,30.0974162 29.8454155,30.7694195 C29.8454155,31.4494229 29.987414,31.9654178 30.2714155,32.3174195 C30.5554169,32.6694213 30.9654128,32.8454195 31.5014155,32.8454195 Z M45.7552336,27.8654195 L46.9552336,27.8654195 L44.7112336,33.7214195 L43.6192336,33.7214195 L42.0712336,29.5334195 L40.5232336,33.7214195 L39.4192336,33.7214195 L37.1872336,27.8654195 L38.4472336,27.8654195 L40.0312336,32.2694195 L41.6272336,27.8654195 L42.5752336,27.8654195 L44.1712336,32.2934195 L45.7552336,27.8654195 Z M57.4530518,25.2614195 L58.4370518,25.2614195 L58.4370518,33.7214195 L57.3210518,33.7214195 L57.3330518,27.6014195 L54.8130518,32.3654195 L53.9730518,32.3654195 L51.4410518,27.6614195 L51.4530518,33.7214195 L50.3370518,33.7214195 L50.3370518,25.2614195 L51.3330518,25.2614195 L54.4050518,31.1174195 L57.4530518,25.2614195 Z M67.59087,27.8654195 L67.59087,33.7214195 L66.41487,33.7214195 L66.41487,32.7734195 C66.2308691,33.1094212 65.9768716,33.3654195 65.65287,33.5414195 C65.3288684,33.7174204 64.966872,33.8054195 64.56687,33.8054195 C63.1428629,33.8054195 62.43087,33.0214274 62.43087,31.4534195 L62.43087,27.8654195 L63.64287,27.8654195 L63.64287,31.4414195 C63.64287,31.9134219 63.7388691,32.2614184 63.93087,32.4854195 C64.122871,32.7094206 64.418868,32.8214195 64.81887,32.8214195 C65.2908724,32.8214195 65.6688686,32.669421 65.95287,32.3654195 C66.2368714,32.061418 66.37887,31.657422 66.37887,31.1534195 L66.37887,27.8654195 L67.59087,27.8654195 Z M73.5286882,33.8054195 C72.5126831,33.8054195 71.7006912,33.557422 71.0926882,33.0614195 L71.4646882,32.1854195 C72.0646912,32.6494218 72.7646842,32.8814195 73.5646882,32.8814195 C73.9566902,32.8814195 74.2566872,32.8154202 74.4646882,32.6834195 C74.6726892,32.5514189 74.7766882,32.3654207 74.7766882,32.1254195 C74.7766882,31.9174185 74.7066889,31.7534201 74.5666882,31.6334195 C74.4266875,31.5134189 74.1846899,31.4134199 73.8406882,31.3334195 L72.8686882,31.1174195 C72.3486856,30.9974189 71.9566895,30.8014209 71.6926882,30.5294195 C71.4286869,30.2574182 71.2966882,29.9134216 71.2966882,29.4974195 C71.2966882,28.9694169 71.5106861,28.5414212 71.9386882,28.2134195 C72.3666903,27.8854179 72.9286847,27.7214195 73.6246882,27.7214195 C74.0406903,27.7214195 74.4366863,27.7874189 74.8126882,27.9194195 C75.1886901,28.0514202 75.5126868,28.2374183 75.7846882,28.4774195 L75.4126882,29.3294195 C74.8366853,28.8734172 74.2406913,28.6454195 73.6246882,28.6454195 C73.2566864,28.6454195 72.9666893,28.7174188 72.7546882,28.8614195 C72.5426871,29.0054202 72.4366882,29.2014183 72.4366882,29.4494195 C72.4366882,29.6494205 72.5026875,29.8114189 72.6346882,29.9354195 C72.7666889,30.0594201 72.9766868,30.1534192 73.2646882,30.2174195 L74.2606882,30.4454195 C74.828691,30.5734202 75.2446869,30.7714182 75.5086882,31.0394195 C75.7726895,31.3074209 75.9046882,31.6574174 75.9046882,32.0894195 C75.9046882,32.6174222 75.6906903,33.035418 75.2626882,33.3434195 C74.8346861,33.6514211 74.2566918,33.8054195 73.5286882,33.8054195 Z M82.1425064,32.8694195 C82.3265073,32.8694195 82.5065055,32.8574196 82.6825064,32.8334195 L82.6225064,33.7574195 C82.4225054,33.7894197 82.2145075,33.8054195 81.9985064,33.8054195 C81.2385026,33.8054195 80.6725082,33.6194214 80.3005064,33.2474195 C79.9285045,32.8754177 79.7425064,32.337423 79.7425064,31.6334195 L79.7425064,28.8014195 L78.6025064,28.8014195 L78.6025064,27.8654195 L79.7425064,27.8654195 L79.7425064,26.1014195 L80.9545064,26.1014195 L80.9545064,27.8654195 L82.5625064,27.8654195 L82.5625064,28.8014195 L80.9545064,28.8014195 L80.9545064,31.5854195 C80.9545064,32.4414238 81.3505024,32.8694195 82.1425064,32.8694195 Z M92.7963246,29.2334195 L92.7963246,33.2174195 C92.4363228,33.4014204 91.9843273,33.547419 91.4403246,33.6554195 C90.8963218,33.7634201 90.3443274,33.8174195 89.7843246,33.8174195 C88.9283203,33.8174195 88.1883277,33.6454212 87.5643246,33.3014195 C86.9403214,32.9574178 86.4643262,32.4614228 86.1363246,31.8134195 C85.8083229,31.1654195 85.6443246,30.389424 85.6443246,29.4854195 C85.6443246,28.5974151 85.8083229,27.8274228 86.1363246,27.1754195 C86.4643262,26.5234163 86.9343215,26.0254212 87.5463246,25.6814195 C88.1583276,25.3374178 88.8803204,25.1654195 89.7123246,25.1654195 C90.3123276,25.1654195 90.864322,25.2534186 91.3683246,25.4294195 C91.8723271,25.6054204 92.3003228,25.8614178 92.6523246,26.1974195 L92.2083246,27.1094195 C91.8083226,26.7814179 91.4123265,26.5454202 91.0203246,26.4014195 C90.6283226,26.2574188 90.1963269,26.1854195 89.7243246,26.1854195 C88.81232,26.1854195 88.114327,26.4674167 87.6303246,27.0314195 C87.1463221,27.5954223 86.9043246,28.4134142 86.9043246,29.4854195 C86.9043246,30.581425 87.1523221,31.4114167 87.6483246,31.9754195 C88.1443246,32.5394223 88.8683198,32.8214195 89.8203246,32.8214195 C90.4443277,32.8214195 91.0603215,32.7294204 91.6683246,32.5454195 L91.6683246,30.1694195 L89.7003246,30.1694195 L89.7003246,29.2334195 L92.7963246,29.2334195 Z M99.2501427,33.8054195 C98.6741399,33.8054195 98.1681449,33.6814208 97.7321427,33.4334195 C97.2961406,33.1854183 96.9601439,32.8314218 96.7241427,32.3714195 C96.4881416,31.9114172 96.3701427,31.3774226 96.3701427,30.7694195 C96.3701427,30.1534164 96.4881416,29.6154218 96.7241427,29.1554195 C96.9601439,28.6954172 97.2961406,28.3414208 97.7321427,28.0934195 C98.1681449,27.8454183 98.6741399,27.7214195 99.2501427,27.7214195 C99.8261456,27.7214195 100.332141,27.8454183 100.768143,28.0934195 C101.204145,28.3414208 101.540142,28.6954172 101.776143,29.1554195 C102.012144,29.6154218 102.130143,30.1534164 102.130143,30.7694195 C102.130143,31.3774226 102.012144,31.9114172 101.776143,32.3714195 C101.540142,32.8314218 101.204145,33.1854183 100.768143,33.4334195 C100.332141,33.6814208 99.8261456,33.8054195 99.2501427,33.8054195 Z M99.2501427,32.8454195 C99.7861454,32.8454195 100.196141,32.6694213 100.480143,32.3174195 C100.764144,31.9654178 100.906143,31.4494229 100.906143,30.7694195 C100.906143,30.0974162 100.762144,29.5834213 100.474143,29.2274195 C100.186141,28.8714177 99.7781454,28.6934195 99.2501427,28.6934195 C98.7221401,28.6934195 98.3141442,28.8714177 98.0261427,29.2274195 C97.7381413,29.5834213 97.5941427,30.0974162 97.5941427,30.7694195 C97.5941427,31.4494229 97.7361413,31.9654178 98.0201427,32.3174195 C98.3041442,32.6694213 98.7141401,32.8454195 99.2501427,32.8454195 Z M109.435961,33.8174195 C108.635957,33.8174195 107.941964,33.6414213 107.353961,33.2894195 C106.765958,32.9374178 106.311963,32.4374228 105.991961,31.7894195 C105.671959,31.1414163 105.511961,30.3774239 105.511961,29.4974195 C105.511961,28.6094151 105.669959,27.8394228 105.985961,27.1874195 C106.301963,26.5354163 106.755958,26.0354213 107.347961,25.6874195 C107.939964,25.3394178 108.635957,25.1654195 109.435961,25.1654195 C110.243965,25.1654195 110.943958,25.3394178 111.535961,25.6874195 C112.127964,26.0354213 112.581959,26.5354163 112.897961,27.1874195 C113.213963,27.8394228 113.371961,28.6054151 113.371961,29.4854195 C113.371961,30.3654239 113.213963,31.1314163 112.897961,31.7834195 C112.581959,32.4354228 112.127964,32.9374178 111.535961,33.2894195 C110.943958,33.6414213 110.243965,33.8174195 109.435961,33.8174195 Z M109.435961,32.8094195 C110.283965,32.8094195 110.943959,32.5214224 111.415961,31.9454195 C111.887963,31.3694166 112.123961,30.5494248 112.123961,29.4854195 C112.123961,28.4214142 111.889963,27.6034224 111.421961,27.0314195 C110.953959,26.4594167 110.291965,26.1734195 109.435961,26.1734195 C108.595957,26.1734195 107.941963,26.4594167 107.473961,27.0314195 C107.005959,27.6034224 106.771961,28.4214142 106.771961,29.4854195 C106.771961,30.5494248 107.005959,31.3694166 107.473961,31.9454195 C107.941963,32.5214224 108.595957,32.8094195 109.435961,32.8094195 Z M120.245779,27.7214195 C121.645786,27.7214195 122.345779,28.5094116 122.345779,30.0854195 L122.345779,33.7214195 L121.133779,33.7214195 L121.133779,30.1454195 C121.133779,29.649417 121.03578,29.2854207 120.839779,29.0534195 C120.643778,28.8214184 120.337781,28.7054195 119.921779,28.7054195 C119.433777,28.7054195 119.041781,28.857418 118.745779,29.1614195 C118.449778,29.465421 118.301779,29.873417 118.301779,30.3854195 L118.301779,33.7214195 L117.089779,33.7214195 L117.089779,27.8654195 L118.277779,27.8654195 L118.277779,28.8014195 C118.46978,28.4494178 118.737777,28.1814204 119.081779,27.9974195 C119.425781,27.8134186 119.813777,27.7214195 120.245779,27.7214195 Z" id="#ShowMustGoOn" opacity="0.804911"></path>
                        <path d="M132.427887,0.420684897 L134.380855,0.420684897 L139.27994,7.04149411 L144.147722,0.420684897 L146.134773,0.420684897 L140.067998,8.60630462 L140.067998,14.7176117 L138.494663,14.7176117 L138.494663,8.60630462 L132.427887,0.420684897 Z M139.714454,7.62871238 L138.847227,7.63004019 L139.27994,7.04149411 L139.714454,7.62871238 Z M138.990387,8.25050309 L139.28133,7.85794718 L139.572273,8.25050309 L139.572273,8.46308357 L139.28272,8.85691316 L138.990387,8.46184362 L138.990387,8.25050309 Z M144.42034,1.49829525 L144.854443,1.27865352 L144.692957,1.49829525 L144.42034,1.49829525 Z M139.033468,14.1788065 L139.033468,13.6400013 L139.529192,13.6400013 L139.529192,14.1788065 L139.033468,14.1788065 Z M133.676149,1.27998133 L134.109273,1.49829525 L133.837691,1.49829525 L133.676149,1.27998133 Z" id="Path"></path>
                        <polygon id="Path" points="161.74777 14.7176117 160.157911 14.7176117 160.157911 0.420684897 175.192296 0.420684897 175.192296 1.96097132 161.74777 1.96097132 161.74777 6.71638435 170.092463 6.71638435 170.092463 8.25667077 161.74777 8.25667077"></polygon>
                        <polygon id="Path" points="186.676852 1.96097132 186.676852 0.420684897 199.570316 0.420684897 199.570316 1.96097132 194.266065 1.96097132 194.266065 14.7176117 192.692731 14.7176117 192.692731 1.96097132"></polygon>
                    </g>
                </g>
            </g>
        </g>
    </g>
</svg>