<svg xmlns="http://www.w3.org/2000/svg" width="200" height="34" viewBox="0 0 200 34">
    <g fill="none" fill-rule="evenodd">
        <g fill="#FFAE12">
            <path d="M7.346 7.54h7.714v7.54h-1.676c-.697 0-1.263-.566-1.263-1.263v-3.405H8.61c-.697 0-1.263-.565-1.263-1.263V7.54z" transform="translate(47.993)"/>
            <path fill-rule="nonzero" d="M8.081 0c2.65 0 5.002 1.247 6.476 3.173l-2.114 2.064-.028-.045c-.914-1.395-2.513-2.32-4.334-2.32-2.84 0-5.142 2.25-5.142 5.027 0 2.776 2.302 5.026 5.142 5.026.623 0 1.22-.108 1.772-.306v2.988c-.57.125-1.163.19-1.772.19C3.618 15.797 0 12.261 0 7.9 0 3.536 3.618 0 8.081 0z" transform="translate(47.993)"/>
        </g>
        <path fill="#FFAE12" d="M29.296 0L33.703 0 33.703 2.872 32.969 2.872 32.969 12.925 33.703 12.925 33.703 15.797 29.296 15.797 29.296 12.925 30.03 12.925 30.03 2.872 29.296 2.872zM8.145 0c1.982 0 3.653 1.45 3.95 3.388l.026.202c.117 1.14-.25 2.337-1.102 3.59 1.518 1.3 2.257 2.66 2.217 4.084l-.013.225c-.207 2.436-2.246 4.308-4.69 4.308H0V0h8.145zm-.023 9.335H2.94v3.59h5.183c.992 0 1.796-.804 1.796-1.795 0-.991-.804-1.795-1.796-1.795zm-.734-6.463h-4.45v3.59h4.45c.991 0 1.795-.803 1.795-1.795 0-.991-.804-1.795-1.795-1.795z"/>
        <g fill="#FFF" fill-rule="nonzero">
            <path d="M6.354.173c.94 0 1.879.122 2.817.365.966.25 1.896.719 2.79 1.401l.491.374-1.133 1.134-.375-.284c-.335-.254-.695-.472-1.08-.655-.393-.186-.79-.335-1.19-.448-.408-.115-.81-.201-1.206-.258-.395-.058-.755-.086-1.081-.086-.3 0-.648.021-1.044.063-.386.041-.772.114-1.16.217-.374.1-.73.24-1.07.419-.312.165-.57.374-.786.635-.087.102-.166.245-.233.43-.068.184-.1.365-.1.543 0 .327.074.59.221.806.173.255.388.473.65.656.278.196.576.354.893.476.346.133.661.242.936.323.144.04.284.077.422.111l.3.072.153.04c.075.019.145.038.21.057l2.401.63c.563.148 1.092.324 1.588.526.52.211.977.47 1.37.778.408.318.735.69.98 1.116.259.449.387.961.387 1.527 0 .742-.219 1.384-.657 1.904-.403.48-.912.865-1.52 1.157-.586.28-1.229.483-1.927.607-.681.122-1.33.183-1.948.183-.463 0-.942-.03-1.436-.087-.501-.058-1.001-.154-1.501-.288-.499-.133-.994-.304-1.486-.512-.504-.213-.986-.48-1.446-.798L.04 12.93l1.205-1.157.361.244c.348.236.727.443 1.14.623.418.184.841.335 1.27.455.428.12.851.21 1.268.267.418.057.802.086 1.151.086.376 0 .77-.024 1.18-.071.402-.047.792-.124 1.173-.232.368-.104.708-.243 1.019-.416.291-.162.535-.36.738-.6.09-.104.169-.243.236-.42.065-.17.097-.347.097-.536 0-.33-.072-.599-.212-.817-.165-.257-.363-.472-.594-.65-.245-.187-.51-.34-.793-.46-.311-.133-.58-.234-.822-.311-.173-.062-.337-.112-.493-.152l-.172-.046c-.113-.03-.22-.059-.317-.087l-2.864-.745c-.575-.15-1.108-.325-1.6-.528-.513-.21-.96-.464-1.342-.76-.403-.31-.718-.682-.943-1.111-.23-.44-.343-.948-.343-1.517 0-.726.208-1.358.624-1.877.389-.484.886-.87 1.487-1.159C3.07.68 3.701.48 4.387.356 5.058.234 5.714.173 6.354.173zm4.916 2.56l-.382-.382.322-.322c.094.062.186.126.278.193l.096.096-.314.414zM1.679 12.854l-.306.293c-.126-.075-.25-.154-.37-.235l.29-.43.04.027.04.026.306.319zM27.984 8.47l.54-.54v.54h-.54zm.54 6.273H26.93V.421h1.592v6.506h8.356V.42h1.593v14.322h-1.593V8.47h-8.356v6.273zm8.355-6.813l.54.54h-.54v-.54zm.54-1.003l-.54.54v-.54h.54zm-8.896.54l-.54-.54h.54v.54zm-.513-.077v.616h-.566V7.39h.566zm9.382 0h.567v.616h-.567V7.39zm.54-6.429v.54h-.513V.96h.513zm-.513 13.243v-.54h.513v.54h-.513zm-9.948 0v-.54h.513v.54h-.513zM27.984.96v.54h-.513V.96h.513zM52.52.421h1.956l4.908 6.633L64.26.42h1.99l-6.077 8.2v6.122h-1.576V8.621l-6.078-8.2zm7.299 7.221l-.869.001.434-.59.435.589zm-.726.623l.292-.393.291.393v.213l-.29.394-.293-.395v-.212zm5.44-6.764l.435-.22-.162.22h-.273zm-5.396 12.703v-.54h.496v.54h-.496zM53.77 1.282l.434.219h-.272l-.162-.219zM81.891 14.743L80.298 14.743 80.298.421 95.359.421 95.359 1.964 81.891 1.964 81.891 6.728 90.25 6.728 90.25 8.271 81.891 8.271zM106.863 1.964L106.863.421 119.779.421 119.779 1.964 114.466 1.964 114.466 14.743 112.89 14.743 112.89 1.964z" transform="translate(80.204 .45)"/>
        </g>
        <path fill="#FFF" fill-rule="nonzero" d="M107.67 26.158c.426 0 .8.092 1.123.274.324.183.569.441.736.776v-.913h1.14v5.122c0 .851-.225 1.494-.678 1.927-.452.434-1.12.65-2.002.65-.479 0-.933-.062-1.363-.188-.43-.125-.811-.306-1.146-.542l.354-.832c.365.235.716.405 1.055.507.338.103.701.154 1.089.154 1.042 0 1.563-.528 1.563-1.585v-.878c-.16.334-.403.595-.73.78-.327.187-.708.28-1.141.28-.487 0-.92-.114-1.3-.342-.38-.228-.675-.551-.884-.97-.21-.418-.314-.9-.314-1.448 0-.547.107-1.03.32-1.448.212-.419.507-.744.883-.976.377-.232.808-.348 1.295-.348zm-84.526.149l1.733 4.254 1.757-4.254h1.152l-3.32 7.607h-1.163l.97-2.19-2.338-5.417h1.209zM3.673 23.729c.562 0 1.093.085 1.59.257.499.17.908.416 1.227.735l-.41.867c-.373-.304-.755-.53-1.147-.679-.392-.148-.808-.222-1.249-.222-.578 0-1.032.12-1.363.36-.33.239-.496.572-.496.997 0 .365.144.641.433.827.29.187.753.356 1.392.508.67.152 1.21.31 1.625.473.415.164.745.388.993.673.247.285.37.656.37 1.112 0 .464-.123.87-.37 1.22-.248.35-.601.62-1.061.81-.46.19-1.006.286-1.637.286-.623 0-1.196-.084-1.717-.251-.52-.168-.967-.415-1.34-.742l.422-.867c.396.32.804.55 1.226.69.422.141.896.212 1.42.212.601 0 1.065-.113 1.392-.337.327-.224.49-.542.49-.952 0-.35-.152-.61-.456-.782-.304-.17-.79-.332-1.46-.484-.638-.137-1.163-.293-1.574-.468-.41-.175-.732-.413-.964-.713-.231-.3-.347-.682-.347-1.146 0-.472.123-.886.37-1.243.247-.358.599-.637 1.055-.839.457-.201.985-.302 1.586-.302zm195.812.091v8.041h-1.14v-.958c-.168.335-.411.591-.73.77-.32.179-.689.268-1.107.268-.48 0-.907-.121-1.283-.365-.377-.243-.67-.585-.879-1.026-.209-.441-.313-.947-.313-1.517 0-.578.104-1.084.313-1.517.21-.434.5-.768.873-1.004.372-.236.802-.354 1.289-.354.418 0 .785.09 1.1.268.316.18.557.432.725.759V23.82h1.152zM88.427 26.295v3.4c0 .448.091.779.274.992.182.212.464.319.844.319.449 0 .808-.145 1.078-.433.27-.29.405-.673.405-1.152v-3.126h1.152v5.566h-1.118v-.9c-.175.319-.416.562-.724.73-.308.167-.652.25-1.033.25-1.353 0-2.03-.745-2.03-2.235v-3.41h1.152zm-19.231-.137c.752 0 1.344.244 1.773.73.43.487.645 1.16.645 2.02v.364h-3.935c.083 1.179.669 1.768 1.756 1.768.639 0 1.217-.209 1.734-.627l.354.81c-.259.22-.578.395-.959.524-.38.13-.768.194-1.163.194-.89 0-1.591-.255-2.104-.764-.514-.51-.77-1.213-.77-2.11 0-.57.112-1.076.336-1.517.224-.441.54-.783.947-1.027.407-.243.869-.365 1.386-.365zm-19.962 0c.396 0 .772.063 1.13.189.357.125.665.302.923.53l-.353.81c-.548-.434-1.114-.65-1.7-.65-.35 0-.625.068-.827.205-.201.137-.302.323-.302.559 0 .19.063.344.188.462.126.118.325.207.6.268l.946.217c.54.121.935.31 1.186.564.25.255.376.588.376.998 0 .502-.203.9-.61 1.192-.407.293-.956.44-1.648.44-.966 0-1.737-.236-2.315-.708l.353-.833c.57.441 1.236.662 1.996.662.373 0 .658-.063.856-.188.197-.126.296-.302.296-.53 0-.198-.066-.354-.2-.468-.132-.114-.362-.21-.69-.285l-.923-.206c-.495-.114-.867-.3-1.118-.559-.251-.258-.376-.585-.376-.98 0-.502.203-.91.61-1.22.407-.313.94-.469 1.602-.469zm66.949 0c.753 0 1.344.244 1.774.73.43.487.644 1.16.644 2.02v.364h-3.935c.084 1.179.67 1.768 1.757 1.768.638 0 1.216-.209 1.733-.627l.354.81c-.259.22-.578.395-.958.524-.38.13-.768.194-1.164.194-.89 0-1.59-.255-2.104-.764-.513-.51-.77-1.213-.77-2.11 0-.57.112-1.076.336-1.517.225-.441.54-.783.947-1.027.407-.243.869-.365 1.386-.365zm-105.23-1.54v1.677h1.53v.89h-1.53v2.646c0 .814.377 1.22 1.13 1.22.175 0 .346-.01.513-.034l-.057.879c-.19.03-.388.045-.593.045-.722 0-1.26-.177-1.614-.53-.353-.354-.53-.865-.53-1.534v-2.692H8.718v-.89h1.084V24.62h1.152zm125.693-.798v8.041h-1.14v-.958c-.168.335-.41.591-.73.77-.32.179-.688.268-1.107.268-.479 0-.906-.121-1.283-.365-.376-.243-.669-.585-.878-1.026-.21-.441-.314-.947-.314-1.517 0-.578.105-1.084.314-1.517.209-.434.5-.768.872-1.004.373-.236.803-.354 1.29-.354.418 0 .784.09 1.1.268.316.18.557.432.724.759V23.82h1.152zm9.533 2.338c.395 0 .771.063 1.129.189.357.125.665.302.924.53l-.354.81c-.547-.434-1.114-.65-1.7-.65-.35 0-.625.068-.826.205-.202.137-.303.323-.303.559 0 .19.063.344.189.462.125.118.325.207.598.268l.947.217c.54.121.935.31 1.186.564.251.255.377.588.377.998 0 .502-.204.9-.61 1.192-.407.293-.957.44-1.649.44-.965 0-1.737-.236-2.315-.708l.353-.833c.57.441 1.236.662 1.997.662.372 0 .657-.063.855-.188.198-.126.297-.302.297-.53 0-.198-.067-.354-.2-.468-.133-.114-.363-.21-.69-.285l-.924-.206c-.494-.114-.867-.3-1.118-.559-.25-.258-.376-.585-.376-.98 0-.502.203-.91.61-1.22.407-.313.941-.469 1.603-.469zm29.729 0c.752 0 1.344.244 1.773.73.43.487.645 1.16.645 2.02v.364h-3.935c.083 1.179.669 1.768 1.756 1.768.639 0 1.217-.209 1.734-.627l.353.81c-.258.22-.577.395-.958.524-.38.13-.768.194-1.163.194-.89 0-1.591-.255-2.104-.764-.514-.51-.77-1.213-.77-2.11 0-.57.112-1.076.336-1.517.224-.441.54-.783.947-1.027.407-.243.869-.365 1.386-.365zm-158.551 0c.745 0 1.298.187 1.66.56.36.372.541.938.541 1.699v3.444h-1.106v-.923c-.145.326-.36.576-.645.747-.285.17-.618.256-.998.256-.365 0-.7-.074-1.003-.222-.305-.148-.542-.356-.713-.622-.171-.266-.257-.563-.257-.89 0-.402.105-.72.314-.952.209-.232.555-.397 1.038-.496.461-.095 1.089-.144 1.88-.148h.372v-.331c0-.426-.09-.734-.268-.924-.178-.19-.47-.285-.872-.285-.631 0-1.263.194-1.894.582l-.342-.81c.297-.206.656-.37 1.078-.496.422-.126.827-.189 1.215-.189zm105.514-1.54v1.677h1.528v.89h-1.528v2.646c0 .814.376 1.22 1.13 1.22.174 0 .345-.01.512-.034l-.057.879c-.19.03-.387.045-.593.045-.722 0-1.26-.177-1.614-.53-.353-.354-.53-.865-.53-1.534v-2.692h-1.084v-.89h1.084V24.62h1.152zm37.79 1.54c.547 0 1.028.118 1.443.354.414.236.734.572.958 1.01.224.437.336.948.336 1.534 0 .577-.112 1.085-.336 1.522-.224.437-.544.774-.958 1.01-.415.235-.896.353-1.443.353-.548 0-1.028-.118-1.443-.353-.414-.236-.734-.573-.958-1.01-.224-.437-.336-.945-.336-1.522 0-.586.112-1.097.336-1.535.224-.437.544-.773.958-1.009.415-.236.895-.354 1.443-.354zm28.452 0c.752 0 1.344.244 1.773.73.43.487.645 1.16.645 2.02v.364h-3.935c.083 1.179.669 1.768 1.756 1.768.639 0 1.217-.209 1.734-.627l.353.81c-.258.22-.578.395-.958.524-.38.13-.768.194-1.163.194-.89 0-1.591-.255-2.105-.764-.513-.51-.77-1.213-.77-2.11 0-.57.113-1.076.337-1.517.224-.441.54-.783.947-1.027.407-.243.868-.365 1.386-.365zm-92.264-1.54v1.677h1.528v.89H96.85v2.646c0 .814.376 1.22 1.13 1.22.174 0 .345-.01.512-.034l-.057.879c-.19.03-.387.045-.593.045-.722 0-1.26-.177-1.614-.53-.353-.354-.53-.865-.53-1.534v-2.692h-1.084v-.89h1.084V24.62h1.152zm-33.167-.798v8.041h-1.14v-.958c-.167.335-.41.591-.73.77-.32.179-.688.268-1.106.268-.48 0-.907-.121-1.284-.365-.376-.243-.669-.585-.878-1.026-.209-.441-.314-.947-.314-1.517 0-.578.105-1.084.314-1.517.21-.434.5-.768.873-1.004.372-.236.802-.354 1.289-.354.418 0 .785.09 1.1.268.316.18.557.432.724.759V23.82h1.152zm89.983 2.338c.388 0 .762.065 1.123.194.362.13.656.304.884.525l-.353.821c-.502-.41-1.023-.616-1.563-.616-.532 0-.948.173-1.249.52-.3.345-.45.834-.45 1.465 0 .623.148 1.104.445 1.443.296.338.714.507 1.254.507s1.061-.205 1.563-.616l.353.833c-.243.22-.547.394-.912.519s-.745.188-1.14.188c-.563 0-1.052-.118-1.466-.353-.415-.236-.734-.569-.958-.998-.225-.43-.337-.934-.337-1.512s.116-1.087.348-1.528c.232-.441.559-.783.98-1.027.423-.243.915-.365 1.478-.365zM80.154 23.82v3.388c.167-.335.41-.593.73-.776.319-.182.688-.274 1.106-.274.487 0 .916.118 1.289.354.373.236.663.57.872 1.004.21.433.314.939.314 1.517 0 .57-.104 1.076-.314 1.517-.209.44-.501.783-.878 1.026-.376.244-.804.365-1.283.365-.418 0-.787-.09-1.106-.268-.32-.179-.563-.435-.73-.77v.958h-1.152v-8.04h1.152zm60.808 2.475v5.566h-1.152v-5.566h1.152zm-85.576 0v5.566h-1.152v-5.566h1.152zm-13.33-.137c1.33 0 1.996.75 1.996 2.247v3.456H42.9v-3.399c0-.471-.093-.817-.28-1.038-.186-.22-.477-.33-.872-.33-.464 0-.837.144-1.118.433-.281.29-.422.677-.422 1.164v3.17h-1.152v-5.566h1.13v.89c.182-.335.436-.59.763-.764.327-.175.696-.263 1.107-.263zm124.552.149l1.733 4.254 1.757-4.254h1.152l-2.418 5.554h-1.038l-2.395-5.554h1.209zm17.847-.149l.08.97-.696.068c-.548.054-.941.22-1.18.502-.24.282-.36.639-.36 1.072v3.091h-1.152v-5.566h1.118v.97c.296-.654.9-1.015 1.813-1.084l.377-.023zm-148.563.137v5.566H34.74v-5.566h1.152zM18.44 29.261h-.205c-.593 0-1.05.026-1.369.08-.32.053-.547.142-.684.268-.137.125-.205.306-.205.541 0 .267.097.489.29.668.194.178.443.268.748.268.418 0 .76-.143 1.026-.428.266-.285.4-.652.4-1.1v-.297zm178.342-2.179c-.502 0-.892.17-1.17.508-.277.338-.416.82-.416 1.443 0 .623.14 1.112.422 1.465.281.354.67.53 1.164.53.501 0 .887-.17 1.157-.513.27-.342.405-.828.405-1.46 0-.63-.135-1.117-.405-1.46-.27-.342-.656-.513-1.157-.513zm-62.839 0c-.502 0-.891.17-1.169.508-.278.338-.416.82-.416 1.443 0 .623.14 1.112.422 1.465.281.354.669.53 1.163.53.502 0 .888-.17 1.158-.513.27-.342.405-.828.405-1.46 0-.63-.135-1.117-.405-1.46-.27-.342-.656-.513-1.158-.513zm-52.227 0c-.502 0-.887.171-1.157.514-.27.342-.405.828-.405 1.46 0 .63.135 1.117.405 1.46.27.342.655.513 1.157.513.495 0 .88-.175 1.158-.525.278-.35.416-.84.416-1.471 0-.624-.137-1.105-.41-1.443-.274-.339-.662-.508-1.164-.508zm-20.737 0c-.502 0-.891.17-1.169.508-.277.338-.416.82-.416 1.443 0 .623.14 1.112.422 1.465.281.354.669.53 1.163.53.502 0 .888-.17 1.158-.513.27-.342.405-.828.405-1.46 0-.63-.135-1.117-.405-1.46-.27-.342-.656-.513-1.158-.513zm99.682 0c-.502 0-.89.17-1.163.508-.274.338-.411.827-.411 1.466 0 .646.135 1.136.405 1.47.27.335.66.503 1.169.503.51 0 .9-.168 1.17-.502.269-.335.404-.825.404-1.471 0-.64-.137-1.128-.41-1.466-.274-.339-.662-.508-1.164-.508zm-52.717 0c-.502 0-.896.164-1.18.49-.286.328-.428.78-.428 1.358 0 .578.144 1.03.433 1.357.289.327.68.49 1.175.49.494 0 .882-.163 1.163-.49.282-.327.422-.779.422-1.357 0-.57-.139-1.02-.416-1.352-.278-.33-.667-.496-1.17-.496zm81.191-.08c-.44 0-.792.14-1.055.417-.262.277-.42.675-.473 1.192h2.931c-.023-.517-.154-.915-.393-1.192-.24-.278-.576-.417-1.01-.417zm-72.93 0c-.44 0-.792.14-1.054.417-.263.277-.42.675-.474 1.192h2.932c-.023-.517-.154-.915-.394-1.192-.24-.278-.576-.417-1.01-.417zm-46.986 0c-.442 0-.793.14-1.056.417-.262.277-.42.675-.473 1.192h2.931c-.022-.517-.154-.915-.393-1.192-.24-.278-.576-.417-1.01-.417zm106.711 0c-.44 0-.792.14-1.055.417-.262.277-.42.675-.473 1.192h2.931c-.022-.517-.154-.915-.393-1.192-.24-.278-.576-.417-1.01-.417zM35.984 23.81v1.197H34.66V23.81h1.323zm19.493 0v1.197h-1.323V23.81h1.323zm85.576 0v1.197h-1.323V23.81h1.323z"/>
    </g>
</svg>
