<?xml version="1.0" encoding="UTF-8"?>
<svg width="308px" height="292px" viewBox="0 0 308 292" version="1.1" xmlns="http://www.w3.org/2000/svg" xmlns:xlink="http://www.w3.org/1999/xlink">
    <!-- Generator: Sketch 59.1 (86144) - https://sketch.com -->
    <title>Group Copy</title>
    <desc>Created with Sketch.</desc>
    <g id="Page-1" stroke="none" stroke-width="1" fill="none" fill-rule="evenodd">
        <g id="2" transform="translate(-533.000000, -220.000000)">
            <g id="Group-Copy" transform="translate(533.000000, 220.000000)">
                <path d="M297.559359,162.2103 C310.682959,132.1544 312.105359,93.5151 294.439459,65.023 C277.764059,38.1269 248.642659,24.3446 217.611659,23.5536 C205.661259,23.2491 193.826359,26.096 182.541659,30.0412 C157.578259,38.7695 134.722559,52.8668 109.599559,61.1233 C91.2882592,67.1405 71.8835592,70.0175 54.4220592,78.1774 C-13.3141408,109.8307 -18.1000408,208.8387 41.6365592,250.8387 C64.0050592,266.5663 91.5318592,270.585 118.259259,267.8011 C132.968359,266.2695 147.006859,261.8371 161.484259,258.9776 C178.303859,255.6561 195.367759,252.8505 211.378859,246.4861 C236.283459,236.5867 257.067159,217.2121 274.588159,197.3832 C283.898859,186.8461 291.920859,175.1253 297.559359,162.2103" id="Fill-4" fill="#222534" fill-rule="nonzero"></path>
                <path d="M36.5811592,0 C36.5811592,0 46.0780592,25.9238 35.2952592,30.8847 C35.2952592,30.8847 48.2417592,34.2244 53.2502592,46.8433 C53.2502592,46.8433 47.2813592,28.7238 56.9833592,24.8353 C56.9833592,24.8353 46.0703592,27.3581 36.5811592,0" id="Fill-5" fill="#F5BA51"></path>
                <path d="M29.9633592,45.0401 C29.9633592,45.0401 40.4437592,54.0253 36.9535592,58.8252 C36.9535592,58.8252 43.4166592,57.1165 48.6862592,61.3963 C48.6862592,61.3963 41.6526592,54.9521 44.9335592,50.8844 C44.9335592,50.8844 40.7909592,54.6525 29.9633592,45.0401" id="Fill-6" fill="#F5BA51"></path>
                <path d="M71.6987592,17.283 C71.6987592,17.283 70.3659592,31.0226 64.4320592,30.9232 C64.4320592,30.9232 69.5441592,35.2324 69.0688592,42.0035 C69.0688592,42.0035 70.3022592,32.5451 75.5165592,32.893 C75.5165592,32.893 70.0523592,31.6673 71.6987592,17.283" id="Fill-7" fill="#F5BA51"></path>
                <polyline id="Fill-8" fill="#F0A73E" points="271.714659 159.7757 269.639859 149.2239 259.769859 144.9504 269.164559 139.7158 270.178159 129.0093 278.060159 136.3264 288.555959 133.9821 284.032559 143.7394 289.505159 152.9962 278.828759 151.7103 271.714659 159.7757"></polyline>
                <polyline id="Fill-9" fill="#F0A73E" points="249.282459 81.1412 247.307759 79.1154 244.518959 79.5935 245.835659 77.0896 244.518959 74.585 247.307759 75.0631 249.282459 73.0366 249.689859 75.8366 252.227359 77.0896 249.689859 78.3419 249.282459 81.1412"></polyline>
                <polyline id="Fill-10" fill="#F0A73E" points="237.491659 124.8989 234.604859 115.6274 225.329859 112.749 233.255959 107.1378 233.127159 97.4281 240.913259 103.2325 250.107759 100.1091 246.993459 109.3071 252.804859 117.0876 243.095159 116.9679 237.491659 124.8989"></polyline>
                <path d="M97.3523592,81.1083 C98.7712592,90.8012 101.706359,100.3093 105.666259,109.2854 C110.671959,120.6317 118.029659,124.6938 130.047959,126.5089 C133.574559,127.0416 137.201259,127.4441 140.683759,126.6734 C143.754659,125.9944 146.558159,124.4348 149.184559,122.7051 C156.689259,117.761 163.202059,111.1796 167.486759,103.2808 C169.028859,100.4374 170.285359,97.4155 170.920959,94.2445 C171.828859,89.7183 171.450159,85.0339 170.767659,80.4692 C170.297959,77.3178 169.667959,74.1398 168.226659,71.2978 C166.592859,68.0771 163.997959,65.4507 161.281959,63.0714 C152.297459,55.1999 140.727159,49.2639 128.834159,50.372 C121.519859,51.0538 114.711659,54.3172 107.536659,55.895 C106.495759,56.1232 105.312059,56.0945 104.116459,56.0651 C101.546759,56.0021 98.9252592,55.9398 97.5672592,58.4402 C96.8525592,59.7555 96.6943592,61.2934 96.5914592,62.7872 C96.1714592,68.9094 96.4654592,75.0449 97.3523592,81.1083" id="Fill-11" fill="#15212B"></path>
                <path d="M117.060159,38.7975 C121.204859,43.2691 125.349559,47.7414 129.493559,52.213 C131.087459,53.9329 132.710759,55.6969 133.653659,57.8445 C135.078859,61.0904 134.783459,64.792 134.621059,68.3326 C134.347359,74.2959 134.537059,80.3509 136.151259,86.0986 C137.566659,91.14 140.043959,95.8237 142.836959,100.2533 C145.676159,104.7571 148.927659,109.1139 153.217959,112.2674 C157.977959,115.7674 163.770459,117.5993 169.579059,118.6836 C180.079059,120.645 190.999759,120.3244 201.366759,117.7505 C208.440959,115.9949 215.867259,112.2723 219.818759,105.77 C223.398559,99.8781 224.492659,87.3194 219.642359,81.8069 C224.831459,80.2704 229.204359,75.6644 229.662159,70.2723 C230.285159,62.9447 224.049559,56.777 217.494059,53.4429 C210.939959,50.1081 203.498259,48.3441 197.739359,43.771 C191.970659,39.1909 188.577059,32.3463 184.234259,26.397 C171.555159,9.0258 149.345559,-0.896 127.946559,1.2516 C125.301959,9.877 121.962259,17.8682 119.317659,26.4929 C118.029659,30.6943 116.729759,34.9706 116.719959,39.3652 C116.298559,38.9235 117.481559,39.2392 117.060159,38.7975" id="Fill-12" fill="#15212B"></path>
                <path d="M95.0955592,24.7058 C95.0955592,24.7058 95.2236592,16.2869 88.2397592,17.5301 C81.2558592,18.774 82.7755592,38.9865 91.6676592,39.8965 C100.559759,40.8065 95.4147592,24.0646 95.4147592,24.0646 L95.0955592,24.7058" id="Fill-13" fill="#E78E77"></path>
                <path d="M129.588759,1.4 C129.588759,1.4 110.896659,-1.2579 101.894659,8.7409 C92.8926592,18.7397 88.0766592,42.245 90.0030592,54.3823 C91.9294592,66.5203 104.322959,74.2273 122.690959,75.9612 C141.059659,77.6951 154.284059,72.8784 162.313759,55.9237 C170.344159,38.969 165.527459,16.8133 165.527459,16.8133 C165.527459,16.8133 152.219759,2.5557 129.588759,1.4" id="Fill-14" fill="#EEA182"></path>
                <path d="M117.834359,41.3504 C117.765059,41.3504 117.695059,41.3336 117.630659,41.2965 L110.832259,37.4115 C110.729359,37.3527 110.657259,37.2533 110.634159,37.1378 C110.610359,37.0223 110.636259,36.9019 110.706959,36.8074 L122.361259,21.2688 C122.499159,21.0868 122.758159,21.0504 122.938059,21.1862 C123.120059,21.322 123.156459,21.581 123.020659,21.7623 L111.646359,36.9278 L118.038759,40.5811 C118.236859,40.6945 118.305459,40.9458 118.192759,41.1432 C118.116459,41.2762 117.977159,41.3504 117.834359,41.3504" id="Fill-15" fill="#000105"></path>
                <path d="M129.783359,29.8753 C129.783359,29.8753 135.448459,22.4273 141.924159,27.5842 L141.070859,29.3776 C141.070859,29.3776 136.581759,26.9619 129.783359,29.8753" id="Fill-16" fill="#000105"></path>
                <path d="M111.698859,28.9345 C111.698859,28.9345 109.665359,20.4827 101.823959,24.0562 L102.869059,25.1013 C102.869059,25.1013 107.820159,23.8245 111.698859,28.9345" id="Fill-17" fill="#000105"></path>
                <path d="M113.035159,45.5301 C114.552059,46.3855 116.130559,47.0001 117.718859,47.1989 C119.303659,47.3963 120.865359,47.166 122.282859,46.5136 L123.339159,45.9907 C123.664659,45.759 123.984559,45.5196 124.319159,45.297 C124.669159,45.0968 124.959659,44.8063 125.263459,44.5319 C125.562359,44.2533 125.878059,43.9887 126.191659,43.7171 C126.734159,43.0899 127.342459,42.5047 127.903159,41.8656 C128.440759,41.2069 128.978359,40.5398 129.588759,39.8965 C129.298259,40.7176 128.935659,41.5149 128.571659,42.3199 C128.152359,43.0899 127.652559,43.8249 127.156959,44.5662 C126.008959,45.9214 124.711859,47.2759 122.956259,48.0158 C122.553059,48.2538 122.067259,48.3217 121.624859,48.475 C121.179659,48.6339 120.705059,48.6794 120.234659,48.7193 C119.764959,48.7879 119.294559,48.7452 118.826959,48.706 C118.355859,48.7018 117.905759,48.5639 117.457759,48.4526 C115.674859,47.9675 114.115259,46.9098 113.035159,45.5301" id="Fill-18" fill="#000105"></path>
                <path d="M102.645059,42.1722 C98.8895592,42.1722 95.8452592,39.1279 95.8452592,35.3731 C95.8452592,31.6176 98.8895592,28.5733 102.645059,28.5733 C106.399859,28.5733 109.444159,31.6176 109.444159,35.3731 C109.444159,39.1279 106.399859,42.1722 102.645059,42.1722" id="Fill-19" fill="#DE7D63"></path>
                <path d="M141.798859,47.6427 C138.043359,47.6427 134.999759,44.5984 134.999759,40.8436 C134.999759,37.0881 138.043359,34.0438 141.798859,34.0438 C145.554359,34.0438 148.598659,37.0881 148.598659,40.8436 C148.598659,44.5984 145.554359,47.6427 141.798859,47.6427" id="Fill-20" fill="#DE7D63"></path>
                <path d="M128.271359,1.0794 C127.800959,1.1368 123.635259,22.2054 166.960359,40.9388 L168.132859,13.6668 C168.132859,13.6668 146.217959,-1.1032 128.271359,1.0794" id="Fill-21" fill="#15212B"></path>
                <path d="M95.0955592,20.4603 C95.0955592,20.4603 120.420159,14.4977 128.271359,1.0794 C128.271359,1.0794 100.604559,-6.8852 95.0955592,20.4603" id="Fill-22" fill="#15212B"></path>
                <path d="M158.624759,42.364 C158.624759,42.364 166.741959,31.9508 174.173859,38.0268 C181.605759,44.1028 177.388259,63.7112 158.624759,58.6509 L158.624759,42.364" id="Fill-23" fill="#EEA182"></path>
                <path d="M162.313759,49.9534 C162.630159,47.5867 163.905559,45.2711 165.913159,43.7941 C166.401059,43.4084 166.968759,43.1382 167.523159,42.8666 C168.109759,42.6622 168.686559,42.4326 169.303259,42.3675 C169.903859,42.2226 170.521959,42.2597 171.125359,42.2499 C171.729459,42.2884 172.326559,42.4025 172.908959,42.5117 C171.711259,42.5887 170.544359,42.6622 169.443259,42.9947 C168.333759,43.2754 167.302659,43.7836 166.399659,44.457 C165.484059,45.1157 164.695859,45.9543 164.020359,46.8881 C163.359559,47.8317 162.770859,48.8502 162.313759,49.9534" id="Fill-24" fill="#000105"></path>
                <path d="M163.390359,47.0918 C164.504059,46.2105 165.991559,45.8563 167.418859,45.9242 C168.844759,46.0061 170.287459,46.5164 171.300359,47.5132 C169.960559,47.0904 168.688659,46.809 167.375459,46.7453 C166.062959,46.6669 164.766559,46.8125 163.390359,47.0918" id="Fill-25" fill="#000105"></path>
                <path d="M151.738159,106.6653 C151.738159,106.6653 132.886459,107.6782 120.936059,108.3705 C115.665759,108.6834 111.736659,108.9221 111.349559,108.9879 C110.353459,109.1608 112.033459,84.2394 112.741859,74.2987 C112.923159,71.82 113.037959,70.2716 113.037959,70.2716 L144.712959,65.4038 L151.738159,106.6653" id="Fill-26" fill="#EEA182"></path>
                <path d="M110.946359,107.6726 C110.703459,102.242 112.013159,82.894 112.616559,74.424 C112.616559,74.424 112.655059,74.4366 112.730659,74.4597 C112.119559,83.0368 110.823159,102.2616 111.073759,107.5935 L110.946359,107.6726" id="Fill-27" fill="#11141B"></path>
                <path d="M111.073759,107.5935 C110.823159,102.2616 112.119559,83.0368 112.730659,74.4597 C113.602159,74.7257 119.426159,76.3938 128.399459,76.3938 C129.714059,76.3938 131.095159,76.3581 132.539259,76.2769 C132.539259,76.2769 134.033059,95.011 125.073759,104.9839 L118.509159,102.991 L111.073759,107.5935" id="Fill-28" fill="#DE7D63"></path>
                <path d="M185.018259,235.5976 C185.018259,235.5976 226.844659,253.6842 235.552659,197.232 L221.313259,162.8809 L177.640959,199.9522 L185.018259,235.5976" id="Fill-29" fill="#15212B"></path>
                <path d="M238.436659,209.7452 C238.436659,209.7452 233.553459,217.3465 223.925659,219.2736 C220.804359,219.9078 217.179759,219.933 213.062359,218.9117 C196.260959,214.7362 222.014659,200.62 222.014659,200.62 L224.015959,199.0387 L235.397959,190.029 L238.436659,209.7452" id="Fill-30" fill="#FFFFFE"></path>
                <path d="M224.015959,199.0387 L223.925659,204.3342 L223.925659,219.2736 C220.804359,219.9078 217.179759,219.933 213.062359,218.9117 C196.260959,214.7362 222.014659,200.62 222.014659,200.62 L224.015959,199.0387" id="Fill-31" fill="#B2D2D1"></path>
                <path d="M107.059959,108.381 L61.0426592,126.0707 C59.1526592,124.8723 56.3799592,124.3998 54.0405592,127.0983 C51.6318592,129.8773 52.5845592,131.5118 52.5845592,131.5118 C52.5845592,131.5118 38.6104592,207.6368 60.6751592,252.8701 C60.6751592,252.8701 109.780859,243.908 151.736759,208.7393 L140.746759,191.8231 L92.3018592,201.3844 L89.5823592,145.4866 L107.059959,108.381" id="Fill-32" fill="#15212B"></path>
                <polyline id="Fill-33" fill="#15212B" points="151.736759 100.9918 221.313259 116.2707 201.865159 189.903 185.018259 197.7934 192.690959 262.4727 99.9787592 270.6081 79.0795592 142.968 98.2112592 115.5553 118.509159 102.991 133.841959 107.6453 151.736759 100.9918"></polyline>
                <path d="M117.670559,196.378 C114.505159,197.5547 111.313159,198.6453 108.117659,199.7233 C104.922159,200.8027 101.704259,201.8128 98.4989592,202.8607 C95.2726592,203.8442 92.0582592,204.8627 88.8228592,205.8154 L83.9641592,207.228 C82.3352592,207.6704 80.7154592,208.1401 79.0795592,208.558 C80.6587592,207.9616 82.2554592,207.4163 83.8423592,206.843 L88.6317592,205.2106 C91.8279592,204.1333 95.0451592,203.1218 98.2511592,202.076 C101.477459,201.0932 104.691159,200.0726 107.927259,199.122 C111.163359,198.17 114.402959,197.2313 117.670559,196.378" id="Fill-34" fill="#B2D2D1"></path>
                <path d="M90.7926592,204.8613 C90.3236592,200.7831 89.9442592,196.6993 89.5788592,192.6141 C89.2113592,188.5289 88.9180592,184.4381 88.5834592,180.3508 C88.3160592,176.2579 88.0129592,172.1678 87.7784592,168.0735 L87.4438592,161.9296 C87.3619592,159.8793 87.2520592,157.8318 87.1953592,155.7801 C87.4382592,157.8178 87.6279592,159.8597 87.8463592,161.9002 L88.4105592,168.0266 C88.7759592,172.1125 89.0720592,176.2026 89.4045592,180.2906 C89.6691592,184.3828 89.9757592,188.4729 90.2081592,192.5679 C90.4419592,196.6622 90.6617592,200.7586 90.7926592,204.8613" id="Fill-35" fill="#B2D2D1"></path>
                <path d="M75.9722592,203.8001 C78.4474592,203.5649 80.9135592,203.5782 83.3775592,203.6538 C85.8408592,203.7532 88.3020592,203.9163 90.7534592,204.33 C88.2782592,204.5673 85.8121592,204.5533 83.3481592,204.4756 C80.8855592,204.3748 78.4243592,204.2117 75.9722592,203.8001" id="Fill-36" fill="#B2D2D1"></path>
                <path d="M84.8300592,246.0458 C88.6597592,244.5184 92.4670592,242.949 96.2519592,241.3299 C100.036859,239.7101 103.816159,238.0812 107.544359,236.3375 C109.426659,235.5059 111.283759,234.6211 113.151359,233.7573 L118.705859,231.0644 C120.562259,230.174 122.398359,229.243 124.230259,228.3029 C126.084559,227.4048 127.882859,226.401 129.732959,225.4868 C126.226659,227.6561 122.651059,229.7197 118.993559,231.6286 C115.349359,233.5641 111.627459,235.3477 107.885259,237.0851 C104.119959,238.7721 100.335059,240.4157 96.4906592,241.9137 C92.6483592,243.4138 88.7745592,244.8376 84.8300592,246.0458" id="Fill-37" fill="#B2D2D1"></path>
                <path d="M58.0445592,128.1945 C59.8071592,128.6285 61.4661592,129.2928 63.1013592,130.0103 C64.7260592,130.7516 66.3255592,131.5489 67.8221592,132.5772 C66.0588592,132.1446 64.3991592,131.481 62.7646592,130.7614 C61.1413592,130.018 59.5411592,129.2214 58.0445592,128.1945" id="Fill-38" fill="#B2D2D1"></path>
                <polyline id="Fill-39" fill="#FFFFFE" points="133.841959 107.6453 125.243859 126.0693 108.442459 113.0647 103.171459 108.9879 111.670859 90.6878 117.494159 95.1433 133.841959 107.6453"></polyline>
                <path d="M117.494159,95.1433 C115.476059,99.0969 110.921159,108.0324 108.442459,113.0647 L103.171459,108.9879 L111.670859,90.6878 L117.494159,95.1433" id="Fill-40" fill="#B2D2D1"></path>
                <polyline id="Fill-41" fill="#FFFFFE" points="157.387859 107.6453 143.263259 129.9648 141.385859 125.5254 133.841959 107.6453 149.020759 90.6878 151.738159 90.6878 157.387859 107.6453"></polyline>
                <path d="M138.717459,104.9356 C138.717459,104.9356 149.342059,118.937 149.342059,119.217 C149.342059,119.4228 144.194259,123.3757 141.385859,125.5254 L133.841959,107.6453 L149.020759,90.6878 L151.738159,90.6878 L138.717459,104.9356" id="Fill-42" fill="#B2D2D1"></path>
                <polyline id="Fill-43" fill="#BB4545" points="237.901859 283.8843 202.973259 265.6913 166.184059 291.2882 166.216959 205.5858 166.216959 200.6032 210.657859 196.5264 210.953959 197.4903 211.539159 199.3684 237.901859 283.8843"></polyline>
                <path d="M186.945359,237.0291 C177.894359,237.0291 170.384759,234.4146 166.208559,232.5666 L166.213459,215.9038 C166.523559,215.978 166.835059,216.0501 167.147959,216.1194 C169.231159,216.5807 171.364059,216.9272 173.530559,217.1491 C174.370559,217.2317 175.210559,217.2975 176.050559,217.3381 C177.129259,217.4046 178.207959,217.4375 179.303459,217.4375 C180.678959,217.4375 182.037659,217.3885 183.388659,217.2891 C184.228659,217.2317 185.068659,217.1491 185.900959,217.0504 C196.232259,215.8457 205.708859,211.8396 213.550959,205.814 L219.173359,223.8285 C218.810759,224.1659 218.448859,224.4956 218.077859,224.8085 C207.381159,234.2144 196.334459,237.0291 186.945359,237.0291" id="Fill-44" fill="#A23436"></path>
                <polyline id="Fill-45" fill="#DA6C69" points="237.901859 283.8843 209.957859 200.62 211.539159 199.3684 237.901859 283.8843"></polyline>
                <path d="M235.554059,161.1869 C235.554059,190.0199 213.861059,213.7891 185.900959,217.0504 C185.068659,217.1491 184.228659,217.2317 183.388659,217.2891 C182.037659,217.3885 180.678959,217.4375 179.303459,217.4375 C178.207959,217.4375 177.129259,217.4046 176.050559,217.3381 C175.210559,217.2975 174.370559,217.2317 173.530559,217.1491 C171.364059,216.9272 169.231159,216.5807 167.147959,216.1194 C166.332459,215.9381 165.524659,215.7407 164.726659,215.5265 C163.054359,215.082 161.424059,214.5633 159.817559,213.962 C158.960759,213.6575 158.120759,213.3194 157.289859,212.9652 C155.082059,212.0265 152.949159,210.9478 150.898159,209.7452 C150.165259,209.3168 149.448459,208.8723 148.740759,208.4187 C146.063959,206.6813 143.552359,204.7297 141.212959,202.5716 C140.603259,202.02 140.001959,201.4516 139.425859,200.858 C135.884559,197.3006 132.820659,193.2812 130.333559,188.8838 C129.913559,188.1593 129.518059,187.4173 129.130959,186.6683 C127.779959,183.9999 126.627059,181.2076 125.704459,178.3173 C125.449659,177.5347 125.219359,176.7437 125.004459,175.9457 C124.238659,173.1198 123.687059,170.2127 123.365759,167.2314 C123.275459,166.4159 123.209659,165.5927 123.159959,164.7695 C123.085759,163.583 123.044459,162.3888 123.044459,161.1869 C123.044459,160.5772 123.052859,159.9759 123.078059,159.3753 C123.102559,158.5353 123.143859,157.703 123.209659,156.8791 C123.382559,154.5901 123.695459,152.3333 124.131559,150.1346 C124.296759,149.3023 124.478059,148.4784 124.683159,147.6629 C125.252259,145.341 125.968359,143.0765 126.825159,140.8855 C127.129659,140.0784 127.467759,139.2797 127.821259,138.4887 C128.916759,135.9764 130.210359,133.5635 131.659359,131.2654 C132.136759,130.5003 132.639359,129.7506 133.158059,129.0093 C134.492259,127.0983 135.941959,125.2783 137.498759,123.5493 C138.132959,122.8493 138.774859,122.1654 139.450359,121.4983 C141.831059,119.0931 144.441359,116.9028 147.232959,114.9757 C148.180059,114.3079 149.152359,113.6821 150.140759,113.0731 C158.639459,107.9092 168.621459,104.9356 179.303459,104.9356 C210.369459,104.9356 235.554059,130.1209 235.554059,161.1869" id="Fill-46" fill="#E98A55"></path>
                <path d="M124.131559,150.1346 C124.296759,149.3023 124.478059,148.4784 124.683159,147.6629 C128.521259,147.63 132.367759,147.49 136.205159,147.2191 C136.241559,147.2163 136.277259,147.2149 136.311559,147.2149 C137.794159,147.2149 137.743059,149.5767 136.205159,149.6894 C132.178059,149.9694 128.159359,150.1178 124.131559,150.1346" id="Fill-47" fill="#E16F33"></path>
                <path d="M138.459859,141.4952 C138.444459,141.4952 138.428359,141.4952 138.412959,141.4945 C134.541959,141.3629 130.679359,141.1655 126.825159,140.8855 C127.129659,140.0784 127.467759,139.2797 127.821259,138.4887 C131.346459,138.7274 134.871659,138.9087 138.412959,139.0242 C139.986559,139.0732 140.001959,141.4952 138.459859,141.4952" id="Fill-48" fill="#E16F33"></path>
                <path d="M142.208359,132.4967 C142.174059,132.4967 142.139059,132.496 142.102659,132.4932 C138.601959,132.2293 135.118759,131.8177 131.659359,131.2654 C132.136759,130.5003 132.639359,129.7506 133.158059,129.0093 C136.123259,129.4622 139.104559,129.7919 142.102659,130.0222 C143.647559,130.1349 143.690259,132.4967 142.208359,132.4967" id="Fill-49" fill="#E16F33"></path>
                <path d="M148.487359,125.8145 C148.417359,125.8145 148.345259,125.8089 148.271059,125.7977 C144.638759,125.2286 141.047759,124.488 137.498759,123.5493 C138.132959,122.8493 138.774859,122.1654 139.450359,121.4983 C142.580059,122.2809 145.734259,122.9235 148.929759,123.417 C150.427759,123.6445 149.886659,125.8145 148.487359,125.8145" id="Fill-50" fill="#E16F33"></path>
                <path d="M155.926259,116.6774 C155.847859,116.6774 155.766659,116.6704 155.683359,116.6557 C152.858859,116.1531 150.042059,115.5931 147.232959,114.9757 C148.180059,114.3079 149.152359,113.6821 150.140759,113.0731 C152.199459,113.5015 154.266559,113.8963 156.342059,114.2673 C157.822559,114.5319 157.305259,116.6774 155.926259,116.6774" id="Fill-51" fill="#E16F33"></path>
                <path d="M123.078059,159.3753 C123.102559,158.5353 123.143859,157.703 123.209659,156.8791 C126.693559,156.3772 130.168359,155.8907 133.644559,155.3881 C133.713859,155.3783 133.781059,155.3741 133.846859,155.3741 C135.255959,155.3741 135.798459,157.5567 134.303259,157.7688 C130.563859,158.3036 126.816759,158.8391 123.078059,159.3753" id="Fill-52" fill="#E16F33"></path>
                <path d="M123.365759,167.2314 L123.365759,167.2314 C123.275459,166.4159 123.209659,165.5927 123.159959,164.7695 C125.919359,164.3488 128.669659,163.9295 131.429059,163.5088 C131.503259,163.4976 131.575359,163.492 131.644659,163.492 C133.043959,163.492 133.578059,165.662 132.087759,165.8888 C129.180659,166.334 126.273559,166.7792 123.365759,167.2314" id="Fill-53" fill="#E16F33"></path>
                <path d="M125.704459,178.3173 L125.704459,178.3173 C125.449659,177.5347 125.219359,176.7437 125.004459,175.9457 C129.106459,174.9321 133.224559,173.9766 137.358759,173.0792 C137.460959,173.0568 137.560359,173.0463 137.654159,173.0463 C138.992559,173.0463 139.471359,175.1442 138.017459,175.4592 C133.899359,176.3566 129.798059,177.3128 125.704459,178.3173" id="Fill-54" fill="#E16F33"></path>
                <path d="M130.333559,188.8838 L130.333559,188.8838 C129.913559,188.1593 129.518059,187.4173 129.130959,186.6683 C132.952259,185.4412 136.814859,184.3793 140.735559,183.4735 C140.844759,183.4476 140.949759,183.4357 141.049859,183.4357 C142.372159,183.4357 142.833459,185.5238 141.394259,185.8528 C137.663259,186.7257 133.973559,187.7309 130.333559,188.8838" id="Fill-55" fill="#E16F33"></path>
                <path d="M141.212959,202.5716 L141.212959,202.5716 C140.603259,202.02 140.001959,201.4516 139.425859,200.858 C142.308459,198.4955 145.191059,196.1393 148.073659,193.7754 C148.329859,193.564 148.611259,193.4744 148.883559,193.4744 C149.902059,193.4744 150.794559,194.7288 149.819459,195.5212 C146.952959,197.869 144.079459,200.2161 141.212959,202.5716" id="Fill-56" fill="#E16F33"></path>
                <path d="M150.898159,209.7452 L150.898159,209.7452 C150.165259,209.3168 149.448459,208.8723 148.740759,208.4187 C150.651059,206.4671 152.742659,204.68 154.983359,203.0574 C155.205959,202.8971 155.426459,202.8278 155.633659,202.8278 C156.627659,202.8278 157.291959,204.4266 156.234959,205.191 C154.332359,206.5665 152.553659,208.0813 150.898159,209.7452" id="Fill-57" fill="#E16F33"></path>
                <path d="M159.817559,213.962 L159.817559,213.962 C158.960759,213.6575 158.120759,213.3194 157.289859,212.9652 C159.463359,210.9149 161.514359,208.7484 163.449159,206.4671 C163.694159,206.1794 163.979059,206.059 164.256959,206.059 C165.149459,206.059 165.974059,207.2966 165.195659,208.2129 C163.491159,210.2226 161.703359,212.142 159.817559,213.962" id="Fill-58" fill="#E16F33"></path>
                <path d="M167.147959,216.1194 L167.147959,216.1194 C166.332459,215.9381 165.524659,215.7407 164.726659,215.5265 C165.673059,213.4272 166.587959,211.3097 167.469259,209.1691 C167.702359,208.5972 168.215459,208.3494 168.713859,208.3494 C169.480359,208.3494 170.213259,208.9346 169.849259,209.8278 C168.984759,211.9439 168.085959,214.0362 167.147959,216.1194" id="Fill-59" fill="#E16F33"></path>
                <path d="M176.050559,217.3381 L176.050559,217.3381 C175.210559,217.2975 174.370559,217.2317 173.530559,217.1491 C174.189259,214.9497 174.609259,212.7013 174.822759,210.4039 C174.893459,209.6164 175.550059,209.2209 176.169559,209.2209 C176.786959,209.2209 177.367959,209.6143 177.294459,210.4039 C177.080259,212.6768 176.734459,214.9168 176.116359,217.1162 C176.091859,217.1897 176.075759,217.2646 176.050559,217.3381" id="Fill-60" fill="#E16F33"></path>
                <path d="M183.388659,217.2891 C183.800959,214.6123 184.154459,211.9278 184.458959,209.2265 C184.545759,208.4418 185.212159,208.0463 185.832359,208.0463 C186.449059,208.0463 187.020259,208.4376 186.929959,209.2265 C186.633159,211.8368 186.295759,214.4478 185.900959,217.0504 C185.068659,217.1491 184.228659,217.2317 183.388659,217.2891" id="Fill-61" fill="#E16F33"></path>
                <path d="M241.269559,159.243 C241.269559,173.4495 235.999259,186.4135 227.318559,196.3122 C217.015959,208.0729 201.878459,215.4936 185.019659,215.4936 C153.953659,215.4936 128.768359,190.3083 128.768359,159.243 C128.768359,128.1777 153.953659,102.9924 185.019659,102.9924 C186.798359,102.9924 188.552559,103.075 190.281559,103.2395 C218.884959,105.8911 241.269559,129.9564 241.269559,159.243 L284,190" id="Fill-62" fill="#F5BA51"></path>
                <g id="Group-7" transform="translate(157.000000, 142.000000)" fill="#E98A55" fill-rule="nonzero">
                    <path d="M3.88955753,16.4519421 L2.52781143,17.9106934 L2.43216698,15.0838367 L3.88955753,16.4519421 Z M7.92529522,12.0976168 L3.88955753,16.4519421 L5.25916311,17.7513223 C7.31270257,19.7118022 8.82062041,21.2128682 9.79205517,22.2649084 L10.5363268,23.0916096 L11.0362723,23.6567672 C11.353241,24.0173925 11.6371661,24.3452938 11.8857233,24.6378833 L12.3206175,25.1576963 L12.5826423,25.4819941 C12.6626444,25.5829542 12.7353839,25.6769202 12.801092,25.7643276 L12.9773531,26.0073099 C13.0904389,26.1702058 13.180507,26.31553 13.2581913,26.4743716 C13.3400531,26.641755 13.404215,26.8116254 13.446667,27.0262726 C13.567874,27.6391233 13.4733924,28.3010985 12.8613604,28.8933277 C12.2534134,29.4739951 11.5858097,29.5415795 10.9770269,29.3943629 C10.7638748,29.3428182 10.5965879,29.2713832 10.4325383,29.1823005 C10.2770675,29.0978763 10.135699,29.0016685 9.97772149,28.8816794 L9.74257792,28.6952697 C9.6580816,28.6259095 9.56732644,28.5492409 9.46988134,28.4650099 L9.15704507,28.189375 C8.59845757,27.6892587 7.84324884,26.9758462 6.92255643,26.0796795 L5.62749038,24.8062643 L4.82059169,24.0023256 C3.43984672,22.6208368 1.88610334,21.0380117 0.257922133,19.3531311 L-2.76232099,16.2088504 L-1.1105946,14.4636493 L3.20481799,9.99094076 C4.57768019,8.57688395 5.64113183,7.49364575 6.39662362,6.73979252 L7.63284385,5.52397795 L8.26956208,4.91155896 C8.4022462,4.78524259 8.528957,4.66554356 8.64949294,4.5526609 L9.14954426,4.09137121 L9.46161187,3.81320726 C9.5588387,3.72818151 9.64940905,3.6507689 9.73374062,3.58072215 L9.96843666,3.39243225 C10.1257785,3.27146826 10.2665993,3.17439497 10.4213924,3.08907487 C10.5845624,2.99913757 10.7510024,2.9267676 10.9632805,2.87385185 C11.5713581,2.72227287 12.2392524,2.78478677 12.8518535,3.36227068 L12.9927694,3.50672086 C13.4832342,4.05376505 13.5580725,4.66190458 13.4486114,5.2292294 C13.4072181,5.44376637 13.3439921,5.61368964 13.263087,5.78129944 C13.1862819,5.94041548 13.0969804,6.08626143 12.9847355,6.24987844 C12.8815674,6.40026445 12.7512217,6.57544352 12.591928,6.77882605 L12.3310552,7.10547872 L11.8971995,7.6300713 C11.4190518,8.19942254 10.809983,8.90084045 10.0875852,9.71444126 L9.11933048,10.7910239 C8.76902432,11.1768818 8.37103924,11.6123827 7.92529522,12.0976168 Z M1.78438674,17.223878 L1.45261074,17.574446 L-9.23705556e-14,16.1997017 L1.44347276,14.8153656 L2.77123257,16.1973519 L1.78438674,17.223878 Z" id="Fill-10"></path>
                    <path d="M50.404025,15.8049701 L51.0839426,15.0829149 L51.8069983,14.3193909 L53.235144,15.7195337 L51.869585,17.1807827 L51.3658393,16.7093343 L50.404025,15.8049701 Z M49.0858282,17.213572 L50.404025,15.8049701 L49.364725,14.8203444 C47.1458474,12.7086849 45.5309588,11.1057382 44.5094295,9.99942137 L44.2320787,9.69502783 L43.3343529,8.68608965 C42.8519008,8.13819057 42.443131,7.66315022 42.1161537,7.27002175 L41.8445543,6.93906045 L41.6045545,6.63612908 C41.568164,6.58910066 41.5335594,6.54376655 41.5007123,6.50007313 L41.3244929,6.25717154 C41.2114951,6.09443103 41.121503,5.94929044 41.0438671,5.79068796 C40.9619646,5.62336913 40.8977657,5.45362017 40.8552305,5.23897488 C40.7333567,4.62396334 40.8285066,3.95947639 41.4403916,3.37129161 C42.0483472,2.79061608 42.7158428,2.72305753 43.3246012,2.87022477 C43.5377024,2.92174197 43.704964,2.9931429 43.8689932,3.08218469 C44.02448,3.16658928 44.1658853,3.26279063 44.3238895,3.38276369 L44.5591607,3.56922338 C44.6859663,3.67328805 44.826846,3.79379199 44.9832355,3.93157683 L45.3022279,4.21696533 L45.9137643,4.78150614 C46.2097468,5.05880906 46.5373946,5.37073304 46.8943627,5.71498423 L48.0387618,6.83188703 L49.3005399,8.09381923 C50.4117458,9.21358469 51.8657135,10.6954031 53.6641217,12.5409183 L57.0816111,16.0567145 L51.8602806,21.4833623 C50.1859983,23.213904 48.9131819,24.515506 48.0397156,25.3902654 L46.8983621,26.5173463 L46.1328199,27.2570855 C45.895418,27.4839075 45.6761552,27.6906164 45.4761115,27.8761453 L44.9910249,28.3181327 L44.69924,28.5732718 C44.5632279,28.6894834 44.4417229,28.7888437 44.3333153,28.8721871 C44.1759735,28.9931511 44.0351527,29.0902244 43.8803596,29.1755445 C43.7171896,29.2654818 43.5507496,29.3378517 43.3384715,29.3907675 C42.7303939,29.5423465 42.0624996,29.4798326 41.4403916,28.8933277 C40.8322707,28.3124943 40.7345578,27.6499918 40.8531406,27.0353899 C40.8945339,26.820853 40.9577599,26.6509297 41.038665,26.4833199 C41.1154701,26.3242039 41.2047716,26.1783579 41.3170165,26.0147409 C41.4201846,25.8643549 41.5505303,25.6891758 41.709824,25.4857933 L41.9706968,25.1591406 C42.4028215,24.6268101 43.0038168,23.9232517 43.7495508,23.0757407 L44.527648,22.1979358 L45.5370156,21.0745452 C46.5955223,19.903956 47.7956996,18.5980696 49.0858282,17.213572 Z M51.5205377,16.0731335 L52.8587436,14.6800975 L52.8669417,17.4582301 L51.5205377,16.0731335 Z" id="Fill-11"></path>
                    <path d="M17.64828,31.0162217 L18.6894948,29.3086293 L17.64828,31.0162217 Z M19.1108698,32.420741 C19.2346461,32.3044483 19.3491567,32.1762952 19.4778388,32.0185373 C19.6347969,31.8261146 19.8254697,31.5722963 20.0539995,31.2531927 L20.1956934,31.0538651 C20.6569151,30.4005892 21.2655974,29.4973461 21.9973032,28.3814331 L22.9551401,26.9080826 L23.8901043,25.4502842 C25.1825639,23.4239075 26.6494541,21.0810638 28.183589,18.5911313 L29.2719792,16.8183387 C31.4657115,13.2324666 33.508318,9.81724873 35.1161663,7.05258075 L35.8825475,5.72668099 C36.6549585,4.38125251 37.2735266,3.27293918 37.7095337,2.45214172 L37.8147155,2.25296143 C38.0504378,1.80374898 38.2268366,1.44744028 38.346633,1.1746084 C38.4284845,0.988194851 38.4904308,0.827878336 38.5375967,0.664700364 L38.6121431,0.39153222 C38.8332708,-0.485006535 38.7568442,-1.03607377 37.6643471,-1.70404072 C36.4631231,-2.43848473 35.9478229,-2.14377082 35.1585664,-1.40231217 C35.0347777,-1.28602015 34.9202616,-1.15787093 34.7915766,-1.0001196 L34.5867841,-0.739515213 L34.3480387,-0.418483417 L34.0737496,-0.0355300953 C33.528672,0.736491028 32.7776332,1.85764637 31.8609716,3.26637404 L30.7379937,5.0067674 L29.6886341,6.65475785 C28.3625673,8.74848002 26.8861679,11.1191653 25.3609273,13.6064396 L24.2708512,15.390368 C22.4737535,18.341841 20.8036335,21.1374849 19.4246349,23.4996149 L18.3866547,25.2915701 C17.5497435,26.7493073 16.8935237,27.9285629 16.4544008,28.7654653 L16.1449252,29.3709535 L15.9870556,29.7006802 C15.9639316,29.7508521 15.9423929,29.798662 15.922427,29.8441537 C15.8405351,30.0307412 15.7785706,30.1912248 15.7314143,30.3546358 L15.6570529,30.6276632 C15.4475435,31.4601181 15.5063538,32.0004868 16.4496524,32.6239917 L16.6060345,32.7231854 C17.8066305,33.456897 18.3217565,33.1621441 19.1108698,32.420741 Z" id="Fill-12"></path>
                </g>
                <path d="M230.635159,159.2437 L230.285159,159.2437 C230.285159,171.745 225.218559,183.0598 217.026459,191.2526 C208.833659,199.4454 197.519559,204.5113 185.018259,204.5113 C172.516959,204.5113 161.202159,199.4454 153.009359,191.2526 C144.817259,183.0598 139.751359,171.745 139.750659,159.2437 C139.751359,146.7431 144.817259,135.4283 153.009359,127.2355 C161.202159,119.0434 172.516959,113.9768 185.018259,113.9768 C197.519559,113.9775 208.833659,119.0434 217.026459,127.2355 C225.218559,135.4283 230.285159,146.7431 230.285159,159.2437 L230.985159,159.2437 C230.985159,133.8575 210.404459,113.2768 185.018259,113.2768 C159.630659,113.2768 139.050659,133.8575 139.050659,159.2437 C139.050659,184.6313 159.630659,205.2113 185.018259,205.2113 C210.404459,205.2113 230.985159,184.6313 230.985159,159.2437 L230.635159,159.2437" id="Fill-63" fill="#E98A55"></path>
                <path d="M227.318559,196.3122 C243.123159,174.825 242.176059,143.1339 224.015959,123.417 C215.030759,113.666 202.981659,107.0608 190.281559,103.2395 C218.884959,105.8911 241.269559,129.9564 241.269559,159.243 C241.269559,173.4495 235.999259,186.4135 227.318559,196.3122" id="Fill-65" fill="#FCE6A1"></path>
                <path d="M147.752359,214.3575 L124.131559,233.6621 C124.131559,233.6621 117.608959,222.4614 113.243759,210.0994 C111.670859,205.6516 110.386359,201.0568 109.785059,196.7819 L132.277459,193.0922 C132.458059,193.0348 134.303259,195.4722 136.667159,198.7174 C141.237459,205.0181 147.752359,214.3575 147.752359,214.3575" id="Fill-66" fill="#FFFFFE"></path>
                <path d="M136.667159,198.7174 L113.243759,210.0994 C111.670859,205.6516 110.386359,201.0568 109.785059,196.7819 L132.277459,193.0922 C132.458059,193.0348 134.303259,195.4722 136.667159,198.7174" id="Fill-67" fill="#B2D2D1"></path>
                <path d="M142.078159,216.1194 C142.078159,217.4851 140.970759,218.5925 139.605059,218.5925 C138.239359,218.5925 137.131959,217.4851 137.131959,216.1194 C137.131959,214.7537 138.239359,213.647 139.605059,213.647 C140.970759,213.647 142.078159,214.7537 142.078159,216.1194" id="Fill-68" fill="#15212B"></path>
                <path d="M163.581459,198.849 C162.658859,202.2755 160.081459,205.1329 157.239459,207.1342 C155.304659,208.5013 153.146559,209.5394 150.906559,210.2968 C148.600059,211.0794 146.566559,212.2246 144.045859,211.6065 C142.283959,211.1781 140.760059,210.0826 139.360059,208.9213 C135.785159,205.9239 133.883259,202.5387 133.644559,197.8529 C133.578759,196.6006 133.603259,195.3483 133.669059,194.1296 C133.874859,190.1767 135.250359,186.3386 137.729059,183.2418 C140.817459,179.3799 144.342659,176.8676 147.076859,175.7889 C149.053659,175.0063 150.618159,174.9573 151.326559,175.6734 L151.326559,175.6818 C151.409159,175.7476 151.474959,175.8379 151.532359,175.9373 C152.809159,178.1444 139.236159,186.8412 141.089759,195.3077 C141.089759,195.3077 151.063359,180.6889 154.777559,182.4347 C158.442059,184.1476 146.302659,199.5161 145.973659,199.9361 C146.319459,199.549 158.293659,186.2812 160.805959,188.2328 C163.358859,190.2019 148.863959,204.351 148.863959,204.351 C148.863959,204.351 153.731759,204.6968 157.214959,201.6819 C160.690459,198.6684 158.253059,193.4296 162.313059,194.138 C164.322059,194.4838 163.951759,197.4819 163.581459,198.849" id="Fill-69" fill="#EEA182"></path>
                <path d="M235.552659,197.232 C238.829359,189.2821 225.775059,171.5455 222.626459,172.8713 C219.477859,174.1971 232.495759,189.7406 230.635159,192.1668 C228.774559,194.593 220.969559,176.5169 216.329259,177.8434 C211.688959,179.1685 227.290559,196.5971 225.098859,198.7097 C222.907159,200.823 214.672359,184.3058 210.695659,186.2945 C206.718259,188.2832 220.214259,203.1841 218.905959,204.1459 C217.598359,205.1077 214.542159,207.1314 214.542159,207.1314 C214.542159,207.1314 230.635159,209.1642 235.552659,197.232" id="Fill-70" fill="#EEA182"></path>
            </g>
        </g>
    </g>
</svg>