<?xml version="1.0" encoding="UTF-8"?>
<svg width="30px" height="41px" viewBox="0 0 30 41" version="1.1" xmlns="http://www.w3.org/2000/svg" xmlns:xlink="http://www.w3.org/1999/xlink">
    <!-- Generator: Sketch 59.1 (86144) - https://sketch.com -->
    <title>Combined Shape</title>
    <desc>Created with Sketch.</desc>
    <g id="Final" stroke="none" stroke-width="1" fill="none" fill-rule="evenodd">
        <path d="M27,0 C28.6568542,-3.04359188e-16 30,1.34314575 30,3 L30,38 C30,39.6568542 28.6568542,41 27,41 L3,41 C1.34314575,41 2.02906125e-16,39.6568542 0,38 L0,3 C-2.02906125e-16,1.34314575 1.34314575,3.04359188e-16 3,0 L27,0 Z M16,30 L5,30 L5,34 L16,34 L16,30 Z M24,18 L5,18 L5,22 L24,22 L24,18 Z M24,12 L5,12 L5,16 L24,16 L24,12 Z M24,6 L5,6 L5,10 L24,10 L24,6 Z" id="Combined-Shape" fill="#CCE3FF"></path>
    </g>
</svg>