<?xml version="1.0" encoding="UTF-8"?>
<svg width="32px" height="32px" viewBox="0 0 32 32" version="1.1" xmlns="http://www.w3.org/2000/svg" xmlns:xlink="http://www.w3.org/1999/xlink">
    <!-- Generator: Sketch 59.1 (86144) - https://sketch.com -->
    <title>Group 5 Copy</title>
    <desc>Created with Sketch.</desc>
    <g id="Insights" stroke="none" stroke-width="1" fill="none" fill-rule="evenodd">
        <g id="Insight-page-mobile" transform="translate(-77.000000, -300.000000)" fill-rule="nonzero">
            <g id="Group-5-Copy" transform="translate(77.000000, 300.000000)">
                <circle id="Oval" fill-opacity="0.9" fill="#7C64E1" opacity="0.11" cx="16" cy="16" r="16"></circle>
                <path d="M21.2133333,12.8685714 L22.2952381,11.7866667 C21.952381,11.3980952 21.6095238,11.047619 21.2209524,10.712381 L20.1390476,11.8095238 C18.9580952,10.8495238 17.472381,10.2857143 15.8571429,10.2857143 C12.0704762,10.2857143 9,13.3561905 9,17.1428571 C9,20.9295238 12.0704762,24 15.8571429,24 C19.6666667,24 22.7142857,20.9295238 22.7142857,17.1428571 C22.7142857,15.527619 22.1504762,14.0419048 21.2133333,12.8685714 M16.6190476,17.9047619 L15.0952381,17.9047619 L15.0952381,12.5714286 L16.6190476,12.5714286 L16.6190476,17.9047619 M18.1428571,8 L13.5714286,8 L13.5714286,9.52380952 L18.1428571,9.52380952 L18.1428571,8 Z" id="Shape" fill="#9A85E6"></path>
            </g>
        </g>
    </g>
</svg>